<?xml version="1.0" encoding="UTF-8"?>
<svg version="1.1" xmlns="http://www.w3.org/2000/svg" width="128" height="128">
<path d="M0 0 C0.85332916 -0.0033284 1.70665833 -0.0066568 2.58584595 -0.01008606 C4.39316264 -0.01515369 6.20048871 -0.01749444 8.0078125 -0.01733398 C10.77099076 -0.01951697 13.5337676 -0.03766459 16.296875 -0.05664062 C18.05208197 -0.05957528 19.80729083 -0.06155959 21.5625 -0.0625 C22.38865814 -0.06968552 23.21481628 -0.07687103 24.06600952 -0.08427429 C24.84006134 -0.08119766 25.61411316 -0.07812103 26.41162109 -0.07495117 C27.08953705 -0.07637619 27.767453 -0.07780121 28.46591187 -0.07926941 C30.4140625 0.16796875 30.4140625 0.16796875 34.4140625 2.16796875 C34.4140625 6.12796875 34.4140625 10.08796875 34.4140625 14.16796875 C36.953125 14.0703125 39.4921875 13.97265625 42.03125 13.875 C43.21074219 14.02001953 43.21074219 14.02001953 44.4140625 14.16796875 C46.44142412 17.20901118 46.66347482 17.76775598 46.65457153 21.17326355 C46.65732086 21.98514633 46.66007019 22.79702911 46.66290283 23.6335144 C46.652117 24.96384201 46.652117 24.96384201 46.64111328 26.32104492 C46.64140533 27.25782578 46.64169739 28.19460663 46.64199829 29.15977478 C46.64060348 32.26025614 46.62503505 35.36049805 46.609375 38.4609375 C46.60564541 40.60899219 46.60279818 42.75704859 46.60079956 44.90510559 C46.59315885 50.56208991 46.57350655 56.21897174 46.5513916 61.87591553 C46.53094263 67.64708062 46.52179987 73.41826226 46.51171875 79.18945312 C46.4902611 90.51567731 46.45507534 101.84179847 46.4140625 113.16796875 C38.4940625 113.16796875 30.5740625 113.16796875 22.4140625 113.16796875 C22.0840625 104.25796875 21.7540625 95.34796875 21.4140625 86.16796875 C14.1540625 86.16796875 6.8940625 86.16796875 -0.5859375 86.16796875 C-0.9159375 95.07796875 -1.2459375 103.98796875 -1.5859375 113.16796875 C-9.5059375 113.16796875 -17.4259375 113.16796875 -25.5859375 113.16796875 C-25.63105469 100.5552837 -25.66777644 87.94265192 -25.68956184 75.32990456 C-25.70001574 69.47381222 -25.71420417 63.61777777 -25.73681641 57.76171875 C-25.7584876 52.11426598 -25.77049401 46.46686903 -25.77569199 40.8193779 C-25.77939806 38.66072078 -25.78663469 36.50206685 -25.79739761 34.34343338 C-25.81183647 31.32865965 -25.81391864 28.31411894 -25.81298828 25.29931641 C-25.82017883 24.39948532 -25.82736938 23.49965424 -25.83477783 22.57255554 C-25.81404182 16.39607307 -25.81404182 16.39607307 -23.5859375 14.16796875 C-20.765625 13.75390625 -20.765625 13.75390625 -17.4609375 13.54296875 C-16.36523438 13.46820313 -15.26953125 13.3934375 -14.140625 13.31640625 C-13.29757813 13.26742188 -12.45453125 13.2184375 -11.5859375 13.16796875 C-11.53695312 12.31332031 -11.48796875 11.45867188 -11.4375 10.578125 C-11.36273438 9.47339844 -11.28796875 8.36867188 -11.2109375 7.23046875 C-11.14132813 6.12832031 -11.07171875 5.02617187 -11 3.890625 C-10.86335938 2.99214844 -10.72671875 2.09367188 -10.5859375 1.16796875 C-7.28948141 -0.48025929 -3.62359489 0.00485713 0 0 Z M-10.5859375 41.16796875 C-10.2559375 42.81796875 -9.9259375 44.46796875 -9.5859375 46.16796875 C-7.2759375 46.16796875 -4.9659375 46.16796875 -2.5859375 46.16796875 C-1.99523736 44.22193601 -1.99523736 44.22193601 -1.5859375 42.16796875 C-2.56861609 40.96235691 -2.56861609 40.96235691 -4.43359375 41.0703125 C-6.484375 41.10286458 -8.53515625 41.13541667 -10.5859375 41.16796875 Z M6.4140625 41.16796875 C6.7440625 42.81796875 7.0740625 44.46796875 7.4140625 46.16796875 C9.3940625 46.16796875 11.3740625 46.16796875 13.4140625 46.16796875 C13.7440625 44.51796875 14.0740625 42.86796875 14.4140625 41.16796875 C11.7740625 41.16796875 9.1340625 41.16796875 6.4140625 41.16796875 Z M23.4140625 41.16796875 C23.0840625 42.15796875 22.7540625 43.14796875 22.4140625 44.16796875 C22.7440625 44.82796875 23.0740625 45.48796875 23.4140625 46.16796875 C25.7240625 46.16796875 28.0340625 46.16796875 30.4140625 46.16796875 C30.7440625 44.51796875 31.0740625 42.86796875 31.4140625 41.16796875 C28.7740625 41.16796875 26.1340625 41.16796875 23.4140625 41.16796875 Z M-10.5859375 54.16796875 C-10.2559375 55.81796875 -9.9259375 57.46796875 -9.5859375 59.16796875 C-7.2759375 59.16796875 -4.9659375 59.16796875 -2.5859375 59.16796875 C-1.99523736 57.22193601 -1.99523736 57.22193601 -1.5859375 55.16796875 C-2.56861609 53.96235691 -2.56861609 53.96235691 -4.43359375 54.0703125 C-6.484375 54.10286458 -8.53515625 54.13541667 -10.5859375 54.16796875 Z M6.4140625 54.16796875 C6.4140625 55.81796875 6.4140625 57.46796875 6.4140625 59.16796875 C9.0540625 59.16796875 11.6940625 59.16796875 14.4140625 59.16796875 C14.4140625 57.51796875 14.4140625 55.86796875 14.4140625 54.16796875 C11.7740625 54.16796875 9.1340625 54.16796875 6.4140625 54.16796875 Z M23.4140625 54.16796875 C22.82336236 56.11400149 22.82336236 56.11400149 22.4140625 58.16796875 C23.59830576 59.58374352 23.59830576 59.58374352 26.9765625 59.23046875 C28.678125 59.19953125 28.678125 59.19953125 30.4140625 59.16796875 C30.7440625 57.51796875 31.0740625 55.86796875 31.4140625 54.16796875 C28.7740625 54.16796875 26.1340625 54.16796875 23.4140625 54.16796875 Z M-9.5859375 67.16796875 C-10.17663764 69.11400149 -10.17663764 69.11400149 -10.5859375 71.16796875 C-9.40169424 72.58374352 -9.40169424 72.58374352 -6.0234375 72.23046875 C-4.321875 72.19953125 -4.321875 72.19953125 -2.5859375 72.16796875 C-1.99523736 70.22193601 -1.99523736 70.22193601 -1.5859375 68.16796875 C-2.77018076 66.75219398 -2.77018076 66.75219398 -6.1484375 67.10546875 C-7.85 67.13640625 -7.85 67.13640625 -9.5859375 67.16796875 Z M6.4140625 67.16796875 C6.4140625 68.81796875 6.4140625 70.46796875 6.4140625 72.16796875 C9.0540625 72.16796875 11.6940625 72.16796875 14.4140625 72.16796875 C14.4140625 70.51796875 14.4140625 68.86796875 14.4140625 67.16796875 C11.7740625 67.16796875 9.1340625 67.16796875 6.4140625 67.16796875 Z M23.4140625 67.16796875 C22.82336236 69.11400149 22.82336236 69.11400149 22.4140625 71.16796875 C23.59830576 72.58374352 23.59830576 72.58374352 26.9765625 72.23046875 C28.678125 72.19953125 28.678125 72.19953125 30.4140625 72.16796875 C31.00476264 70.22193601 31.00476264 70.22193601 31.4140625 68.16796875 C30.22981924 66.75219398 30.22981924 66.75219398 26.8515625 67.10546875 C25.15 67.13640625 25.15 67.13640625 23.4140625 67.16796875 Z " fill="#49BBE2" transform="translate(53.5859375,7.83203125)"/>
<path d="M0 0 C4.62 0 9.24 0 14 0 C16 2 16 2 16.24050903 4.89797974 C16.2338472 6.75663162 16.2338472 6.75663162 16.22705078 8.65283203 C16.22734283 9.33587402 16.22763489 10.01891602 16.22793579 10.72265625 C16.22654039 12.98450341 16.21096967 15.24602276 16.1953125 17.5078125 C16.19158311 19.07436951 16.18873579 20.64092884 16.18673706 22.20748901 C16.17909476 26.33394797 16.15944124 30.46026651 16.1373291 34.58666992 C16.11688346 38.79604187 16.1077381 43.00543648 16.09765625 47.21484375 C16.07619582 55.47663418 16.0410089 63.73828345 16 72 C10.72 72 5.44 72 0 72 C0 48.24 0 24.48 0 0 Z " fill="#48BBE2" transform="translate(105,49)"/>
<path d="M0 0 C4.62 0 9.24 0 14 0 C14 23.76 14 47.52 14 72 C8.72 72 3.44 72 -2 72 C-2.0451318 62.90767895 -2.08184735 53.81543194 -2.10362434 44.72302437 C-2.11407464 40.5013425 -2.12825645 36.27974105 -2.15087891 32.05810547 C-2.17256303 27.98622723 -2.18455923 23.91442647 -2.18975449 19.84249496 C-2.19345824 18.28670913 -2.20069046 16.73092768 -2.21146011 15.17517471 C-2.22591638 13.00096626 -2.22798044 10.82708058 -2.22705078 8.65283203 C-2.231492 7.41373077 -2.23593323 6.17462952 -2.24050903 4.89797974 C-2 2 -2 2 0 0 Z " fill="#48BBE2" transform="translate(9,49)"/>
<path d="M0 0 C2.5625 0.1875 2.5625 0.1875 4.5625 2.1875 C4.6875 5.8125 4.6875 5.8125 4.5625 9.1875 C5.20058594 9.24808594 5.83867188 9.30867188 6.49609375 9.37109375 C7.32238281 9.45488281 8.14867188 9.53867187 9 9.625 C10.23556641 9.74681641 10.23556641 9.74681641 11.49609375 9.87109375 C13.5625 10.1875 13.5625 10.1875 14.5625 11.1875 C14.60313832 12.85367115 14.605221 14.52138095 14.5625 16.1875 C13.9025 16.1875 13.2425 16.1875 12.5625 16.1875 C12.5625 16.8475 12.5625 17.5075 12.5625 18.1875 C9.9225 18.1875 7.2825 18.1875 4.5625 18.1875 C4.5625 20.8275 4.5625 23.4675 4.5625 26.1875 C1.9225 26.1875 -0.7175 26.1875 -3.4375 26.1875 C-3.4375 23.5475 -3.4375 20.9075 -3.4375 18.1875 C-6.0775 18.1875 -8.7175 18.1875 -11.4375 18.1875 C-11.4375 17.5275 -11.4375 16.8675 -11.4375 16.1875 C-12.0975 16.1875 -12.7575 16.1875 -13.4375 16.1875 C-13.4375 14.5375 -13.4375 12.8875 -13.4375 11.1875 C-10.4675 10.1975 -7.4975 9.2075 -4.4375 8.1875 C-4.293125 7.053125 -4.14875 5.91875 -4 4.75 C-3.28995902 0.25307377 -3.28995902 0.25307377 0 0 Z " fill="#F2C21E" transform="translate(63.4375,17.8125)"/>
<path d="M0 0 C3.96 0 7.92 0 12 0 C12 7.59 12 15.18 12 23 C8.04 23 4.08 23 0 23 C0 15.41 0 7.82 0 0 Z " fill="#007395" transform="translate(58,98)"/>
<path d="M0 0 C0.33 0 0.66 0 1 0 C1 32.01 1 64.02 1 97 C0.67 97 0.34 97 0 97 C0 64.99 0 32.98 0 0 Z " fill="#4DB9DD" transform="translate(26,24)"/>
<path d="M0 0 C0.33 0 0.66 0 1 0 C1 32.01 1 64.02 1 97 C0.67 97 0.34 97 0 97 C0 64.99 0 32.98 0 0 Z " fill="#4EBADE" transform="translate(101,24)"/>
<path d="M0 0 C0.33 0 0.66 0 1 0 C1 23.76 1 47.52 1 72 C0.67 72 0.34 72 0 72 C0 48.24 0 24.48 0 0 Z " fill="#48BBE2" transform="translate(24,49)"/>
<path d="M0 0 C0.33 0 0.66 0 1 0 C1 23.76 1 47.52 1 72 C0.67 72 0.34 72 0 72 C0 48.24 0 24.48 0 0 Z " fill="#49BCE2" transform="translate(103,49)"/>
<path d="M0 0 C0.33 0 0.66 0 1 0 C1 23.1 1 46.2 1 70 C0.67 70 0.34 70 0 70 C0 46.9 0 23.8 0 0 Z " fill="#49BAE3" transform="translate(122,51)"/>
<path d="M0 0 C0.33 0 0.66 0 1 0 C1 23.1 1 46.2 1 70 C0.67 70 0.34 70 0 70 C0 46.9 0 23.8 0 0 Z " fill="#48BAE3" transform="translate(5,51)"/>
<path d="M0 0 C6.93 0 13.86 0 21 0 C21 0.33 21 0.66 21 1 C14.4 1 7.8 1 1 1 C1 9.58 1 18.16 1 27 C0.67 27 0.34 27 0 27 C0 18.09 0 9.18 0 0 Z " fill="#49BBE1" transform="translate(53,94)"/>
<path d="M0 0 C1.47968324 0.14049518 2.95874516 0.28754826 4.4375 0.4375 C5.67306641 0.55931641 5.67306641 0.55931641 6.93359375 0.68359375 C9 1 9 1 10 2 C10.04063832 3.66617115 10.042721 5.33388095 10 7 C9.34 7 8.68 7 8 7 C8 7.66 8 8.32 8 9 C5.36 9 2.72 9 0 9 C2.33214148 7.79371992 4.49642139 6.8345262 7 6 C7 4.68 7 3.36 7 2 C4.69 2 2.38 2 0 2 C0 1.34 0 0.68 0 0 Z " fill="#D4C555" transform="translate(68,27)"/>
<path d="M0 0 C12.87 0 25.74 0 39 0 C39 0.33 39 0.66 39 1 C26.13 1 13.26 1 0 1 C0 0.67 0 0.34 0 0 Z " fill="#61B2D2" transform="translate(45,6)"/>
<path d="M0 0 C2.5625 0.1875 2.5625 0.1875 4.5625 2.1875 C4.6875 5.3125 4.6875 5.3125 4.5625 8.1875 C4.2325 8.1875 3.9025 8.1875 3.5625 8.1875 C3.5625 6.5375 3.5625 4.8875 3.5625 3.1875 C0.67674181 3.58553561 -0.25939513 3.97759069 -2.1875 6.25 C-2.6 6.889375 -3.0125 7.52875 -3.4375 8.1875 C-3.47991723 5.85455225 -3.47842937 3.52047433 -3.4375 1.1875 C-2.4375 0.1875 -2.4375 0.1875 0 0 Z " fill="#DBC54A" transform="translate(63.4375,17.8125)"/>
<path d="M0 0 C2.64 0 5.28 0 8 0 C8 0.33 8 0.66 8 1 C5.69 1 3.38 1 1 1 C1 4.3 1 7.6 1 11 C-1.31 10.67 -3.62 10.34 -6 10 C-6 9.34 -6 8.68 -6 8 C-4.02 8 -2.04 8 0 8 C0 5.36 0 2.72 0 0 Z " fill="#77BAB2" transform="translate(68,36)"/>
<path d="M0 0 C1.32 0 2.64 0 4 0 C4 1.98 4 3.96 4 6 C2.02253397 6.73080266 0.01927511 7.39421747 -2 8 C-2.66 7.67 -3.32 7.34 -4 7 C-3.34 6.34 -2.68 5.68 -2 5 C-0.68 5 0.64 5 2 5 C2 4.01 2 3.02 2 2 C1.34 2 0.68 2 0 2 C0 1.34 0 0.68 0 0 Z " fill="#6DB7AE" transform="translate(56,20)"/>
<path d="M0 0 C0.33 0 0.66 0 1 0 C1 8.58 1 17.16 1 26 C0.67 26 0.34 26 0 26 C0 17.42 0 8.84 0 0 Z " fill="#48BDE1" transform="translate(74,95)"/>
<path d="M0 0 C1.32 0 2.64 0 4 0 C4 0.66 4 1.32 4 2 C3.34 2 2.68 2 2 2 C2 2.99 2 3.98 2 5 C3.32 5 4.64 5 6 5 C6 5.66 6 6.32 6 7 C4.02 7 2.04 7 0 7 C0 4.69 0 2.38 0 0 Z " fill="#70B7B1" transform="translate(68,20)"/>
<path d="M0 0 C1.85776765 3.13498292 2.20140476 5.37471432 2 9 C0.35 8.67 -1.3 8.34 -3 8 C-2.67 6.68 -2.34 5.36 -2 4 C-1.34 4 -0.68 4 0 4 C0 2.68 0 1.36 0 0 Z " fill="#4ABBC6" transform="translate(78,30)"/>
<path d="M0 0 C7.59 0 15.18 0 23 0 C23 0.33 23 0.66 23 1 C15.41 1 7.82 1 0 1 C0 0.67 0 0.34 0 0 Z " fill="#45BCE3" transform="translate(76,122)"/>
<path d="M0 0 C7.59 0 15.18 0 23 0 C23 0.33 23 0.66 23 1 C15.41 1 7.82 1 0 1 C0 0.67 0 0.34 0 0 Z " fill="#44BDDF" transform="translate(29,122)"/>
<path d="M0 0 C0.33 0 0.66 0 1 0 C1 7.59 1 15.18 1 23 C0.67 23 0.34 23 0 23 C0 15.41 0 7.82 0 0 Z " fill="#007397" transform="translate(71,98)"/>
<path d="M0 0 C0.33 0 0.66 0 1 0 C1 7.59 1 15.18 1 23 C0.67 23 0.34 23 0 23 C0 15.41 0 7.82 0 0 Z " fill="#007396" transform="translate(56,98)"/>
<path d="M0 0 C5.28 0 10.56 0 16 0 C16 0.33 16 0.66 16 1 C10.72 1 5.44 1 0 1 C0 0.67 0 0.34 0 0 Z " fill="#46BDE1" transform="translate(105,122)"/>
<path d="M0 0 C5.28 0 10.56 0 16 0 C16 0.33 16 0.66 16 1 C10.72 1 5.44 1 0 1 C0 0.67 0 0.34 0 0 Z " fill="#48BCE1" transform="translate(7,122)"/>
<path d="M0 0 C1.98 0 3.96 0 6 0 C6.33 0.99 6.66 1.98 7 3 C4.69 3 2.38 3 0 3 C0 2.01 0 1.02 0 0 Z M1 1 C1 1.33 1 1.66 1 2 C2.65 2 4.3 2 6 2 C6 1.67 6 1.34 6 1 C4.35 1 2.7 1 1 1 Z " fill="#4ABCE3" transform="translate(44,76)"/>
<path d="M0 0 C1.98 0 3.96 0 6 0 C6 0.99 6 1.98 6 3 C3.69 3 1.38 3 -1 3 C-0.67 2.01 -0.34 1.02 0 0 Z M0 1 C0 1.33 0 1.66 0 2 C1.65 2 3.3 2 5 2 C5 1.67 5 1.34 5 1 C3.35 1 1.7 1 0 1 Z " fill="#4ABCE3" transform="translate(78,76)"/>
<path d="M0 0 C2.31 0 4.62 0 7 0 C6.67 0.99 6.34 1.98 6 3 C4.02 3 2.04 3 0 3 C0 2.01 0 1.02 0 0 Z M1 1 C1 1.33 1 1.66 1 2 C2.65 2 4.3 2 6 2 C6 1.67 6 1.34 6 1 C4.35 1 2.7 1 1 1 Z " fill="#49BCE2" transform="translate(44,63)"/>
<path d="M0 0 C2.31 0 4.62 0 7 0 C7 0.99 7 1.98 7 3 C5.02 3 3.04 3 1 3 C0.67 2.01 0.34 1.02 0 0 Z M1 1 C1 1.33 1 1.66 1 2 C2.65 2 4.3 2 6 2 C6 1.67 6 1.34 6 1 C4.35 1 2.7 1 1 1 Z " fill="#4ABCE3" transform="translate(77,63)"/>
<path d="M0 0 C2.31 0 4.62 0 7 0 C7 0.99 7 1.98 7 3 C5.02 3 3.04 3 1 3 C0.67 2.01 0.34 1.02 0 0 Z M1 1 C1 1.33 1 1.66 1 2 C2.65 2 4.3 2 6 2 C6 1.67 6 1.34 6 1 C4.35 1 2.7 1 1 1 Z " fill="#4ABCE3" transform="translate(77,50)"/>
<path d="M0 0 C2.31 0 4.62 0 7 0 C6.67 0.99 6.34 1.98 6 3 C4.02 3 2.04 3 0 3 C0 2.01 0 1.02 0 0 Z M1 1 C1 1.33 1 1.66 1 2 C2.65 2 4.3 2 6 2 C6 1.67 6 1.34 6 1 C4.35 1 2.7 1 1 1 Z " fill="#48BDE2" transform="translate(44,50)"/>
<path d="M0 0 C4.62 0 9.24 0 14 0 C14 0.33 14 0.66 14 1 C9.38 1 4.76 1 0 1 C0 0.67 0 0.34 0 0 Z " fill="#4ABBE7" transform="translate(105,47)"/>
<path d="M0 0 C4.62 0 9.24 0 14 0 C14 0.33 14 0.66 14 1 C9.38 1 4.76 1 0 1 C0 0.67 0 0.34 0 0 Z " fill="#49B8E5" transform="translate(9,47)"/>
<path d="M0 0 C1.98 0 3.96 0 6 0 C6 0.99 6 1.98 6 3 C4.02 3 2.04 3 0 3 C0 2.01 0 1.02 0 0 Z " fill="#4ABCE2" transform="translate(61,50)"/>
<path d="M0 0 C3.96 0 7.92 0 12 0 C12 0.33 12 0.66 12 1 C8.04 1 4.08 1 0 1 C0 0.67 0 0.34 0 0 Z " fill="#007497" transform="translate(58,122)"/>
<path d="M0 0 C3.96 0 7.92 0 12 0 C12 0.33 12 0.66 12 1 C8.04 1 4.08 1 0 1 C0 0.67 0 0.34 0 0 Z " fill="#007397" transform="translate(58,96)"/>
<path d="M0 0 C1.98 0 3.96 0 6 0 C6 0.33 6 0.66 6 1 C4.02 1 2.04 1 0 1 C0 0.67 0 0.34 0 0 Z " fill="#4ABCE3" transform="translate(61,78)"/>
<path d="M0 0 C1.98 0 3.96 0 6 0 C6 0.33 6 0.66 6 1 C4.02 1 2.04 1 0 1 C0 0.67 0 0.34 0 0 Z " fill="#4ABCE3" transform="translate(61,76)"/>
<path d="M0 0 C1.98 0 3.96 0 6 0 C6 0.33 6 0.66 6 1 C4.02 1 2.04 1 0 1 C0 0.67 0 0.34 0 0 Z " fill="#4ABCE3" transform="translate(61,65)"/>
<path d="M0 0 C1.98 0 3.96 0 6 0 C6 0.33 6 0.66 6 1 C4.02 1 2.04 1 0 1 C0 0.67 0 0.34 0 0 Z " fill="#4ABCE5" transform="translate(61,63)"/>
<path d="" fill="#49BBE2" transform="translate(0,0)"/>
<path d="" fill="#49BBE2" transform="translate(0,0)"/>
<path d="" fill="#4CBBDA" transform="translate(0,0)"/>
<path d="M0 0 C2 1 2 1 2 1 Z " fill="#51B8DB" transform="translate(119,48)"/>
<path d="M0 0 C2 1 2 1 2 1 Z " fill="#50B8D8" transform="translate(7,48)"/>
<path d="M0 0 C2 1 2 1 2 1 Z " fill="#52BBCE" transform="translate(96,20)"/>
<path d="M0 0 C2 1 2 1 2 1 Z " fill="#51BACD" transform="translate(30,20)"/>
<path d="M0 0 C2 1 2 1 2 1 Z " fill="#4ABCDA" transform="translate(43,7)"/>
<path d="" fill="#4DB9E0" transform="translate(0,0)"/>
<path d="" fill="#4BBCE1" transform="translate(0,0)"/>
<path d="" fill="#4ABEDB" transform="translate(0,0)"/>
<path d="" fill="#47BFDF" transform="translate(0,0)"/>
<path d="" fill="#007494" transform="translate(0,0)"/>
<path d="" fill="#007494" transform="translate(0,0)"/>
<path d="" fill="#47BDDC" transform="translate(0,0)"/>
<path d="" fill="#4BBCDD" transform="translate(0,0)"/>
<path d="" fill="#51B8DC" transform="translate(0,0)"/>
<path d="" fill="#007398" transform="translate(0,0)"/>
<path d="" fill="#007398" transform="translate(0,0)"/>
<path d="" fill="#4FBAE1" transform="translate(0,0)"/>
<path d="" fill="#4CBAE0" transform="translate(0,0)"/>
<path d="" fill="#4ABDDD" transform="translate(0,0)"/>
<path d="" fill="#49BCDC" transform="translate(0,0)"/>
<path d="" fill="#4FB9E5" transform="translate(0,0)"/>
<path d="" fill="#4DB8E4" transform="translate(0,0)"/>
<path d="" fill="#45C0DD" transform="translate(0,0)"/>
<path d="" fill="#44BFDC" transform="translate(0,0)"/>
<path d="" fill="#52B7DC" transform="translate(0,0)"/>
<path d="" fill="#49BBE2" transform="translate(0,0)"/>
<path d="" fill="#49BBE2" transform="translate(0,0)"/>
<path d="" fill="#49BBE0" transform="translate(0,0)"/>
<path d="" fill="#4ABAE4" transform="translate(0,0)"/>
</svg>
