<?xml version="1.0" encoding="UTF-8"?>
<svg version="1.1" xmlns="http://www.w3.org/2000/svg" width="128" height="128">
<path d="M0 0 C2.46660504 1.08568716 4.4609364 1.16376636 7.1484375 1.265625 C18.0502661 2.13545175 26.74996584 6.97099674 34 15.109375 C41.55450678 25.01060091 44.44230522 36.56421167 43.0234375 48.890625 C40.84601262 60.45819465 35.57790861 69.86441394 26.0234375 76.890625 C15.42716136 83.64252047 5.34659837 84.59489193 -6.9765625 82.890625 C-7.07453125 83.5196875 -7.1725 84.14875 -7.2734375 84.796875 C-8.52428495 91.95689832 -10.51587813 97.63617148 -14.9140625 103.453125 C-16.9765625 104.890625 -16.9765625 104.890625 -19.4765625 104.953125 C-23.51849666 103.23530298 -25.43144722 100.15888985 -27.13671875 96.19140625 C-29.36579129 88.80941279 -30.85510268 81.52770595 -31.93774414 73.89575195 C-32.47232592 70.2571726 -32.90511347 67.99779855 -34.9765625 64.890625 C-37.41373508 65.16097134 -37.41373508 65.16097134 -39.9765625 65.890625 C-42.00092652 68.92717104 -42.38351567 70.35225968 -42.90625 73.86328125 C-43.14021484 75.33764648 -43.14021484 75.33764648 -43.37890625 76.84179688 C-43.68977445 78.88813174 -43.9971659 80.93499834 -44.30078125 82.98242188 C-46.87754133 99.10288431 -46.87754133 99.10288431 -51.95263672 103.66821289 C-53.9765625 104.890625 -53.9765625 104.890625 -56.4765625 104.890625 C-60.81372799 103.15575881 -62.43497081 99.96815207 -64.47265625 95.9140625 C-66.5264245 91.0119744 -67.12404788 85.86453324 -67.9140625 80.640625 C-69.7629502 69.41398242 -72.58713189 60.34594896 -78.0390625 50.390625 C-84.07284605 39.35123007 -87.5278773 27.61178855 -84.21484375 14.98828125 C-83.27475263 12.51729075 -82.21815856 10.22292871 -80.9765625 7.890625 C-80.3990625 6.7975 -79.8215625 5.704375 -79.2265625 4.578125 C-75.64887351 0.30477426 -71.24518163 -2.35316862 -65.9765625 -4.109375 C-52.39240279 -5.14407705 -42.26539449 -3.1303872 -30.9765625 4.890625 C-30.3165625 4.890625 -29.6565625 4.890625 -28.9765625 4.890625 C-29.9743383 1.89729761 -30.728765 0.94296185 -32.9765625 -1.109375 C-20.75286436 -5.87454546 -11.73675593 -6.58742823 0 0 Z " fill="#49BBE2" transform="translate(84.9765625,14.109375)"/>
<path d="M0 0 C7.94971805 5.55030067 13.3269765 12.64082082 16 22 C17.94422183 34.16858896 16.26868818 44.90090856 9 55 C2.2181041 62.48665851 -5.23454452 67.13573834 -15.3515625 68.26171875 C-24.52041977 68.68377726 -33.04536253 65.61779482 -40.15234375 59.82421875 C-48.5468306 51.53621587 -52.23385989 42.71988461 -52.4375 31.0625 C-52.32934388 19.49914173 -48.1952145 11.13908289 -40 3 C-27.2690009 -6.50895612 -14.01667256 -7.87074824 0 0 Z " fill="#FCC013" transform="translate(107,25)"/>
<path d="M0 0 C7.94971805 5.55030067 13.3269765 12.64082082 16 22 C17.94422183 34.16858896 16.26868818 44.90090856 9 55 C2.2181041 62.48665851 -5.23454452 67.13573834 -15.3515625 68.26171875 C-24.52041977 68.68377726 -33.04536253 65.61779482 -40.15234375 59.82421875 C-48.5468306 51.53621587 -52.23385989 42.71988461 -52.4375 31.0625 C-52.32934388 19.49914173 -48.1952145 11.13908289 -40 3 C-27.2690009 -6.50895612 -14.01667256 -7.87074824 0 0 Z M-39 10 C-41.66104601 13.49262289 -42 14.51402805 -42 19 C-42.66 19 -43.32 19 -44 19 C-47.54946227 26.9862901 -46.96523083 36.91300682 -44 45 C-39.48710546 52.58396974 -33.16742418 58.58866666 -25 62 C-21.47885397 62.39696494 -21.47885397 62.39696494 -17.875 62.25 C-16.67617187 62.23453125 -15.47734375 62.2190625 -14.2421875 62.203125 C-11.64583067 62.04046168 -9.46985985 61.76184732 -7 61 C-7 60.34 -7 59.68 -7 59 C-6.28070313 59.1134375 -5.56140625 59.226875 -4.8203125 59.34375 C-1.427724 58.93024891 -0.31353471 57.70694073 1.84423828 55.1418457 C2.26688965 54.60003662 2.68954102 54.05822754 3.125 53.5 C3.78411377 52.66698364 3.78411377 52.66698364 4.45654297 51.81713867 C10.05767319 44.54032113 11.21911839 39.45457755 11.375 30.4375 C11.38934082 29.71667236 11.40368164 28.99584473 11.41845703 28.25317383 C11.37050004 23.14575429 10.27192295 19.57389778 8 15 C7.34 15 6.68 15 6 15 C5.814375 14.29875 5.62875 13.5975 5.4375 12.875 C2.49381947 6.98763895 -3.0462216 3.50378945 -9 1 C-21.0666713 -0.42784278 -30.04730856 1.84996366 -39 10 Z " fill="#E4ECDC" transform="translate(107,25)"/>
<path d="M0 0 C9.43415497 7.86735185 14.28092957 17.99498649 15.69140625 30.13671875 C16.1325935 41.9349198 12.87073928 52.1408882 5.5859375 61.4296875 C-1.94866768 69.53391919 -11.13014352 74.10906091 -22.125 74.86328125 C-33.11535154 74.913542 -42.65490896 69.93297621 -50.625 62.5 C-59.69489621 52.67796606 -62.09849688 41.11669729 -61.96484375 28.15234375 C-61.11785638 18.14357747 -55.1533601 8.82456407 -47.875 2.125 C-33.09510135 -9.98552532 -15.84642324 -11.36866912 0 0 Z M-50.59375 10.4921875 C-55.4087781 17.77393082 -58.08365708 23.78345766 -58.0625 32.625 C-58.06088867 33.32802246 -58.05927734 34.03104492 -58.05761719 34.75537109 C-57.82911784 44.51587772 -53.87181989 52.36880935 -47.25 59.5 C-46.404375 60.28375 -45.55875 61.0675 -44.6875 61.875 C-43.98625 62.555625 -43.285 63.23625 -42.5625 63.9375 C-34.37739037 69.45355214 -25.78647978 71.10198416 -16.15625 69.4375 C-6.1602425 66.96935 0.94954643 60.46550618 6.3125 51.875 C6.72628906 51.26785156 7.14007813 50.66070312 7.56640625 50.03515625 C12.20100761 41.88019566 11.80394484 29.75707584 9.546875 20.85546875 C8.62248949 18.70223741 7.59994659 16.82852139 6.3125 14.875 C5.735 13.84375 5.1575 12.8125 4.5625 11.75 C-1.95819273 3.41800373 -10.12325478 -1.91981585 -20.703125 -3.60546875 C-32.58148943 -4.18072985 -43.61190012 0.90645099 -50.59375 10.4921875 Z " fill="#0C7391" transform="translate(112.6875,23.125)"/>
<path d="M0 0 C4.29 0 8.58 0 13 0 C13 4.29 13 8.58 13 13 C17.29 13 21.58 13 26 13 C26 17.95 26 22.9 26 28 C22.04 28 18.08 28 14 28 C14.020625 29.959375 14.04125 31.91875 14.0625 33.9375 C14.08377188 35.95832876 14.07244053 37.98035801 14 40 C13 41 13 41 10.3125 41.1328125 C9.219375 41.13023438 8.12625 41.12765625 7 41.125 C5.906875 41.12757812 4.81375 41.13015625 3.6875 41.1328125 C1 41 1 41 0 40 C-0.14355117 35.99779347 -0.04216403 32.00558317 0 28 C-4.29 28 -8.58 28 -13 28 C-13 23.05 -13 18.1 -13 13 C-8.71 13 -4.42 13 0 13 C0 8.71 0 4.42 0 0 Z " fill="#FDFDF6" transform="translate(83,36)"/>
<path d="M0 0 C9.38868818 5.27200737 15.80173253 13.1868464 18.76171875 23.55078125 C20.70594058 35.71937021 19.03040693 46.45168981 11.76171875 56.55078125 C4.97982285 64.03743976 -2.47282577 68.68651959 -12.58984375 69.8125 C-19.35625211 70.12396959 -25.1405966 68.45141596 -31.23828125 65.55078125 C-31.89828125 64.89078125 -32.55828125 64.23078125 -33.23828125 63.55078125 C-30.59828125 63.55078125 -27.95828125 63.55078125 -25.23828125 63.55078125 C-25.23828125 63.88078125 -25.23828125 64.21078125 -25.23828125 64.55078125 C-18.30828125 64.55078125 -11.37828125 64.55078125 -4.23828125 64.55078125 C-4.23828125 63.23078125 -4.23828125 61.91078125 -4.23828125 60.55078125 C-3.34625 60.339375 -2.45421875 60.12796875 -1.53515625 59.91015625 C2.53176092 58.23327571 3.95461207 56.34546016 6.51171875 52.80078125 C7.2696875 51.7746875 8.02765625 50.74859375 8.80859375 49.69140625 C12.47123422 43.80188037 13.08292586 38.80358863 13.01171875 32.05078125 C13.01945312 31.31730469 13.0271875 30.58382812 13.03515625 29.828125 C13.01704758 24.76675109 12.78959276 19.88557673 9.31640625 15.88671875 C8.80335937 15.44585937 8.2903125 15.005 7.76171875 14.55078125 C6.79342968 13.43433866 5.83533194 12.30898944 4.88671875 11.17578125 C2.96685464 8.9103416 1.01043701 6.75123318 -1.11328125 4.67578125 C-1.81453125 3.97453125 -2.51578125 3.27328125 -3.23828125 2.55078125 C-3.23828125 2.22078125 -3.23828125 1.89078125 -3.23828125 1.55078125 C-5.54828125 1.22078125 -7.85828125 0.89078125 -10.23828125 0.55078125 C-10.23828125 -0.10921875 -10.23828125 -0.76921875 -10.23828125 -1.44921875 C-11.71796449 -1.30872357 -13.19702641 -1.16167049 -14.67578125 -1.01171875 C-15.91134766 -0.88990234 -15.91134766 -0.88990234 -17.171875 -0.765625 C-19.2249015 -0.6599106 -19.2249015 -0.6599106 -20.23828125 0.55078125 C-22.57772861 0.2634807 -24.91219555 -0.06858654 -27.23828125 -0.44921875 C-18.78632599 -6.08385559 -8.73162196 -4.05192915 0 0 Z " fill="#CBE3D8" transform="translate(104.23828125,23.44921875)"/>
<path d="M0 0 C9.36883032 5.26085663 15.83486505 13.19064833 18.76171875 23.55078125 C19.2268414 26.64629932 19.33186181 29.67317943 19.32421875 32.80078125 C19.32615234 33.62618408 19.32808594 34.45158691 19.33007812 35.30200195 C19.13547402 42.85839091 16.99702754 48.23563333 12.76171875 54.55078125 C11.76171875 52.55078125 11.76171875 52.55078125 12.28515625 50.4921875 C12.56617188 49.70714844 12.8471875 48.92210937 13.13671875 48.11328125 C13.41257813 47.33082031 13.6884375 46.54835937 13.97265625 45.7421875 C14.23304687 45.01902344 14.4934375 44.29585937 14.76171875 43.55078125 C17.2595513 36.0572836 15.58340424 27.26875564 14.76171875 19.55078125 C14.10171875 19.55078125 13.44171875 19.55078125 12.76171875 19.55078125 C12.76171875 18.56078125 12.76171875 17.57078125 12.76171875 16.55078125 C11.44171875 16.55078125 10.12171875 16.55078125 8.76171875 16.55078125 C7.37729875 14.58579803 6.04968041 12.5802966 4.76171875 10.55078125 C3.1187668 9.18833329 1.45347538 7.8521325 -0.23828125 6.55078125 C-3.23828125 2.93009159 -3.23828125 2.93009159 -3.23828125 1.55078125 C-5.54828125 1.22078125 -7.85828125 0.89078125 -10.23828125 0.55078125 C-10.23828125 -0.10921875 -10.23828125 -0.76921875 -10.23828125 -1.44921875 C-11.71796449 -1.30872357 -13.19702641 -1.16167049 -14.67578125 -1.01171875 C-15.91134766 -0.88990234 -15.91134766 -0.88990234 -17.171875 -0.765625 C-19.2249015 -0.6599106 -19.2249015 -0.6599106 -20.23828125 0.55078125 C-22.57772861 0.2634807 -24.91219555 -0.06858654 -27.23828125 -0.44921875 C-18.78632599 -6.08385559 -8.73162196 -4.05192915 0 0 Z " fill="#C3E4E9" transform="translate(104.23828125,23.44921875)"/>
<path d="M0 0 C4.29 0 8.58 0 13 0 C13 0.33 13 0.66 13 1 C9.04 1 5.08 1 1 1 C1 5.29 1 9.58 1 14 C5.62 14 10.24 14 15 14 C15 17.96 15 21.92 15 26 C18.3 26 21.6 26 25 26 C24.98839844 25.21753906 24.97679688 24.43507813 24.96484375 23.62890625 C24.95582031 22.61699219 24.94679688 21.60507813 24.9375 20.5625 C24.92589844 19.55316406 24.91429688 18.54382813 24.90234375 17.50390625 C25 15 25 15 26 14 C30.00220653 13.85644883 33.99441683 13.95783597 38 14 C38 9.71 38 5.42 38 1 C34.04 1 30.08 1 26 1 C26 0.67 26 0.34 26 0 C30.29 0 34.58 0 39 0 C39 4.95 39 9.9 39 15 C35.04 15 31.08 15 27 15 C27.020625 16.959375 27.04125 18.91875 27.0625 20.9375 C27.08377188 22.95832876 27.07244053 24.98035801 27 27 C26 28 26 28 23.3125 28.1328125 C22.219375 28.13023438 21.12625 28.12765625 20 28.125 C18.906875 28.12757812 17.81375 28.13015625 16.6875 28.1328125 C14 28 14 28 13 27 C12.85644883 22.99779347 12.95783597 19.00558317 13 15 C8.71 15 4.42 15 0 15 C0 10.05 0 5.1 0 0 Z " fill="#FCEBA2" transform="translate(70,49)"/>
<path d="M0 0 C0.33 0 0.66 0 1 0 C1 3.96 1 7.92 1 12 C5.29 12 9.58 12 14 12 C14 17.61 14 23.22 14 29 C10.7 29 7.4 29 4 29 C4 33.62 4 38.24 4 43 C-0.01987409 44.00496852 -2.6646973 43.93017724 -6.75 43.5625 C-7.92046875 43.46066406 -9.0909375 43.35882813 -10.296875 43.25390625 C-11.18890625 43.17011719 -12.0809375 43.08632812 -13 43 C-12.67 42.01 -12.34 41.02 -12 40 C-8.04 40 -4.08 40 0 40 C0.33 36.04 0.66 32.08 1 28 C4.96 28 8.92 28 13 28 C13 23.05 13 18.1 13 13 C8.71 13 4.42 13 0 13 C0 8.71 0 4.42 0 0 Z " fill="#F6C22E" transform="translate(96,36)"/>
<path d="M0 0 C1.23556641 0.01740234 1.23556641 0.01740234 2.49609375 0.03515625 C3.32238281 0.04417969 4.14867188 0.05320312 5 0.0625 C5.63808594 0.07410156 6.27617188 0.08570312 6.93359375 0.09765625 C6.93359375 0.75765625 6.93359375 1.41765625 6.93359375 2.09765625 C8.02671875 1.99453125 9.11984375 1.89140625 10.24609375 1.78515625 C11.46296875 1.88828125 12.67984375 1.99140625 13.93359375 2.09765625 C15.87109375 4.59765625 15.87109375 4.59765625 16.93359375 7.09765625 C14.95359375 6.43765625 12.97359375 5.77765625 10.93359375 5.09765625 C10.93359375 4.43765625 10.93359375 3.77765625 10.93359375 3.09765625 C8.09892033 3.18548267 5.26705959 3.29246527 2.43359375 3.41015625 C1.24636719 3.44399414 1.24636719 3.44399414 0.03515625 3.47851562 C-5.56499056 3.73098126 -9.9499856 4.76415359 -15.06640625 7.09765625 C-15.39640625 7.75765625 -15.72640625 8.41765625 -16.06640625 9.09765625 C-18.12890625 10.22265625 -18.12890625 10.22265625 -20.06640625 11.09765625 C-20.06640625 12.08765625 -20.06640625 13.07765625 -20.06640625 14.09765625 C-20.72640625 14.09765625 -21.38640625 14.09765625 -22.06640625 14.09765625 C-22.39640625 14.75765625 -22.72640625 15.41765625 -23.06640625 16.09765625 C-24.38640625 15.76765625 -25.70640625 15.43765625 -27.06640625 15.09765625 C-22.98236093 9.23960374 -18.9655034 3.6674117 -12.06640625 1.09765625 C-9.59785244 0.83637172 -7.32482362 0.83287003 -4.8515625 1.01953125 C-3.96791016 1.05820312 -3.96791016 1.05820312 -3.06640625 1.09765625 C-2.06640625 0.09765625 -2.06640625 0.09765625 0 0 Z " fill="#DEEBE5" transform="translate(87.06640625,21.90234375)"/>
<path d="M0 0 C1.24040039 0.01353516 1.24040039 0.01353516 2.50585938 0.02734375 C4.52486708 0.05068488 6.54372356 0.08654712 8.5625 0.125 C8.5625 0.455 8.5625 0.785 8.5625 1.125 C7.6446875 1.16238281 6.726875 1.19976563 5.78125 1.23828125 C-4.42150864 1.78485761 -12.62329346 3.09843231 -20.4375 10.125 C-22.56755793 13.03607918 -23.78133653 15.58171725 -24.4375 19.125 C-25.0975 19.125 -25.7575 19.125 -26.4375 19.125 C-28.32945063 27.63877783 -27.75432379 36.56564537 -26.4375 45.125 C-27.0975 44.795 -27.7575 44.465 -28.4375 44.125 C-28.4375 42.475 -28.4375 40.825 -28.4375 39.125 C-29.0975 39.125 -29.7575 39.125 -30.4375 39.125 C-30.97094824 29.93783582 -29.88410395 22.66457675 -26.4375 14.125 C-25.7775 14.125 -25.1175 14.125 -24.4375 14.125 C-24.4375 13.135 -24.4375 12.145 -24.4375 11.125 C-23.7775 11.125 -23.1175 11.125 -22.4375 11.125 C-22.7675 10.135 -23.0975 9.145 -23.4375 8.125 C-22.7775 7.465 -22.1175 6.805 -21.4375 6.125 C-20.4475 6.125 -19.4575 6.125 -18.4375 6.125 C-18.251875 5.50625 -18.06625 4.8875 -17.875 4.25 C-16.10379761 1.63170082 -14.52384379 1.28356409 -11.53881836 0.50439453 C-7.70227486 -0.18829614 -3.88518828 -0.08139798 0 0 Z " fill="#F0EAB3" transform="translate(89.4375,24.875)"/>
<path d="M0 0 C3 1 3 1 4.3515625 3.1796875 C4.98191406 4.51386719 4.98191406 4.51386719 5.625 5.875 C6.05039063 6.75929688 6.47578125 7.64359375 6.9140625 8.5546875 C10.30260066 16.18499285 10.72064248 27.01244742 8.40673828 35.06445312 C6.9843244 38.60327747 5.12044097 41.83827106 3 45 C2 43 2 43 2.5234375 40.94140625 C2.80445312 40.15636719 3.08546875 39.37132812 3.375 38.5625 C3.65085937 37.78003906 3.92671875 36.99757812 4.2109375 36.19140625 C4.47132812 35.46824219 4.73171875 34.74507812 5 34 C7.49783255 26.50650235 5.82168549 17.71797439 5 10 C4.34 10 3.68 10 3 10 C3 9.01 3 8.02 3 7 C2.34 7 1.68 7 1 7 C0.67 4.69 0.34 2.38 0 0 Z " fill="#A8DEF3" transform="translate(114,33)"/>
<path d="M0 0 C2.64 0 5.28 0 8 0 C8 0.33 8 0.66 8 1 C9.02939697 0.98428955 9.02939697 0.98428955 10.07958984 0.96826172 C13.17802289 0.92678126 16.27639761 0.90069931 19.375 0.875 C20.45523438 0.85824219 21.53546875 0.84148437 22.6484375 0.82421875 C23.6796875 0.81777344 24.7109375 0.81132813 25.7734375 0.8046875 C27.20308838 0.78897705 27.20308838 0.78897705 28.66162109 0.77294922 C31 1 31 1 33 3 C22.47824221 6.76096874 14.7445666 7.0952173 4.25 3.0703125 C2 2 2 2 0 0 Z " fill="#D1E8E0" transform="translate(71,87)"/>
<path d="M0 0 C2.75 0.25 2.75 0.25 5 1 C4.319375 1.61875 3.63875 2.2375 2.9375 2.875 C-3.09423012 8.94109895 -7.43837405 15.8630705 -10 24 C-10.3449145 22.66961551 -10.67516582 21.33542939 -11 20 C-11.26167969 19.20722656 -11.52335937 18.41445313 -11.79296875 17.59765625 C-12.09187073 13.84728239 -10.58116652 12.36599413 -8.3125 9.4375 C-7.60738281 8.50808594 -6.90226562 7.57867187 -6.17578125 6.62109375 C-4.20730673 4.24973576 -2.33208788 2.01603491 0 0 Z " fill="#10728A" transform="translate(66,24)"/>
<path d="M0 0 C1.60004883 0.00966797 1.60004883 0.00966797 3.23242188 0.01953125 C4.33521484 0.03628906 5.43800781 0.05304687 6.57421875 0.0703125 C7.69634766 0.07933594 8.81847656 0.08835937 9.97460938 0.09765625 C12.73719784 0.12116764 15.49934807 0.15403095 18.26171875 0.1953125 C18.59171875 1.5153125 18.92171875 2.8353125 19.26171875 4.1953125 C22.54868108 4.99484388 23.97195067 5.29190186 27.26171875 4.1953125 C27.26171875 5.1853125 27.26171875 6.1753125 27.26171875 7.1953125 C27.92171875 7.5253125 28.58171875 7.8553125 29.26171875 8.1953125 C29.26171875 8.8553125 29.26171875 9.5153125 29.26171875 10.1953125 C25.56525331 9.48274085 22.53212912 7.91339269 19.19921875 6.1953125 C11.1470105 2.05474559 3.97005548 0.61655754 -4.97265625 3.08984375 C-7.59992962 4.05295044 -10.17825687 5.06648285 -12.73828125 6.1953125 C-12.73828125 5.5353125 -12.73828125 4.8753125 -12.73828125 4.1953125 C-12.07828125 4.1953125 -11.41828125 4.1953125 -10.73828125 4.1953125 C-10.73828125 3.5353125 -10.73828125 2.8753125 -10.73828125 2.1953125 C-6.99709569 0.46953018 -4.10812106 -0.04393712 0 0 Z " fill="#166F88" transform="translate(84.73828125,18.8046875)"/>
<path d="M0 0 C1.73236948 2.59855422 3.03530268 5.06760879 4.375 7.875 C6.90587454 12.98885532 9.85989794 17.06690305 14 21 C12.02 21.99 12.02 21.99 10 23 C8.67569475 21.61536194 7.36597197 20.2167677 6.0625 18.8125 C5.33160156 18.03519531 4.60070313 17.25789063 3.84765625 16.45703125 C1.84854338 13.79859151 1.36724761 12.26442323 1 9 C0.89558594 8.18917969 0.79117188 7.37835938 0.68359375 6.54296875 C0.60238281 5.76566406 0.52117188 4.98835938 0.4375 4.1875 C0.35371094 3.39730469 0.26992188 2.60710937 0.18359375 1.79296875 C0.12300781 1.20128906 0.06242187 0.60960938 0 0 Z " fill="#1B778F" transform="translate(55,65)"/>
<path d="M0 0 C0.58523437 0.433125 1.17046875 0.86625 1.7734375 1.3125 C10.6942771 7.09899055 18.77407898 6.60748046 29 6 C29 6.66 29 7.32 29 8 C24.82412922 9.39195693 20.87401815 9.22400286 16.5 9.25 C15.63246094 9.270625 14.76492187 9.29125 13.87109375 9.3125 C13.03707031 9.31765625 12.20304687 9.3228125 11.34375 9.328125 C10.20196289 9.34214355 10.20196289 9.34214355 9.03710938 9.35644531 C6.45921147 8.90537497 5.61881865 8.01189035 4 6 C3.67 5.34 3.34 4.68 3 4 C2.01 3.67 1.02 3.34 0 3 C0 2.01 0 1.02 0 0 Z " fill="#E4EBC3" transform="translate(71,80)"/>
<path d="M0 0 C0.66 0.66 1.32 1.32 2 2 C1.55218966 8.04543958 1.55218966 8.04543958 -0.0078125 10.7421875 C-1.43446943 13.98867453 -1.46654234 17.25732912 -1.625 20.75 C-1.66367187 21.44738281 -1.70234375 22.14476563 -1.7421875 22.86328125 C-1.83598624 24.57510818 -1.91906174 26.28751682 -2 28 C-4.46616396 25.53383604 -4.30690399 24.01818543 -4.37890625 20.640625 C-4.37761719 19.93421875 -4.37632813 19.2278125 -4.375 18.5 C-4.37628906 17.78328125 -4.37757812 17.0665625 -4.37890625 16.328125 C-4.25929962 10.28255348 -2.88075259 5.3499691 0 0 Z " fill="#CDE5E6" transform="translate(59,38)"/>
<path d="M0 0 C0.99 0.33 1.98 0.66 3 1 C2.01 1.495 2.01 1.495 1 2 C0.34676114 4.28239894 0.34676114 4.28239894 -0.0625 6.9375 C-0.91390728 11.82781457 -0.91390728 11.82781457 -2 14 C-2.22950319 16.204364 -2.41075933 18.41392173 -2.5625 20.625 C-2.64628906 21.81351563 -2.73007812 23.00203125 -2.81640625 24.2265625 C-2.87699219 25.14179687 -2.93757813 26.05703125 -3 27 C-2.34 27 -1.68 27 -1 27 C-1.33 27.99 -1.66 28.98 -2 30 C-2.99 29.67 -3.98 29.34 -5 29 C-5.5246272 13.90239494 -5.5246272 13.90239494 -2 7 C-1.74730583 3.70714899 -1.74730583 3.70714899 -2 1 C-1.34 0.67 -0.68 0.34 0 0 Z " fill="#F8F1D9" transform="translate(62,37)"/>
<path d="M0 0 C-0.2109375 1.859375 -0.2109375 1.859375 -1 4 C-6.2902843 7.28362474 -11.86088631 8.53383597 -18 8 C-17 6 -17 6 -15.15234375 5.3671875 C-14.42144531 5.20476562 -13.69054687 5.04234375 -12.9375 4.875 C-12.20402344 4.70742187 -11.47054687 4.53984375 -10.71484375 4.3671875 C-10.14894531 4.24601562 -9.58304688 4.12484375 -9 4 C-9 3.34 -9 2.68 -9 2 C-5.86501708 0.14223235 -3.62528568 -0.20140476 0 0 Z " fill="#03728A" transform="translate(109,89)"/>
<path d="M0 0 C8.24269447 0.94890125 14.80861846 2.83154433 22 7 C21.01 7.99 20.02 8.98 19 10 C19 9.34 19 8.68 19 8 C17.68 8 16.36 8 15 8 C14.67 6.68 14.34 5.36 14 4 C9.05 3.67 4.1 3.34 -1 3 C-0.67 2.01 -0.34 1.02 0 0 Z " fill="#027291" transform="translate(89,15)"/>
<path d="M0 0 C0.33 1.32 0.66 2.64 1 4 C0.34 4 -0.32 4 -1 4 C-2.89195063 12.51377783 -2.31682379 21.44064537 -1 30 C-1.66 29.67 -2.32 29.34 -3 29 C-3 27.35 -3 25.7 -3 24 C-3.66 24 -4.32 24 -5 24 C-5.33608711 15.94635715 -5.0517291 9.50216736 -2 2 C-1.34 2 -0.68 2 0 2 C0 1.34 0 0.68 0 0 Z " fill="#FCE58E" transform="translate(64,40)"/>
<path d="M0 0 C0.33 0.66 0.66 1.32 1 2 C0.10796875 1.98839844 -0.7840625 1.97679688 -1.703125 1.96484375 C-2.87359375 1.95582031 -4.0440625 1.94679688 -5.25 1.9375 C-6.41015625 1.92589844 -7.5703125 1.91429688 -8.765625 1.90234375 C-11.40977128 1.98217908 -13.49826091 2.21356222 -16 3 C-16 4.65 -16 6.3 -16 8 C-16.66 8 -17.32 8 -18 8 C-18.66 7.34 -19.32 6.68 -20 6 C-22.58354218 5.83312552 -22.58354218 5.83312552 -25 6 C-18.53643601 -1.75627679 -9.24184691 -0.23072572 0 0 Z " fill="#F5C235" transform="translate(98,26)"/>
<path d="M0 0 C0.33 0 0.66 0 1 0 C1.07347656 1.06541016 1.07347656 1.06541016 1.1484375 2.15234375 C1.22320312 3.07144531 1.29796875 3.99054687 1.375 4.9375 C1.44460937 5.85402344 1.51421875 6.77054688 1.5859375 7.71484375 C1.72257812 8.46894531 1.85921875 9.22304688 2 10 C2.66 10.33 3.32 10.66 4 11 C3.53328373 16.41390868 2.75702189 20.20517932 0 25 C-0.33 25 -0.66 25 -1 25 C-1.07134955 21.50387211 -1.03246503 18.21102271 -0.5 14.75 C0.15748436 9.81886731 0.08083048 4.96658387 0 0 Z " fill="#137B9A" transform="translate(123,52)"/>
<path d="M0 0 C0.66 0 1.32 0 2 0 C2 4.29 2 8.58 2 13 C-2.29 13 -6.58 13 -11 13 C-11 12.34 -11 11.68 -11 11 C-7.37 11 -3.74 11 0 11 C0 7.37 0 3.74 0 0 Z " fill="#F2BF2B" transform="translate(81,36)"/>
<path d="M0 0 C3.39944813 1.13314938 3.59569101 1.46546563 5.125 4.5 C7.14197326 8.80546214 8.28289717 13.21903783 8 18 C7.34 18.99 6.68 19.98 6 21 C5.67 17.37 5.34 13.74 5 10 C4.34 10 3.68 10 3 10 C3 9.01 3 8.02 3 7 C2.34 7 1.68 7 1 7 C0.67 4.69 0.34 2.38 0 0 Z " fill="#BAE1F4" transform="translate(114,33)"/>
<path d="M0 0 C0.33 0 0.66 0 1 0 C1.56510589 18.41826605 1.56510589 18.41826605 -2 25 C-2.66 25.33 -3.32 25.66 -4 26 C-4.125 19.25 -4.125 19.25 -3 17 C-2.34 17 -1.68 17 -1 17 C-0.67 11.39 -0.34 5.78 0 0 Z " fill="#F0BF37" transform="translate(117,47)"/>
<path d="M0 0 C2.31 0.33 4.62 0.66 7 1 C2.45037334 5.54962666 -4.82229524 5.22800183 -10.8984375 5.265625 C-13 5 -13 5 -15 3 C-10.38 3 -5.76 3 -1 3 C-0.67 2.01 -0.34 1.02 0 0 Z " fill="#B2D9E4" transform="translate(97,88)"/>
<path d="M0 0 C0.66 1.32 1.32 2.64 2 4 C0.375 6 0.375 6 -2 8 C-5.25 8.25 -5.25 8.25 -8 8 C-7.67 6.35 -7.34 4.7 -7 3 C-5.5459375 2.5359375 -5.5459375 2.5359375 -4.0625 2.0625 C-1.15934208 1.30476658 -1.15934208 1.30476658 0 0 Z " fill="#D5E5CC" transform="translate(107,81)"/>
<path d="M0 0 C1.65 0 3.3 0 5 0 C3.8125 2 3.8125 2 2 4 C-0.6875 4.25 -0.6875 4.25 -3 4 C-3 4.66 -3 5.32 -3 6 C-6.75399798 7.2039337 -10.33217412 7.09877617 -14.25 7.0625 C-15.51328125 7.05347656 -16.7765625 7.04445313 -18.078125 7.03515625 C-19.04234375 7.02355469 -20.0065625 7.01195313 -21 7 C-21 6.67 -21 6.34 -21 6 C-12.585 5.505 -12.585 5.505 -4 5 C-4 4.34 -4 3.68 -4 3 C-2.68 3 -1.36 3 0 3 C0 2.01 0 1.02 0 0 Z " fill="#E7C64F" transform="translate(103,80)"/>
<path d="M0 0 C0.33 0 0.66 0 1 0 C1.74464946 6.87368733 2.18225237 13.16920852 1 20 C1.66 20.33 2.32 20.66 3 21 C2.34 21.66 1.68 22.32 1 23 C-1.25762843 15.6627076 -2.47339212 7.42017635 0 0 Z " fill="#F5C130" transform="translate(62,47)"/>
<path d="M0 0 C2.31 0 4.62 0 7 0 C7 0.66 7 1.32 7 2 C8.093125 1.896875 9.18625 1.79375 10.3125 1.6875 C11.529375 1.790625 12.74625 1.89375 14 2 C15.9375 4.5 15.9375 4.5 17 7 C15.02 6.34 13.04 5.68 11 5 C11 4.34 11 3.68 11 3 C7.7 3 4.4 3 1 3 C0.67 2.01 0.34 1.02 0 0 Z " fill="#DCE9D8" transform="translate(87,22)"/>
<path d="M0 0 C4 5 4 5 8 10 C6.02 10 4.04 10 2 10 C0.68373308 6.38026598 0 3.90432869 0 0 Z " fill="#F8E8BA" transform="translate(63,70)"/>
<path d="M0 0 C1.63001953 0.01353516 1.63001953 0.01353516 3.29296875 0.02734375 C4.12441406 0.03894531 4.95585938 0.05054687 5.8125 0.0625 C5.8125 0.3925 5.8125 0.7225 5.8125 1.0625 C5.10222656 1.19527344 4.39195313 1.32804687 3.66015625 1.46484375 C2.74105469 1.64144531 1.82195312 1.81804688 0.875 2 C-0.04152344 2.17402344 -0.95804688 2.34804688 -1.90234375 2.52734375 C-4.14039844 2.83964988 -4.14039844 2.83964988 -5.1875 4.0625 C-7.52694736 3.77519945 -9.8614143 3.44313221 -12.1875 3.0625 C-7.9047612 0.2073408 -5.04291942 -0.05422494 0 0 Z " fill="#B7D2DA" transform="translate(89.1875,19.9375)"/>
<path d="M0 0 C4.3177458 0.50797009 8.03302114 1.19682779 12 3 C12 3.99 12 4.98 12 6 C12.66 6.33 13.32 6.66 14 7 C10.61108678 6.31113213 7.81988387 5.01283514 4.75 3.4375 C3.85796875 2.98246094 2.9659375 2.52742188 2.046875 2.05859375 C1.37140625 1.70925781 0.6959375 1.35992187 0 1 C0 0.67 0 0.34 0 0 Z " fill="#0A749A" transform="translate(67,89)"/>
<path d="M0 0 C2 0 2 0 3.5 1.4375 C3.995 1.953125 4.49 2.46875 5 3 C5.66 3.33 6.32 3.66 7 4 C7.309375 4.66 7.61875 5.32 7.9375 6 C8.8891846 8.34608221 8.8891846 8.34608221 12 9 C12 9.66 12 10.32 12 11 C12.99 11 13.98 11 15 11 C14.67 11.66 14.34 12.32 14 13 C7.97743006 10.05016983 4.03600968 6.36090039 0 1 C0 0.67 0 0.34 0 0 Z " fill="#F1BE2E" transform="translate(65,72)"/>
<path d="M0 0 C1.87787986 2.81681979 2.65143573 4.79458015 3.5625 8 C4.33440823 10.68768048 5.11548701 13.34646102 6 16 C4.0625 15.3125 4.0625 15.3125 2 14 C1.3125 11.9375 1.3125 11.9375 1 9 C0.90976562 8.23171875 0.81953125 7.4634375 0.7265625 6.671875 C0.46796142 4.44930356 0.22792389 2.22589501 0 0 Z " fill="#116F8A" transform="translate(55,65)"/>
<path d="M0 0 C0.66 0.66 1.32 1.32 2 2 C1.73314868 6.66989808 -0.62840087 10.09833692 -3 14 C-4 12 -4 12 -3.4765625 9.94140625 C-3.19554688 9.15636719 -2.91453125 8.37132813 -2.625 7.5625 C-2.34914063 6.78003906 -2.07328125 5.99757813 -1.7890625 5.19140625 C-1.52867188 4.46824219 -1.26828125 3.74507813 -1 3 C-0.67 2.01 -0.34 1.02 0 0 Z " fill="#B4E3EB" transform="translate(120,64)"/>
<path d="M0 0 C5.06998019 0.65419099 9.41990777 2.8546409 14 5 C10.38442187 6.06517032 9.31700821 5.75606317 6 4 C4.00889599 3.61709538 2.00899487 3.27395385 0 3 C0 2.01 0 1.02 0 0 Z " fill="#146D83" transform="translate(66,86)"/>
<path d="M0 0 C3.63 1.98 7.26 3.96 11 6 C11 6.33 11 6.66 11 7 C8.69 7 6.38 7 4 7 C3.67 6.01 3.34 5.02 3 4 C2.01 3.67 1.02 3.34 0 3 C0 2.01 0 1.02 0 0 Z " fill="#F5E2AE" transform="translate(71,80)"/>
<path d="M0 0 C0.33 0 0.66 0 1 0 C1 2.31 1 4.62 1 7 C-1.31 7.33 -3.62 7.66 -6 8 C-5.02471263 6.66382648 -4.04466681 5.3311249 -3.0625 4 C-2.24458984 2.88625 -2.24458984 2.88625 -1.41015625 1.75 C-0.94480469 1.1725 -0.47945313 0.595 0 0 Z " fill="#DFDCAD" transform="translate(114,72)"/>
<path d="M0 0 C1.65 0 3.3 0 5 0 C5 0.99 5 1.98 5 3 C6.32 3.33 7.64 3.66 9 4 C9 4.99 9 5.98 9 7 C8.34 7 7.68 7 7 7 C6.67 6.34 6.34 5.68 6 5 C3.98330173 3.86649466 3.98330173 3.86649466 2 3 C2 2.34 2 1.68 2 1 C1.34 0.67 0.68 0.34 0 0 Z " fill="#ECF1D8" transform="translate(66,80)"/>
<path d="M0 0 C0.99 0.33 1.98 0.66 3 1 C2.21718695 2.33855056 1.42348123 3.67073644 0.625 5 C0.18414062 5.7425 -0.25671875 6.485 -0.7109375 7.25 C-1.34902344 8.11625 -1.34902344 8.11625 -2 9 C-2.66 9 -3.32 9 -4 9 C-4.33 9.66 -4.66 10.32 -5 11 C-5 10.01 -5 9.02 -5 8 C-4.34 8 -3.68 8 -3 8 C-3 7.01 -3 6.02 -3 5 C-2.34 5 -1.68 5 -1 5 C-1.33 4.01 -1.66 3.02 -2 2 C-1.34 1.34 -0.68 0.68 0 0 Z " fill="#F8EAC2" transform="translate(68,31)"/>
<path d="M0 0 C5.875 1.875 5.875 1.875 7 3 C7.04063832 4.66617115 7.042721 6.33388095 7 8 C6.34 8 5.68 8 5 8 C3.1402289 5.40759181 1.42794577 2.85589153 0 0 Z " fill="#DEE2C9" transform="translate(108,32)"/>
<path d="M0 0 C0.66 0.66 1.32 1.32 2 2 C1.625 5.125 1.625 5.125 1 8 C-0.32 8.33 -1.64 8.66 -3 9 C-2.01 6.03 -1.02 3.06 0 0 Z " fill="#C3DED7" transform="translate(59,38)"/>
<path d="M0 0 C2.6875 0.3125 2.6875 0.3125 5 1 C5 1.66 5 2.32 5 3 C-0.75 4.125 -0.75 4.125 -3 3 C-1.8125 1.4375 -1.8125 1.4375 0 0 Z " fill="#D5E7EA" transform="translate(102,85)"/>
<path d="M0 0 C0.99 0 1.98 0 3 0 C3.33 0.66 3.66 1.32 4 2 C6.01669827 3.13350534 6.01669827 3.13350534 8 4 C8 4.66 8 5.32 8 6 C4.65750371 5.40312566 2.53563658 4.26396123 0 2 C0 1.34 0 0.68 0 0 Z " fill="#D2EBE8" transform="translate(65,81)"/>
<path d="M0 0 C0.66 0.33 1.32 0.66 2 1 C1.34 2.65 0.68 4.3 0 6 C-1.65 5.67 -3.3 5.34 -5 5 C-3.35 3.35 -1.7 1.7 0 0 Z " fill="#CCE3E4" transform="translate(71,25)"/>
<path d="M0 0 C3.53790403 3.69172595 3.59115883 7.09390595 4 12 C3.34 11.67 2.68 11.34 2 11 C2 9.35 2 7.7 2 6 C1.34 6 0.68 6 0 6 C0 4.02 0 2.04 0 0 Z " fill="#FEECAC" transform="translate(59,58)"/>
<path d="M0 0 C3.3 0 6.6 0 10 0 C10.33 0.66 10.66 1.32 11 2 C9.35 2.33 7.7 2.66 6 3 C6 2.34 6 1.68 6 1 C4.02 1 2.04 1 0 1 C0 0.67 0 0.34 0 0 Z " fill="#CFECF4" transform="translate(88,21)"/>
<path d="M0 0 C5.61 0 11.22 0 17 0 C17 0.33 17 0.66 17 1 C11.39 1 5.78 1 0 1 C0 0.67 0 0.34 0 0 Z " fill="#5DB4D0" transform="translate(19,8)"/>
<path d="M0 0 C1.32 0.66 2.64 1.32 4 2 C4 2.66 4 3.32 4 4 C1.525 3.01 1.525 3.01 -1 2 C-0.67 1.34 -0.34 0.68 0 0 Z " fill="#4ABBE2" transform="translate(52,15)"/>
<path d="M0 0 C0.99 0.33 1.98 0.66 3 1 C2.34 1 1.68 1 1 1 C1 2.98 1 4.96 1 7 C0.67 7 0.34 7 0 7 C0 4.69 0 2.38 0 0 Z " fill="#33A4CE" transform="translate(78,97)"/>
<path d="M0 0 C0.33 0 0.66 0 1 0 C1 2.64 1 5.28 1 8 C0.67 8 0.34 8 0 8 C0 5.36 0 2.72 0 0 Z " fill="#5AB5D8" transform="translate(16,93)"/>
<path d="M0 0 C0.33 0 0.66 0 1 0 C1 2.64 1 5.28 1 8 C0.67 8 0.34 8 0 8 C0 5.36 0 2.72 0 0 Z " fill="#61B3D4" transform="translate(52,86)"/>
<path d="M0 0 C2.64 0 5.28 0 8 0 C8 0.33 8 0.66 8 1 C5.36 1 2.72 1 0 1 C0 0.67 0 0.34 0 0 Z " fill="#4BBCDF" transform="translate(65,7)"/>
<path d="M0 0 C2.31 0 4.62 0 7 0 C7 0.33 7 0.66 7 1 C4.69 1 2.38 1 0 1 C0 0.67 0 0.34 0 0 Z " fill="#056F91" transform="translate(91,98)"/>
<path d="M0 0 C0.33 0 0.66 0 1 0 C1 2.31 1 4.62 1 7 C0.67 7 0.34 7 0 7 C0 4.69 0 2.38 0 0 Z " fill="#4ABAE2" transform="translate(42,89)"/>
<path d="M0 0 C2.475 0.495 2.475 0.495 5 1 C4.67 1.66 4.34 2.32 4 3 C2.68 2.01 1.36 1.02 0 0 Z " fill="#4CBAE3" transform="translate(46,79)"/>
<path d="M0 0 C0.33 0 0.66 0 1 0 C1 1.98 1 3.96 1 6 C0.67 6 0.34 6 0 6 C0 4.02 0 2.04 0 0 Z " fill="#55B8D9" transform="translate(41,96)"/>
<path d="M0 0 C1.98 0 3.96 0 6 0 C6 0.33 6 0.66 6 1 C4.02 1 2.04 1 0 1 C0 0.67 0 0.34 0 0 Z " fill="#037190" transform="translate(81,98)"/>
<path d="M0 0 C0.33 0 0.66 0 1 0 C1 1.98 1 3.96 1 6 C0.67 6 0.34 6 0 6 C0 4.02 0 2.04 0 0 Z " fill="#4ABAE2" transform="translate(53,94)"/>
<path d="M0 0 C0.33 0 0.66 0 1 0 C1 1.98 1 3.96 1 6 C0.67 6 0.34 6 0 6 C0 4.02 0 2.04 0 0 Z " fill="#4EB8E0" transform="translate(15,87)"/>
<path d="M0 0 C1.98 0 3.96 0 6 0 C6 0.33 6 0.66 6 1 C4.02 1 2.04 1 0 1 C0 0.67 0 0.34 0 0 Z " fill="#087288" transform="translate(92,14)"/>
<path d="M0 0 C0.33 0 0.66 0 1 0 C1 1.65 1 3.3 1 5 C0.67 5 0.34 5 0 5 C0 3.35 0 1.7 0 0 Z " fill="#4DB9E3" transform="translate(17,101)"/>
<path d="M0 0 C0.33 0 0.66 0 1 0 C1 1.65 1 3.3 1 5 C0.67 5 0.34 5 0 5 C0 3.35 0 1.7 0 0 Z " fill="#55B6D8" transform="translate(43,84)"/>
<path d="M0 0 C1.65 0 3.3 0 5 0 C5 0.33 5 0.66 5 1 C3.35 1 1.7 1 0 1 C0 0.67 0 0.34 0 0 Z " fill="#097194" transform="translate(87,13)"/>
<path d="M0 0 C4 1 4 1 4 1 Z " fill="#52B7E6" transform="translate(64,120)"/>
<path d="M0 0 C0.99 0.495 0.99 0.495 2 1 C1.67 1.66 1.34 2.32 1 3 C0.67 2.01 0.34 1.02 0 0 Z " fill="#4BBADE" transform="translate(59,115)"/>
<path d="M0 0 C1 4 1 4 1 4 Z " fill="#49BBE0" transform="translate(55,104)"/>
<path d="M0 0 C1 4 1 4 1 4 Z " fill="#57B4DB" transform="translate(54,100)"/>
<path d="M0 0 C1 4 1 4 1 4 Z " fill="#46BEE1" transform="translate(40,102)"/>
<path d="M0 0 C0.66 0.33 1.32 0.66 2 1 C1.01 1 0.02 1 -1 1 C-0.67 0.67 -0.34 0.34 0 0 Z " fill="#017197" transform="translate(113,89)"/>
<path d="M0 0 C1 4 1 4 1 4 Z " fill="#58B3DF" transform="translate(14,83)"/>
<path d="M0 0 C1 4 1 4 1 4 Z " fill="#4DBBDE" transform="translate(51,82)"/>
<path d="M0 0 C1 4 1 4 1 4 Z " fill="#50B7E2" transform="translate(13,79)"/>
<path d="M0 0 C0.99 0.495 0.99 0.495 2 1 C1.67 1.66 1.34 2.32 1 3 C0.67 2.01 0.34 1.02 0 0 Z " fill="#04739D" transform="translate(119,28)"/>
<path d="M0 0 C0.99 0.33 1.98 0.66 3 1 C2.01 1 1.02 1 0 1 C0 0.67 0 0.34 0 0 Z " fill="#50B6DD" transform="translate(83,12)"/>
<path d="M0 0 C4 1 4 1 4 1 Z " fill="#4CBADF" transform="translate(56,9)"/>
<path d="M0 0 C4 1 4 1 4 1 Z " fill="#55B7DC" transform="translate(73,8)"/>
<path d="M0 0 C4 1 4 1 4 1 Z " fill="#5FB2D1" transform="translate(60,8)"/>
<path d="M0 0 C3 1 3 1 3 1 Z " fill="#4FBBDB" transform="translate(28,120)"/>
<path d="" fill="#4ABCE1" transform="translate(0,0)"/>
<path d="" fill="#4FB8DC" transform="translate(0,0)"/>
<path d="" fill="#52B9DC" transform="translate(0,0)"/>
<path d="" fill="#4DBBE0" transform="translate(0,0)"/>
<path d="" fill="#53B7D6" transform="translate(0,0)"/>
<path d="M0 0 C3 1 3 1 3 1 Z " fill="#176A80" transform="translate(88,99)"/>
<path d="M0 0 C3 1 3 1 3 1 Z " fill="#017290" transform="translate(98,97)"/>
<path d="M0 0 C3 1 3 1 3 1 Z " fill="#007699" transform="translate(101,96)"/>
<path d="" fill="#027593" transform="translate(0,0)"/>
<path d="" fill="#007E8F" transform="translate(0,0)"/>
<path d="" fill="#4ABCE0" transform="translate(0,0)"/>
<path d="" fill="#4ABCE3" transform="translate(0,0)"/>
<path d="" fill="#10709E" transform="translate(0,0)"/>
<path d="" fill="#0B6E99" transform="translate(0,0)"/>
<path d="M0 0 C3 1 3 1 3 1 Z " fill="#086E87" transform="translate(101,16)"/>
<path d="M0 0 C3 1 3 1 3 1 Z " fill="#02758B" transform="translate(98,15)"/>
<path d="M0 0 C3 1 3 1 3 1 Z " fill="#51B7DD" transform="translate(39,10)"/>
<path d="M0 0 C3 1 3 1 3 1 Z " fill="#49BBE2" transform="translate(36,9)"/>
<path d="M0 0 C2 1 2 1 2 1 Z " fill="#4DBCDB" transform="translate(31,119)"/>
<path d="M0 0 C2 1 2 1 2 1 Z " fill="#50B9DE" transform="translate(26,119)"/>
<path d="M0 0 C2 1 2 1 2 1 Z " fill="#42BFDE" transform="translate(61,118)"/>
<path d="" fill="#4FBAE1" transform="translate(0,0)"/>
<path d="" fill="#49BDDF" transform="translate(0,0)"/>
<path d="" fill="#48BBDE" transform="translate(0,0)"/>
<path d="" fill="#4CBCDC" transform="translate(0,0)"/>
<path d="" fill="#49BAEE" transform="translate(0,0)"/>
<path d="" fill="#4EBCD8" transform="translate(0,0)"/>
<path d="" fill="#46BCE3" transform="translate(0,0)"/>
<path d="" fill="#4ABDDB" transform="translate(0,0)"/>
<path d="" fill="#4ABDDC" transform="translate(0,0)"/>
<path d="" fill="#46BEE2" transform="translate(0,0)"/>
<path d="" fill="#4CBBDF" transform="translate(0,0)"/>
<path d="M0 0 C2 1 2 1 2 1 Z " fill="#0A6D91" transform="translate(104,95)"/>
<path d="M0 0 C2 1 2 1 2 1 Z " fill="#007391" transform="translate(106,94)"/>
<path d="M0 0 C2 1 2 1 2 1 Z " fill="#037489" transform="translate(109,92)"/>
<path d="" fill="#007A8C" transform="translate(0,0)"/>
<path d="" fill="#4BBBDB" transform="translate(0,0)"/>
<path d="" fill="#007595" transform="translate(0,0)"/>
<path d="" fill="#52B9DC" transform="translate(0,0)"/>
<path d="" fill="#09718A" transform="translate(0,0)"/>
<path d="" fill="#0C6C8E" transform="translate(0,0)"/>
<path d="" fill="#42C1DD" transform="translate(0,0)"/>
<path d="" fill="#55B7DD" transform="translate(0,0)"/>
<path d="" fill="#4DBBDE" transform="translate(0,0)"/>
<path d="" fill="#4CBCDD" transform="translate(0,0)"/>
<path d="" fill="#48BDE4" transform="translate(0,0)"/>
<path d="" fill="#4CBBE1" transform="translate(0,0)"/>
<path d="" fill="#4EBBDE" transform="translate(0,0)"/>
<path d="" fill="#44C0DE" transform="translate(0,0)"/>
<path d="" fill="#4ABDDD" transform="translate(0,0)"/>
<path d="" fill="#097092" transform="translate(0,0)"/>
<path d="" fill="#03738D" transform="translate(0,0)"/>
<path d="" fill="#00788E" transform="translate(0,0)"/>
<path d="" fill="#4ABCE5" transform="translate(0,0)"/>
<path d="" fill="#4ABBE6" transform="translate(0,0)"/>
<path d="M0 0 C2 1 2 1 2 1 Z " fill="#007691" transform="translate(112,22)"/>
<path d="" fill="#46BCE8" transform="translate(0,0)"/>
<path d="M0 0 C2 1 2 1 2 1 Z " fill="#007787" transform="translate(109,20)"/>
<path d="M0 0 C2 1 2 1 2 1 Z " fill="#08718D" transform="translate(106,18)"/>
<path d="" fill="#48BEDD" transform="translate(0,0)"/>
<path d="M0 0 C2 1 2 1 2 1 Z " fill="#00749A" transform="translate(104,17)"/>
<path d="M0 0 C2 1 2 1 2 1 Z " fill="#49BAE2" transform="translate(46,13)"/>
<path d="M0 0 C2 1 2 1 2 1 Z " fill="#4ABAE3" transform="translate(9,13)"/>
<path d="M0 0 C2 1 2 1 2 1 Z " fill="#4CBADC" transform="translate(44,12)"/>
<path d="M0 0 C2 1 2 1 2 1 Z " fill="#49B9DD" transform="translate(81,11)"/>
<path d="M0 0 C2 1 2 1 2 1 Z " fill="#40C0DB" transform="translate(42,11)"/>
<path d="M0 0 C2 1 2 1 2 1 Z " fill="#47BAE9" transform="translate(12,11)"/>
<path d="M0 0 C2 1 2 1 2 1 Z " fill="#4EBBD2" transform="translate(54,10)"/>
<path d="M0 0 C2 1 2 1 2 1 Z " fill="#4EBAD6" transform="translate(14,10)"/>
<path d="M0 0 C2 1 2 1 2 1 Z " fill="#4CBAE0" transform="translate(77,9)"/>
<path d="M0 0 C2 1 2 1 2 1 Z " fill="#49BBE1" transform="translate(16,9)"/>
<path d="" fill="#53B8DF" transform="translate(0,0)"/>
<path d="" fill="#4CBCD2" transform="translate(0,0)"/>
<path d="" fill="#4ABCE5" transform="translate(0,0)"/>
<path d="" fill="#48BDE1" transform="translate(0,0)"/>
<path d="" fill="#47BDE5" transform="translate(0,0)"/>
<path d="" fill="#4DBAE3" transform="translate(0,0)"/>
<path d="" fill="#4BBCDD" transform="translate(0,0)"/>
<path d="" fill="#4BBBE3" transform="translate(0,0)"/>
<path d="" fill="#52BAD7" transform="translate(0,0)"/>
<path d="" fill="#4FBBDD" transform="translate(0,0)"/>
<path d="" fill="#4FBBDB" transform="translate(0,0)"/>
<path d="" fill="#4DBAE3" transform="translate(0,0)"/>
<path d="" fill="#007788" transform="translate(0,0)"/>
<path d="" fill="#04718E" transform="translate(0,0)"/>
<path d="" fill="#00778E" transform="translate(0,0)"/>
<path d="" fill="#007B8C" transform="translate(0,0)"/>
<path d="" fill="#007384" transform="translate(0,0)"/>
<path d="" fill="#007384" transform="translate(0,0)"/>
<path d="" fill="#007A9A" transform="translate(0,0)"/>
<path d="" fill="#0071A2" transform="translate(0,0)"/>
<path d="" fill="#4CBBDA" transform="translate(0,0)"/>
<path d="" fill="#00788D" transform="translate(0,0)"/>
<path d="" fill="#47BEE1" transform="translate(0,0)"/>
<path d="" fill="#06718C" transform="translate(0,0)"/>
<path d="" fill="#007696" transform="translate(0,0)"/>
<path d="" fill="#127191" transform="translate(0,0)"/>
<path d="" fill="#0B748E" transform="translate(0,0)"/>
<path d="" fill="#03758F" transform="translate(0,0)"/>
<path d="" fill="#007694" transform="translate(0,0)"/>
<path d="" fill="#007896" transform="translate(0,0)"/>
<path d="" fill="#45BFE3" transform="translate(0,0)"/>
<path d="" fill="#00778F" transform="translate(0,0)"/>
<path d="" fill="#057485" transform="translate(0,0)"/>
<path d="" fill="#4DBBDF" transform="translate(0,0)"/>
<path d="" fill="#45C0DD" transform="translate(0,0)"/>
<path d="" fill="#47BBE4" transform="translate(0,0)"/>
<path d="" fill="#3DC2DA" transform="translate(0,0)"/>
<path d="" fill="#52B6E0" transform="translate(0,0)"/>
<path d="" fill="#4CB9E2" transform="translate(0,0)"/>
<path d="" fill="#45BCE6" transform="translate(0,0)"/>
<path d="" fill="#42BFE0" transform="translate(0,0)"/>
<path d="" fill="#4FB8E0" transform="translate(0,0)"/>
<path d="" fill="#4DB8E4" transform="translate(0,0)"/>
<path d="" fill="#4CB9E4" transform="translate(0,0)"/>
<path d="" fill="#51B6DB" transform="translate(0,0)"/>
</svg>
