<?xml version="1.0" encoding="UTF-8"?>
<svg version="1.1" xmlns="http://www.w3.org/2000/svg" width="128" height="128">
<path d="M0 0 C9.63494814 8.96988092 14.15995125 20.95642751 14.75 33.9375 C14.43033491 42.90090904 10.46258663 50.23684552 6.25 57.9375 C-0.24726179 69.90567041 -3.49939418 82.48488944 0.33203125 95.9609375 C1.93024339 99.87197022 3.72441259 103.44397637 5.98046875 107.015625 C7.3125 109.375 7.3125 109.375 7.3125 112.375 C4.79032531 113.63608735 3.01509509 113.52252356 0.19189453 113.55200195 C-0.87616425 113.56483719 -1.94422302 113.57767242 -3.04464722 113.59089661 C-4.20296051 113.59828354 -5.3612738 113.60567047 -6.5546875 113.61328125 C-7.74095734 113.621353 -8.92722717 113.62942474 -10.14944458 113.63774109 C-12.66292861 113.65158957 -15.17643151 113.66230829 -17.68994141 113.67016602 C-21.5397485 113.68739816 -25.38870139 113.73128137 -29.23828125 113.77539062 C-31.677077 113.78551547 -34.11588007 113.79403222 -36.5546875 113.80078125 C-37.70895233 113.81828934 -38.86321716 113.83579742 -40.05245972 113.85383606 C-41.12682281 113.85091049 -42.20118591 113.84798492 -43.30810547 113.8449707 C-44.25249481 113.85083694 -45.19688416 113.85670319 -46.16989136 113.86274719 C-49.4567755 113.22596494 -50.58244579 111.92279801 -52.6875 109.375 C-53.99324651 107.32614573 -55.24201575 105.24008751 -56.4375 103.125 C-57.05109375 102.04734375 -57.6646875 100.9696875 -58.296875 99.859375 C-58.75578125 99.03953125 -59.2146875 98.2196875 -59.6875 97.375 C-63.28009509 97.97589669 -66.25656492 98.98962072 -69.5625 100.5 C-74.01309477 102.30805413 -76.98696419 102.97318217 -81.6875 101.375 C-84.46683533 99.10764749 -85.54687944 97.4656668 -86.0078125 93.890625 C-86.12527389 92.12359712 -86.19751102 90.35283152 -86.21875 88.58203125 C-86.45078125 87.48955078 -86.45078125 87.48955078 -86.6875 86.375 C-88.61577531 85.15558924 -88.61577531 85.15558924 -90.6875 84.375 C-91.0175 83.715 -91.3475 83.055 -91.6875 82.375 C-91.3575 81.385 -91.0275 80.395 -90.6875 79.375 C-91.203125 79.045 -91.71875 78.715 -92.25 78.375 C-94.01977513 75.91270416 -93.75908882 75.12007002 -93.375 72.1875 C-93.148125 70.929375 -92.92125 69.67125 -92.6875 68.375 C-94.6675 67.055 -96.6475 65.735 -98.6875 64.375 C-98.24692099 58.15064977 -95.10300436 54.72149342 -91.19335938 50.23046875 C-88.93455087 47.49903798 -87.73311306 45.70182751 -87.23828125 42.15625 C-87.50542704 39.13363557 -87.50542704 39.13363557 -89.9375 36.375 C-91.61040171 33.67216236 -91.70170804 32.49130083 -91.30859375 29.2734375 C-87.41496973 14.57867238 -80.46857228 1.70815451 -67.49609375 -6.69140625 C-44.90983122 -18.99950608 -19.89681137 -16.19976872 0 0 Z " fill="#49BBE2" transform="translate(103.6875,14.625)"/>
<path d="M0 0 C1.47982716 0.8815472 2.94222051 1.79388451 4.375 2.75 C5.73625 3.5853125 5.73625 3.5853125 7.125 4.4375 C14.03312175 11.53751402 16.71199039 19.09933118 16.76000977 28.84375 C16.57814906 37.03829493 13.51855908 42.69341284 8.0625 48.625 C0.84432474 55.30732819 -6.9092281 57.14030403 -16.52734375 57.0234375 C-24.77881122 56.2950608 -31.10343992 51.70462361 -36.625 45.75 C-42.81578745 37.53146083 -43.6070624 29.97889717 -42.625 19.75 C-39.43824462 9.71370402 -32.43162861 3.96141318 -23.625 -1.25 C-16.26657541 -3.7028082 -6.96583521 -3.42513164 0 0 Z " fill="#FBC10B" transform="translate(79.625,18.25)"/>
<path d="M0 0 C1.47982716 0.8815472 2.94222051 1.79388451 4.375 2.75 C5.73625 3.5853125 5.73625 3.5853125 7.125 4.4375 C14.03312175 11.53751402 16.71199039 19.09933118 16.76000977 28.84375 C16.57814906 37.03829493 13.51855908 42.69341284 8.0625 48.625 C0.84432474 55.30732819 -6.9092281 57.14030403 -16.52734375 57.0234375 C-24.77881122 56.2950608 -31.10343992 51.70462361 -36.625 45.75 C-42.81578745 37.53146083 -43.6070624 29.97889717 -42.625 19.75 C-39.43824462 9.71370402 -32.43162861 3.96141318 -23.625 -1.25 C-16.26657541 -3.7028082 -6.96583521 -3.42513164 0 0 Z M-20.625 1.75 C-20.625 2.41 -20.625 3.07 -20.625 3.75 C-21.6459375 3.811875 -21.6459375 3.811875 -22.6875 3.875 C-28.7317956 5.67542848 -33.62860859 10.82252895 -36.734375 16.2265625 C-39.09523581 22.91566814 -38.82758538 30.34746319 -36.48046875 36.98828125 C-33.22198061 43.34190323 -29.64978474 48.15602585 -22.86328125 50.84375 C-15.6580305 52.86017723 -7.39442859 53.18139863 -0.625 49.6875 C5.6932547 45.51839142 10.218558 40.05794232 12.375 32.75 C13.04967306 25.88145343 13.04382824 19.78581419 9.375 13.75 C4.44826841 8.04974775 -0.29086208 3.8194911 -7.625 1.75 C-11.05567526 1.51035114 -11.05567526 1.51035114 -14.5 1.625 C-15.65242188 1.64304687 -16.80484375 1.66109375 -17.9921875 1.6796875 C-18.86101563 1.70289063 -19.72984375 1.72609375 -20.625 1.75 Z " fill="#DAEBDF" transform="translate(79.625,18.25)"/>
<path d="M0 0 C3.96 0 7.92 0 12 0 C12 3.63 12 7.26 12 11 C15.63 11 19.26 11 23 11 C23 14.96 23 18.92 23 23 C19.04 23 15.08 23 11 23 C11 26.63 11 30.26 11 34 C7.37 34 3.74 34 0 34 C0 30.37 0 26.74 0 23 C-3.63 23 -7.26 23 -11 23 C-11 19.37 -11 15.74 -11 12 C-7.37 12 -3.74 12 0 12 C0 8.04 0 4.08 0 0 Z " fill="#FEFDF7" transform="translate(61,28)"/>
<path d="M0 0 C1.15338867 -0.03673828 1.15338867 -0.03673828 2.33007812 -0.07421875 C11.45553967 -0.12042362 17.58692338 4.10028758 24.13671875 10.15234375 C30.52669374 17.0778595 32.36952245 23.98503968 32.4375 33.1875 C32.458125 33.87392578 32.47875 34.56035156 32.5 35.26757812 C32.57226722 44.81588508 27.55506418 51.65431509 21.1875 58.375 C12.66980637 65.22099675 3.85781091 66.11999918 -6.8125 65.375 C-14.89058695 64.0367627 -21.5566266 59.43788475 -26.640625 53.09375 C-32.79822689 44.1263686 -33.84627723 36.03751906 -32.8125 25.375 C-31.05962923 16.98784619 -25.81255309 10.0067258 -18.9140625 4.99609375 C-17.125 3.9375 -17.125 3.9375 -13.8125 2.375 C-13.1009375 2.02050781 -12.389375 1.66601562 -11.65625 1.30078125 C-7.73813343 0.02524055 -4.09582756 0.00676437 0 0 Z M-17.8125 8.375 C-19.17375 9.2103125 -19.17375 9.2103125 -20.5625 10.0625 C-28.00846807 17.71530052 -30.15044266 25.46680017 -30.01171875 35.87109375 C-29.47320475 45.34260463 -24.648015 50.98231737 -17.8125 57.375 C-10.39188794 62.22651457 -3.57714813 63.24925152 5.1875 62.375 C13.06370727 60.48516291 19.81228044 56.17665164 24.5 49.5078125 C25.47355875 47.83987729 26.33691806 46.10887856 27.1875 44.375 C27.54199219 43.79363281 27.89648438 43.21226563 28.26171875 42.61328125 C30.70003098 36.7181213 30.14409648 28.33244569 28.20703125 22.34375 C24.80685675 15.39693194 20.92163497 10.33625587 14.1875 6.375 C13.218125 5.7975 12.24875 5.22 11.25 4.625 C1.49104863 0.72141945 -9.33454829 2.71753417 -17.8125 8.375 Z " fill="#117290" transform="translate(66.8125,12.625)"/>
<path d="M0 0 C4.90385727 3.69625182 9.0407531 7.76489516 10 14 C10.67384355 21.57530572 10.61023353 28.63542982 6 35 C2.75 37.25 2.75 37.25 0.91015625 38.09375 C-1.20554606 39.09751879 -2.92075284 40.37418389 -4.8125 41.75 C-9.40304495 44.69913202 -13.70346843 44.48840967 -19 44 C-18.34 43.01 -17.68 42.02 -17 41 C-13.375 40.8125 -13.375 40.8125 -10 41 C-9.67 39.35 -9.34 37.7 -9 36 C-8.34 36 -7.68 36 -7 36 C-7 33.36 -7 30.72 -7 28 C-4.03 27.67 -1.06 27.34 2 27 C2.33 22.38 2.66 17.76 3 13 C0.03 13 -2.94 13 -6 13 C-7.15299221 8.64425167 -6.80558057 6.83348343 -6 2 C-11.28 2 -16.56 2 -22 2 C-22 0.68 -22 -0.64 -22 -2 C-14.34858911 -3.85488749 -7.13830873 -3.35199833 0 0 Z " fill="#FAC013" transform="translate(82,25)"/>
<path d="M0 0 C1.48831242 0.00667405 2.97660807 0.01863442 4.46484375 0.03515625 C5.22345703 0.03966797 5.98207031 0.04417969 6.76367188 0.04882812 C8.64326246 0.06064945 10.52281274 0.07858547 12.40234375 0.09765625 C12.40234375 3.39765625 12.40234375 6.69765625 12.40234375 10.09765625 C15.37234375 10.42765625 18.34234375 10.75765625 21.40234375 11.09765625 C21.42919787 13.41009417 21.44867216 15.72261895 21.46484375 18.03515625 C21.47644531 19.32292969 21.48804688 20.61070313 21.5 21.9375 C21.40234375 25.09765625 21.40234375 25.09765625 20.40234375 26.09765625 C18.88306337 26.16945589 17.36066893 26.18157632 15.83984375 26.16015625 C15.01355469 26.15113281 14.18726563 26.14210938 13.3359375 26.1328125 C12.37880859 26.11541016 12.37880859 26.11541016 11.40234375 26.09765625 C11.40234375 28.73765625 11.40234375 31.37765625 11.40234375 34.09765625 C10.74234375 34.09765625 10.08234375 34.09765625 9.40234375 34.09765625 C9.07234375 35.74765625 8.74234375 37.39765625 8.40234375 39.09765625 C7.26796875 39.24203125 6.13359375 39.38640625 4.96484375 39.53515625 C1.59457174 39.70937103 1.59457174 39.70937103 0.40234375 41.09765625 C6.79711487 41.76377824 10.52017307 41.00819325 15.67578125 37.09375 C16.24554688 36.76503906 16.8153125 36.43632813 17.40234375 36.09765625 C18.39234375 36.42765625 19.38234375 36.75765625 20.40234375 37.09765625 C11.95237698 42.85899723 6.73200461 43.86412652 -3.59765625 43.09765625 C-9.38037433 41.75032228 -14.05801194 38.32748594 -17.41015625 33.47265625 C-18.59765625 31.09765625 -18.59765625 31.09765625 -18.59765625 29.09765625 C-17.60765625 29.09765625 -16.61765625 29.09765625 -15.59765625 29.09765625 C-15.26765625 30.74765625 -14.93765625 32.39765625 -14.59765625 34.09765625 C-13.93765625 34.09765625 -13.27765625 34.09765625 -12.59765625 34.09765625 C-12.26765625 34.75765625 -11.93765625 35.41765625 -11.59765625 36.09765625 C-9.0703239 36.75320744 -9.0703239 36.75320744 -6.59765625 37.09765625 C-6.92765625 35.11765625 -7.25765625 33.13765625 -7.59765625 31.09765625 C-6.93765625 30.76765625 -6.27765625 30.43765625 -5.59765625 30.09765625 C-5.26765625 28.77765625 -4.93765625 27.45765625 -4.59765625 26.09765625 C-7.56765625 26.09765625 -10.53765625 26.09765625 -13.59765625 26.09765625 C-13.59765625 25.43765625 -13.59765625 24.77765625 -13.59765625 24.09765625 C-9.96765625 24.09765625 -6.33765625 24.09765625 -2.59765625 24.09765625 C-2.59765625 27.72765625 -2.59765625 31.35765625 -2.59765625 35.09765625 C1.03234375 35.09765625 4.66234375 35.09765625 8.40234375 35.09765625 C8.40234375 31.46765625 8.40234375 27.83765625 8.40234375 24.09765625 C12.36234375 24.09765625 16.32234375 24.09765625 20.40234375 24.09765625 C20.40234375 20.13765625 20.40234375 16.17765625 20.40234375 12.09765625 C16.77234375 12.09765625 13.14234375 12.09765625 9.40234375 12.09765625 C9.40234375 8.46765625 9.40234375 4.83765625 9.40234375 1.09765625 C5.44234375 1.09765625 1.48234375 1.09765625 -2.59765625 1.09765625 C-2.59765625 5.05765625 -2.59765625 9.01765625 -2.59765625 13.09765625 C-6.22765625 13.09765625 -9.85765625 13.09765625 -13.59765625 13.09765625 C-13.59765625 16.39765625 -13.59765625 19.69765625 -13.59765625 23.09765625 C-13.92765625 23.09765625 -14.25765625 23.09765625 -14.59765625 23.09765625 C-14.6246199 21.30607136 -14.64403542 19.51437152 -14.66015625 17.72265625 C-14.67175781 16.72492187 -14.68335938 15.7271875 -14.6953125 14.69921875 C-14.59765625 12.09765625 -14.59765625 12.09765625 -13.59765625 10.09765625 C-10.62765625 10.09765625 -7.65765625 10.09765625 -4.59765625 10.09765625 C-4.61828125 8.63328125 -4.63890625 7.16890625 -4.66015625 5.66015625 C-4.68157632 4.13933107 -4.66945589 2.61693663 -4.59765625 1.09765625 C-3.59765625 0.09765625 -3.59765625 0.09765625 0 0 Z " fill="#F5C024" transform="translate(63.59765625,26.90234375)"/>
<path d="M0 0 C0.66 0 1.32 0 2 0 C0 4 0 4 -1.0390625 5.69921875 C-3.59607946 11.82150733 -3.01493747 20.14188177 -0.83203125 26.2890625 C2.27365928 32.21302747 5.34295717 36.57694471 11.73046875 39.0625 C19.08330541 41.17084026 27.32763438 41.40484644 34.1875 37.75 C36.56008926 36.28017415 37.94051851 35.08007678 39.61328125 32.828125 C40.07089844 32.22484375 40.52851562 31.6215625 41 31 C41.66 31 42.32 31 43 31 C42.63769078 37.28002654 42.63769078 37.28002654 40.0625 40.1875 C31.88970006 45.02446323 24.56597229 47.25561477 15 46 C8.10241569 44.16426496 2.86961968 40.10251454 -2 35 C-2.53109375 34.46117187 -3.0621875 33.92234375 -3.609375 33.3671875 C-8.86973836 26.776957 -7.40628001 17.94503133 -7 10 C-6.01 10.33 -5.02 10.66 -4 11 C-4 8.36 -4 5.72 -4 3 C-2.68 2.67 -1.36 2.34 0 2 C0 1.34 0 0.68 0 0 Z " fill="#E4EFE1" transform="translate(45,29)"/>
<path d="M0 0 C1.98 0.495 1.98 0.495 4 1 C4.66 5.29 5.32 9.58 6 14 C8.97 14 11.94 14 15 14 C15 16.64 15 19.28 15 22 C14.34 21.01 13.68 20.02 13 19 C13 20.98 13 22.96 13 25 C11.35 25 9.7 25 8 25 C7.67 24.01 7.34 23.02 7 22 C6.34 22 5.68 22 5 22 C4.67 20.35 4.34 18.7 4 17 C2.68 17 1.36 17 0 17 C-0.83725216 13.35861758 -1.13509204 9.98405504 -1.125 6.25 C-1.12757812 5.28578125 -1.13015625 4.3215625 -1.1328125 3.328125 C-1 1 -1 1 0 0 Z " fill="#FCC00E" transform="translate(44,39)"/>
<path d="M0 0 C3.96 0 7.92 0 12 0 C12 3.63 12 7.26 12 11 C15.63 11 19.26 11 23 11 C23 14.96 23 18.92 23 23 C19.37 23 15.74 23 12 23 C12 22.67 12 22.34 12 22 C15.465 21.505 15.465 21.505 19 21 C19.33 18.36 19.66 15.72 20 13 C19.36191406 13.01160156 18.72382812 13.02320313 18.06640625 13.03515625 C17.24011719 13.04417969 16.41382812 13.05320312 15.5625 13.0625 C14.32693359 13.07990234 14.32693359 13.07990234 13.06640625 13.09765625 C11 13 11 13 10 12 C9.92794489 10.31391034 9.91613932 8.62499341 9.9375 6.9375 C9.94652344 6.01839844 9.95554687 5.09929688 9.96484375 4.15234375 C9.97644531 3.44207031 9.98804687 2.73179688 10 2 C7.69 2.33 5.38 2.66 3 3 C2.34 6.3 1.68 9.6 1 13 C-2.63 13 -6.26 13 -10 13 C-10 15.97 -10 18.94 -10 22 C-6.7 22 -3.4 22 0 22 C0 22.33 0 22.66 0 23 C-3.63 23 -7.26 23 -11 23 C-11 19.37 -11 15.74 -11 12 C-7.37 12 -3.74 12 0 12 C0 8.04 0 4.08 0 0 Z " fill="#FDF1B8" transform="translate(61,28)"/>
<path d="M0 0 C1.77734375 1.4140625 1.77734375 1.4140625 3 3 C3.3125 6.0625 3.3125 6.0625 3 9 C2.34 9.66 1.68 10.32 1 11 C0.01 11 -0.98 11 -2 11 C-2 9.68 -2 8.36 -2 7 C-2.99 7 -3.98 7 -5 7 C-5.33 5.68 -5.66 4.36 -6 3 C-11.28 2.67 -16.56 2.34 -22 2 C-22 0.68 -22 -0.64 -22 -2 C-14.28312079 -3.8707586 -7.27785856 -3.09181753 0 0 Z " fill="#FDBF12" transform="translate(82,25)"/>
<path d="M0 0 C4.87500708 4.20259231 6.70376026 8.16640249 7.359375 14.4375 C7.65569296 22.60270604 7.05927627 29.34305755 2 36 C-0.171875 37.765625 -0.171875 37.765625 -2 39 C-1.505 36.03 -1.505 36.03 -1 33 C-0.01 33 0.98 33 2 33 C2 30.69 2 28.38 2 26 C2.66 26 3.32 26 4 26 C4 20.39 4 14.78 4 9 C3.34 9 2.68 9 2 9 C1.34 6.03 0.68 3.06 0 0 Z " fill="#AFDFEA" transform="translate(89,27)"/>
<path d="M0 0 C0.66 0 1.32 0 2 0 C0 4 0 4 -1.04296875 5.69140625 C-3.45919201 11.51992848 -3.12804865 20.06785962 -0.87890625 25.9140625 C0.44580024 28.29151161 0.44580024 28.29151161 1.90625 30.36328125 C3 32 3 32 3 34 C2.01 34 1.02 34 0 34 C0 32.68 0 31.36 0 30 C-0.66 30 -1.32 30 -2 30 C-2.99 28.02 -3.98 26.04 -5 24 C-5.66 24 -6.32 24 -7 24 C-7 19.38 -7 14.76 -7 10 C-6.01 10.33 -5.02 10.66 -4 11 C-4 8.36 -4 5.72 -4 3 C-2.68 2.67 -1.36 2.34 0 2 C0 1.34 0 0.68 0 0 Z " fill="#F2F3DE" transform="translate(45,29)"/>
<path d="M0 0 C5.07612318 -0.61528766 7.82982006 1.38341651 12 4 C12 4.66 12 5.32 12 6 C12.99 6 13.98 6 15 6 C16.49821059 9.37097383 17 11.20442119 17 15 C17.66 15 18.32 15 19 15 C19 20.61 19 26.22 19 32 C18.34 32 17.68 32 17 32 C17 34.31 17 36.62 17 39 C16.01 39 15.02 39 14 39 C14.2165625 38.48953125 14.433125 37.9790625 14.65625 37.453125 C17.60730547 29.74759127 18.03269831 22.35208572 16.125 14.3125 C12.27839191 8.31631681 6.58669349 2.88836443 0 0 Z " fill="#D4E4C8" transform="translate(74,21)"/>
<path d="M0 0 C1.13598633 0.00483398 1.13598633 0.00483398 2.29492188 0.00976562 C3.47344727 0.02233398 3.47344727 0.02233398 4.67578125 0.03515625 C5.47306641 0.03966797 6.27035156 0.04417969 7.09179688 0.04882812 C9.05732382 0.06059775 11.0228121 0.07853277 12.98828125 0.09765625 C12.98828125 0.42765625 12.98828125 0.75765625 12.98828125 1.09765625 C11.97121094 1.11892578 11.97121094 1.11892578 10.93359375 1.140625 C2.26973727 1.58461765 -3.86141923 4.33078991 -11.01171875 9.09765625 C-11.34171875 7.77765625 -11.67171875 6.45765625 -12.01171875 5.09765625 C-7.99347007 1.73101546 -5.28359342 -0.03972627 0 0 Z " fill="#217593" transform="translate(57.01171875,14.90234375)"/>
<path d="M0 0 C1.01513672 -0.01836914 1.01513672 -0.01836914 2.05078125 -0.03710938 C5.76357044 -0.04809396 7.32983076 0.07405384 10.5 2.1875 C8.47307871 4.21442129 4.46251392 3.37257217 1.6875 3.375 C0.59985352 3.39336914 0.59985352 3.39336914 -0.50976562 3.41210938 C-4.32993278 3.42259474 -7.26435611 3.33610342 -10.5 1.1875 C-6.94709436 0.00319812 -3.69749544 0.00352142 0 0 Z " fill="#C4E7E7" transform="translate(66.5,15.8125)"/>
<path d="M0 0 C3.63 0 7.26 0 11 0 C11 0.33 11 0.66 11 1 C8.36 1 5.72 1 3 1 C3 3.97 3 6.94 3 10 C2.34 10 1.68 10 1 10 C1 10.66 1 11.32 1 12 C-2.96 12 -6.92 12 -11 12 C-11 11.67 -11 11.34 -11 11 C-7.37 11 -3.74 11 0 11 C0 7.37 0 3.74 0 0 Z " fill="#F6C645" transform="translate(72,51)"/>
<path d="M0 0 C2.64 0 5.28 0 8 0 C3.36161308 3.81010354 -0.1930317 4.13957486 -6.125 4.125 C-7.70667969 4.12886719 -7.70667969 4.12886719 -9.3203125 4.1328125 C-12 4 -12 4 -14 3 C-14 2.34 -14 1.68 -14 1 C-7.07 1.495 -7.07 1.495 0 2 C0 1.34 0 0.68 0 0 Z " fill="#BAE3EB" transform="translate(72,71)"/>
<path d="M0 0 C0.66 0 1.32 0 2 0 C1.75931455 4.17188107 1.61613937 6.3505558 -1.3125 9.4375 C-4 11 -4 11 -8 11 C-6.60366572 6.55711819 -4.39598172 4.13475236 -1 1 C-0.67 0.67 -0.34 0.34 0 0 Z " fill="#CDE4D3" transform="translate(86,60)"/>
<path d="M0 0 C2 1 2 1 3.125 3.3125 C4.78264119 10.29827359 5.05027761 17.40316946 2 24 C1.67 24 1.34 24 1 24 C1.01160156 22.9378125 1.02320312 21.875625 1.03515625 20.78125 C1.1218771 10.35389085 1.1218771 10.35389085 0 0 Z " fill="#F2C643" transform="translate(88,32)"/>
<path d="M0 0 C13.6332574 -0.55353075 13.6332574 -0.55353075 20 3 C18 4 18 4 15.89453125 3.56640625 C12.15014301 2.8336987 8.48428369 2.89339081 4.6875 2.9375 C3.57665039 2.94426758 3.57665039 2.94426758 2.44335938 2.95117188 C0.62887101 2.96287825 -1.18557534 2.98081102 -3 3 C-2.01 2.67 -1.02 2.34 0 2 C0 1.34 0 0.68 0 0 Z " fill="#F3C94D" transform="translate(59,20)"/>
<path d="M0 0 C3.3 0 6.6 0 10 0 C10.33 0.99 10.66 1.98 11 3 C7.37 3 3.74 3 0 3 C0 6.3 0 9.6 0 13 C-0.33 13 -0.66 13 -1 13 C-1.02696365 11.20841511 -1.04637917 9.41671527 -1.0625 7.625 C-1.07410156 6.62726562 -1.08570313 5.62953125 -1.09765625 4.6015625 C-1 2 -1 2 0 0 Z " fill="#F9C73C" transform="translate(50,37)"/>
<path d="M0 0 C0.33 0.99 0.66 1.98 1 3 C0.67 3.33 0.34 3.66 0 4 C-0.23075082 5.34747084 -0.41153063 6.70377565 -0.5625 8.0625 C-0.706875 9.361875 -0.85125 10.66125 -1 12 C-1.66 12 -2.32 12 -3 12 C-3.33 15.96 -3.66 19.92 -4 24 C-4.33 24 -4.66 24 -5 24 C-5.6053938 14.66348234 -5.13668843 7.96186707 0 0 Z " fill="#C7E2E0" transform="translate(42,28)"/>
<path d="M0 0 C1.65 0.33 3.3 0.66 5 1 C5.125 3.375 5.125 3.375 5 6 C4.34 6.66 3.68 7.32 3 8 C2.01 8 1.02 8 0 8 C0 6.68 0 5.36 0 4 C-0.66 4 -1.32 4 -2 4 C-1.34 2.68 -0.68 1.36 0 0 Z " fill="#FDC205" transform="translate(80,28)"/>
<path d="M0 0 C4.95 1.98 4.95 1.98 10 4 C10 4.66 10 5.32 10 6 C7.39517051 6.94721072 5.69325299 7.30222393 3.109375 6.17578125 C1.37417127 5.17063275 -0.31640423 4.0893855 -2 3 C-1.34 2.01 -0.68 1.02 0 0 Z " fill="#187895" transform="translate(50,70)"/>
<path d="M0 0 C0.70189453 0.00451172 1.40378906 0.00902344 2.12695312 0.01367188 C3.85550538 0.02543073 5.58401365 0.04336546 7.3125 0.0625 C7.6425 1.0525 7.9725 2.0425 8.3125 3.0625 C2.0425 3.0625 -4.2275 3.0625 -10.6875 3.0625 C-10.6875 2.4025 -10.6875 1.7425 -10.6875 1.0625 C-7.06882441 -0.1437252 -3.76243749 -0.04566918 0 0 Z " fill="#076F92" transform="translate(65.6875,12.9375)"/>
<path d="M0 0 C0.66 0.33 1.32 0.66 2 1 C1.01 2.485 1.01 2.485 0 4 C-2.24658203 4.34057617 -2.24658203 4.34057617 -5.0078125 4.29296875 C-5.99394531 4.28330078 -6.98007813 4.27363281 -7.99609375 4.26367188 C-9.02863281 4.23853516 -10.06117187 4.21339844 -11.125 4.1875 C-12.68541016 4.16719727 -12.68541016 4.16719727 -14.27734375 4.14648438 C-16.85207627 4.11105228 -19.4257833 4.06165221 -22 4 C-22 3.01 -22 2.02 -22 1 C-21.2265625 1.24169922 -21.2265625 1.24169922 -20.4375 1.48828125 C-17.26144243 2.15504975 -14.24406253 2.17031747 -11 2.1875 C-9.1746875 2.20876953 -9.1746875 2.20876953 -7.3125 2.23046875 C-4.16978805 2.01181308 -2.68484089 1.47293354 0 0 Z " fill="#EAE6B2" transform="translate(78,67)"/>
<path d="M0 0 C6.93 0.33 13.86 0.66 21 1 C21 1.66 21 2.32 21 3 C18.06195004 3.08086376 15.12611925 3.1404283 12.1875 3.1875 C11.35412109 3.21263672 10.52074219 3.23777344 9.66210938 3.26367188 C8.45844727 3.27817383 8.45844727 3.27817383 7.23046875 3.29296875 C6.12288208 3.31653442 6.12288208 3.31653442 4.99291992 3.34057617 C3 3 3 3 0 0 Z " fill="#D5EAE1" transform="translate(51,70)"/>
<path d="M0 0 C0.99 0.33 1.98 0.66 3 1 C-3.28996247 5.28861077 -6.51838455 7.26817806 -14.25 7.125 C-15.51328125 7.10695313 -16.7765625 7.08890625 -18.078125 7.0703125 C-19.04234375 7.04710938 -20.0065625 7.02390625 -21 7 C-21 6.67 -21 6.34 -21 6 C-20.154375 5.98582031 -19.30875 5.97164063 -18.4375 5.95703125 C-11.69039257 5.67334605 -6.96285682 5.21081696 -1.5859375 0.9609375 C-1.06257813 0.64382812 -0.53921875 0.32671875 0 0 Z " fill="#ECC239" transform="translate(81,63)"/>
<path d="M0 0 C0.66 0 1.32 0 2 0 C0 4 0 4 -1.03125 5.71875 C-2.31616344 8.74451391 -2.42860417 11.47673614 -2.625 14.75 C-2.69976562 15.92046875 -2.77453125 17.0909375 -2.8515625 18.296875 C-2.92503906 19.63492188 -2.92503906 19.63492188 -3 21 C-3.33 21 -3.66 21 -4 21 C-4 15.06 -4 9.12 -4 3 C-2.68 2.67 -1.36 2.34 0 2 C0 1.34 0 0.68 0 0 Z " fill="#F9ECBC" transform="translate(45,29)"/>
<path d="M0 0 C0 1.32 0 2.64 0 4 C-3.63 4 -7.26 4 -11 4 C-9 1 -9 1 -7.1875 0.3125 C-4.76407022 -0.03370425 -2.44491162 -0.06791421 0 0 Z " fill="#FDBF09" transform="translate(71,23)"/>
<path d="M0 0 C2.71224618 1.61268692 5.37352812 3.24901874 8 5 C8 5.66 8 6.32 8 7 C5.69 7 3.38 7 1 7 C0.67 4.69 0.34 2.38 0 0 Z " fill="#EEEBCD" transform="translate(48,63)"/>
<path d="M0 0 C0.33 0.66 0.66 1.32 1 2 C0.69320312 2.86882813 0.38640625 3.73765625 0.0703125 4.6328125 C-1.14767474 8.46458258 -1.22495803 11.90743513 -1.125 15.875 C-1.11597656 16.56335938 -1.10695312 17.25171875 -1.09765625 17.9609375 C-1.07432513 19.64077838 -1.03846326 21.32043746 -1 23 C-3.5018939 19.24715915 -3.29930669 17.10193043 -3.3125 12.625 C-3.32925781 11.31789063 -3.34601562 10.01078125 -3.36328125 8.6640625 C-2.98987432 4.89787219 -2.20795145 3.01772784 0 0 Z " fill="#F5C948" transform="translate(45,32)"/>
<path d="M0 0 C4.66714289 1.83025211 8.18765077 3.6497537 12 7 C11.67 7.99 11.34 8.98 11 10 C10.01 9.67 9.02 9.34 8 9 C8 8.34 8 7.68 8 7 C7.0409375 6.566875 7.0409375 6.566875 6.0625 6.125 C4 5 4 5 3 3 C2.01 2.67 1.02 2.34 0 2 C0 1.34 0 0.68 0 0 Z " fill="#AEE3EF" transform="translate(77,18)"/>
<path d="M0 0 C0 1.66666667 0 3.33333333 0 5 C-1.65 5 -3.3 5 -5 5 C-5 5.66 -5 6.32 -5 7 C-6.32 6.67 -7.64 6.34 -9 6 C-7.8803014 4.99406757 -6.7540588 3.9954151 -5.625 3 C-4.68527344 2.1646875 -4.68527344 2.1646875 -3.7265625 1.3125 C-2 0 -2 0 0 0 Z " fill="#F2C63C" transform="translate(56,23)"/>
<path d="M0 0 C5.07612318 -0.61528766 7.82982006 1.38341651 12 4 C11.67 5.32 11.34 6.64 11 8 C10.54109375 7.59007812 10.0821875 7.18015625 9.609375 6.7578125 C8.68898438 5.94957031 8.68898438 5.94957031 7.75 5.125 C7.14671875 4.59132813 6.5434375 4.05765625 5.921875 3.5078125 C4.02581254 2.0202513 2.18709995 0.99677564 0 0 Z " fill="#DEE1BE" transform="translate(74,21)"/>
<path d="M0 0 C2.31 0 4.62 0 7 0 C6.01 0.66 5.02 1.32 4 2 C2.989375 2.680625 1.97875 3.36125 0.9375 4.0625 C-2 6 -2 6 -4 7 C-4 5.68 -4 4.36 -4 3 C-3.01 2.67 -2.02 2.34 -1 2 C-0.67 1.34 -0.34 0.68 0 0 Z " fill="#F5EAC9" transform="translate(52,21)"/>
<path d="M0 0 C0.99 0 1.98 0 3 0 C3.33 1.65 3.66 3.3 4 5 C4.66 5 5.32 5 6 5 C6.33 6.32 6.66 7.64 7 9 C3.17475764 7.549046 1.80909034 5.61818068 0 2 C0 1.34 0 0.68 0 0 Z " fill="#F7C035" transform="translate(45,56)"/>
<path d="M0 0 C6 7.71428571 6 7.71428571 6 11 C5.01 11 4.02 11 3 11 C3 9.68 3 8.36 3 7 C2.34 7 1.68 7 1 7 C0.67 4.69 0.34 2.38 0 0 Z " fill="#F8E7AF" transform="translate(42,52)"/>
<path d="M0 0 C0.66 0.66 1.32 1.32 2 2 C1.64644564 4.26274788 1.02455574 5.95088852 0 8 C-0.99 7.67 -1.98 7.34 -3 7 C-1.125 1.125 -1.125 1.125 0 0 Z " fill="#13738C" transform="translate(94,56)"/>
<path d="M0 0 C0.99 0.33 1.98 0.66 3 1 C3.625 3.375 3.625 3.375 4 6 C3.34 6.66 2.68 7.32 2 8 C0.93224776 6.03533587 -0.06553465 4.03144641 -1 2 C-0.67 1.34 -0.34 0.68 0 0 Z " fill="#117492" transform="translate(37,56)"/>
<path d="M0 0 C0.66 0.99 1.32 1.98 2 3 C-0.07553648 3.5534764 -1.84365964 4 -4 4 C-4 4.66 -4 5.32 -4 6 C-5.65 6.33 -7.3 6.66 -9 7 C-9 6.34 -9 5.68 -9 5 C-6.03 3.35 -3.06 1.7 0 0 Z " fill="#1B738C" transform="translate(85,68)"/>
<path d="M0 0 C1.32 0 2.64 0 4 0 C3.67 1.32 3.34 2.64 3 4 C1.35 4.33 -0.3 4.66 -2 5 C-1.34 3.35 -0.68 1.7 0 0 Z " fill="#FBBF1E" transform="translate(47,30)"/>
<path d="M0 0 C2.1519437 3.22791555 2.20086443 4.28400809 2 8 C1.01 8.495 1.01 8.495 0 9 C-1.4606285 6.35261084 -2 5.10551666 -2 2 C-1.34 2 -0.68 2 0 2 C0 1.34 0 0.68 0 0 Z " fill="#DAE7DA" transform="translate(40,51)"/>
<path d="M0 0 C2.79872437 2.52788007 4.45773019 4.20411134 5 8 C4.01 8 3.02 8 2 8 C0.74335022 5.09399739 0 3.20395416 0 0 Z " fill="#A8E1ED" transform="translate(89,27)"/>
<path d="M0 0 C0.33 1.32 0.66 2.64 1 4 C0.01 4 -0.98 4 -2 4 C-2 4.66 -2 5.32 -2 6 C-2.66 6 -3.32 6 -4 6 C-3.67 4.35 -3.34 2.7 -3 1 C-2.01 0.67 -1.02 0.34 0 0 Z " fill="#EFF3E3" transform="translate(47,25)"/>
<path d="M0 0 C6.75 2.625 6.75 2.625 9 6 C7.35 5.67 5.7 5.34 4 5 C4 4.34 4 3.68 4 3 C2.68 2.67 1.36 2.34 0 2 C0 1.34 0 0.68 0 0 Z " fill="#F5C029" transform="translate(76,23)"/>
<path d="M0 0 C0.66 0.99 1.32 1.98 2 3 C0.35 4.65 -1.3 6.3 -3 8 C-3.36923077 3.44615385 -3.36923077 3.44615385 -1.5 1.1875 C-1.005 0.795625 -0.51 0.40375 0 0 Z " fill="#166B82" transform="translate(44,21)"/>
<path d="M0 0 C0.66 0 1.32 0 2 0 C1.67 2.64 1.34 5.28 1 8 C0.01 6.68 -0.98 5.36 -2 4 C-1.34 2.68 -0.68 1.36 0 0 Z " fill="#10789E" transform="translate(96,52)"/>
<path d="M0 0 C0.33 0 0.66 0 1 0 C1 5.61 1 11.22 1 17 C0.67 17 0.34 17 0 17 C0 11.39 0 5.78 0 0 Z " fill="#5BB5D6" transform="translate(103,90)"/>
<path d="M0 0 C0.33 0 0.66 0 1 0 C1 3.63 1 7.26 1 11 C0.67 11 0.34 11 0 11 C0 7.37 0 3.74 0 0 Z " fill="#5EB3D0" transform="translate(119,43)"/>
<path d="M0 0 C0.33 0 0.66 0 1 0 C1 1.98 1 3.96 1 6 C0.67 6 0.34 6 0 6 C0 4.02 0 2.04 0 0 Z " fill="#4ABADF" transform="translate(15,54)"/>
<path d="M0 0 C0.33 0 0.66 0 1 0 C1 1.98 1 3.96 1 6 C0.67 6 0.34 6 0 6 C0 4.02 0 2.04 0 0 Z " fill="#49BAE2" transform="translate(118,37)"/>
<path d="M0 0 C1.65 0 3.3 0 5 0 C5 0.33 5 0.66 5 1 C3.35 1 1.7 1 0 1 C0 0.67 0 0.34 0 0 Z " fill="#46BEE0" transform="translate(24,118)"/>
<path d="M0 0 C0.33 0 0.66 0 1 0 C1 1.65 1 3.3 1 5 C0.67 5 0.34 5 0 5 C0 3.35 0 1.7 0 0 Z " fill="#49BDDA" transform="translate(15,102)"/>
<path d="M0 0 C1.65 0 3.3 0 5 0 C5 0.33 5 0.66 5 1 C3.35 1 1.7 1 0 1 C0 0.67 0 0.34 0 0 Z " fill="#48BBE3" transform="translate(50,0)"/>
<path d="M0 0 C0.99 0 1.98 0 3 0 C2.67 0.66 2.34 1.32 2 2 C1.34 1.34 0.68 0.68 0 0 Z " fill="#4FB9E2" transform="translate(41,112)"/>
<path d="M0 0 C1 4 1 4 1 4 Z " fill="#50B8E6" transform="translate(104,86)"/>
<path d="M0 0 C1 4 1 4 1 4 Z " fill="#4CB9E4" transform="translate(3,75)"/>
<path d="M0 0 C0 3 0 3 0 3 Z " fill="#48BBDD" transform="translate(14,60)"/>
<path d="M0 0 C1 4 1 4 1 4 Z " fill="#4CB8E4" transform="translate(118,54)"/>
<path d="M0 0 C0.99 0.495 0.99 0.495 2 1 C1.67 1.66 1.34 2.32 1 3 C0.67 2.01 0.34 1.02 0 0 Z " fill="#4FB8DF" transform="translate(13,51)"/>
<path d="M0 0 C0 3 0 3 0 3 Z " fill="#46BBE2" transform="translate(25,15)"/>
<path d="M0 0 C4 1 4 1 4 1 Z " fill="#49BAE1" transform="translate(77,0)"/>
<path d="" fill="#49BDDF" transform="translate(0,0)"/>
<path d="M0 0 C3 1 3 1 3 1 Z " fill="#4FBAE0" transform="translate(29,117)"/>
<path d="M0 0 C3 1 3 1 3 1 Z " fill="#4BBDDA" transform="translate(34,115)"/>
<path d="" fill="#54B6E7" transform="translate(0,0)"/>
<path d="" fill="#54B9D9" transform="translate(0,0)"/>
<path d="" fill="#4FB8E5" transform="translate(0,0)"/>
<path d="" fill="#60B1D4" transform="translate(0,0)"/>
<path d="" fill="#46BCE0" transform="translate(0,0)"/>
<path d="" fill="#54B7DF" transform="translate(0,0)"/>
<path d="M0 0 C0.66 0 1.32 0 2 0 C1.67 0.66 1.34 1.32 1 2 C0.67 1.34 0.34 0.68 0 0 Z " fill="#46BCE0" transform="translate(9,83)"/>
<path d="" fill="#4ABCE0" transform="translate(0,0)"/>
<path d="" fill="#52B7DB" transform="translate(0,0)"/>
<path d="" fill="#4FBAD6" transform="translate(0,0)"/>
<path d="" fill="#55B5DC" transform="translate(0,0)"/>
<path d="" fill="#4DBADC" transform="translate(0,0)"/>
<path d="" fill="#4FBAD4" transform="translate(0,0)"/>
<path d="" fill="#50BAD4" transform="translate(0,0)"/>
<path d="" fill="#4CB9E1" transform="translate(0,0)"/>
<path d="M0 0 C3 1 3 1 3 1 Z " fill="#53B5E3" transform="translate(44,2)"/>
<path d="M0 0 C3 1 3 1 3 1 Z " fill="#47BCE0" transform="translate(81,1)"/>
<path d="M0 0 C3 1 3 1 3 1 Z " fill="#4BB9E4" transform="translate(47,1)"/>
<path d="" fill="#52B8E0" transform="translate(0,0)"/>
<path d="" fill="#50B9E1" transform="translate(0,0)"/>
<path d="" fill="#47BCE7" transform="translate(0,0)"/>
<path d="" fill="#4FBADB" transform="translate(0,0)"/>
<path d="" fill="#46BEE3" transform="translate(0,0)"/>
<path d="" fill="#4ABDDE" transform="translate(0,0)"/>
<path d="" fill="#47BEDD" transform="translate(0,0)"/>
<path d="M0 0 C2 1 2 1 2 1 Z " fill="#52B9DB" transform="translate(22,117)"/>
<path d="" fill="#4EBADF" transform="translate(0,0)"/>
<path d="M0 0 C2 1 2 1 2 1 Z " fill="#49BDE2" transform="translate(32,116)"/>
<path d="" fill="#4ABDDD" transform="translate(0,0)"/>
<path d="" fill="#49BCE7" transform="translate(0,0)"/>
<path d="M0 0 C2 1 2 1 2 1 Z " fill="#4DBAE6" transform="translate(37,114)"/>
<path d="M0 0 C2 1 2 1 2 1 Z " fill="#4CBCDF" transform="translate(39,113)"/>
<path d="" fill="#4DBAE2" transform="translate(0,0)"/>
<path d="M0 0 C2 1 2 1 2 1 Z " fill="#4DB9E1" transform="translate(7,82)"/>
<path d="" fill="#4BBAE7" transform="translate(0,0)"/>
<path d="" fill="#48BDE2" transform="translate(0,0)"/>
<path d="" fill="#4BBBE1" transform="translate(0,0)"/>
<path d="" fill="#47BCE2" transform="translate(0,0)"/>
<path d="" fill="#45BDE8" transform="translate(0,0)"/>
<path d="" fill="#46BEE2" transform="translate(0,0)"/>
<path d="" fill="#4ABAE2" transform="translate(0,0)"/>
<path d="" fill="#4DBCDB" transform="translate(0,0)"/>
<path d="" fill="#46BFDD" transform="translate(0,0)"/>
<path d="" fill="#49BBE2" transform="translate(0,0)"/>
<path d="" fill="#4CBAE0" transform="translate(0,0)"/>
<path d="" fill="#48BCDF" transform="translate(0,0)"/>
<path d="" fill="#44BDE4" transform="translate(0,0)"/>
<path d="" fill="#4ABBDC" transform="translate(0,0)"/>
<path d="" fill="#52B7E4" transform="translate(0,0)"/>
<path d="" fill="#4EB9DD" transform="translate(0,0)"/>
<path d="" fill="#48BDDF" transform="translate(0,0)"/>
<path d="" fill="#4ABAE1" transform="translate(0,0)"/>
<path d="" fill="#4BBCDC" transform="translate(0,0)"/>
<path d="" fill="#4ABBE0" transform="translate(0,0)"/>
<path d="" fill="#49BDE2" transform="translate(0,0)"/>
<path d="" fill="#4BBBDD" transform="translate(0,0)"/>
<path d="" fill="#4BB9E4" transform="translate(0,0)"/>
<path d="" fill="#52B9D5" transform="translate(0,0)"/>
<path d="M0 0 C2 1 2 1 2 1 Z " fill="#49BCD8" transform="translate(100,11)"/>
<path d="M0 0 C2 1 2 1 2 1 Z " fill="#49B9E0" transform="translate(29,11)"/>
<path d="M0 0 C2 1 2 1 2 1 Z " fill="#57B4DE" transform="translate(96,8)"/>
<path d="M0 0 C2 1 2 1 2 1 Z " fill="#4DB9DE" transform="translate(33,8)"/>
<path d="M0 0 C2 1 2 1 2 1 Z " fill="#49BBDD" transform="translate(93,6)"/>
<path d="M0 0 C2 1 2 1 2 1 Z " fill="#46BDDE" transform="translate(36,6)"/>
<path d="M0 0 C2 1 2 1 2 1 Z " fill="#4CB9E0" transform="translate(91,5)"/>
<path d="M0 0 C2 1 2 1 2 1 Z " fill="#4CB7EC" transform="translate(38,5)"/>
<path d="M0 0 C2 1 2 1 2 1 Z " fill="#50B6E2" transform="translate(89,4)"/>
<path d="M0 0 C2 1 2 1 2 1 Z " fill="#4FB8DF" transform="translate(40,4)"/>
<path d="M0 0 C2 1 2 1 2 1 Z " fill="#4DB8E2" transform="translate(87,3)"/>
<path d="M0 0 C2 1 2 1 2 1 Z " fill="#48BBE0" transform="translate(42,3)"/>
<path d="M0 0 C2 1 2 1 2 1 Z " fill="#51B7DE" transform="translate(85,2)"/>
<path d="" fill="#4ABDE1" transform="translate(0,0)"/>
<path d="" fill="#48BCE7" transform="translate(0,0)"/>
<path d="" fill="#52B8E1" transform="translate(0,0)"/>
<path d="" fill="#4ABCE3" transform="translate(0,0)"/>
<path d="" fill="#48BCE9" transform="translate(0,0)"/>
<path d="" fill="#4BBDDB" transform="translate(0,0)"/>
<path d="" fill="#47BFDD" transform="translate(0,0)"/>
<path d="" fill="#43C0DF" transform="translate(0,0)"/>
<path d="" fill="#47BEE1" transform="translate(0,0)"/>
<path d="" fill="#4FBADF" transform="translate(0,0)"/>
<path d="" fill="#4DBBDF" transform="translate(0,0)"/>
<path d="" fill="#45BFE3" transform="translate(0,0)"/>
<path d="" fill="#42C1E1" transform="translate(0,0)"/>
<path d="" fill="#43BFE5" transform="translate(0,0)"/>
<path d="" fill="#60B2DD" transform="translate(0,0)"/>
<path d="" fill="#4FB8DE" transform="translate(0,0)"/>
<path d="" fill="#44BEDE" transform="translate(0,0)"/>
<path d="" fill="#4ABCD8" transform="translate(0,0)"/>
<path d="" fill="#4ABCD8" transform="translate(0,0)"/>
<path d="" fill="#42BFDC" transform="translate(0,0)"/>
<path d="" fill="#4FB7E4" transform="translate(0,0)"/>
<path d="" fill="#45BDE2" transform="translate(0,0)"/>
<path d="" fill="#47BCE0" transform="translate(0,0)"/>
<path d="" fill="#47BDDE" transform="translate(0,0)"/>
<path d="" fill="#48BDE5" transform="translate(0,0)"/>
<path d="" fill="#4ABBDC" transform="translate(0,0)"/>
<path d="" fill="#4CB9E2" transform="translate(0,0)"/>
<path d="" fill="#49BBE2" transform="translate(0,0)"/>
<path d="" fill="#4ABBDE" transform="translate(0,0)"/>
<path d="" fill="#4ABCDA" transform="translate(0,0)"/>
<path d="" fill="#4CB9E2" transform="translate(0,0)"/>
<path d="" fill="#61B4C6" transform="translate(0,0)"/>
<path d="" fill="#4BB9ED" transform="translate(0,0)"/>
<path d="" fill="#4ABBDC" transform="translate(0,0)"/>
<path d="" fill="#4FB9E5" transform="translate(0,0)"/>
<path d="" fill="#4ABBE0" transform="translate(0,0)"/>
<path d="" fill="#4CBBD8" transform="translate(0,0)"/>
<path d="" fill="#4ABAE4" transform="translate(0,0)"/>
<path d="" fill="#44BDE2" transform="translate(0,0)"/>
<path d="" fill="#49BBE4" transform="translate(0,0)"/>
<path d="" fill="#51B7E2" transform="translate(0,0)"/>
<path d="" fill="#51B7E2" transform="translate(0,0)"/>
<path d="" fill="#47BBDD" transform="translate(0,0)"/>
<path d="" fill="#47BBE4" transform="translate(0,0)"/>
<path d="" fill="#4CB7E1" transform="translate(0,0)"/>
<path d="" fill="#42BFE0" transform="translate(0,0)"/>
<path d="" fill="#49B9E3" transform="translate(0,0)"/>
<path d="" fill="#4DBAD8" transform="translate(0,0)"/>
<path d="" fill="#4FB6DF" transform="translate(0,0)"/>
<path d="" fill="#4CB9E2" transform="translate(0,0)"/>
<path d="" fill="#4ABAE2" transform="translate(0,0)"/>
<path d="" fill="#57B7D2" transform="translate(0,0)"/>
<path d="" fill="#4ABBDC" transform="translate(0,0)"/>
</svg>
