<?xml version="1.0" encoding="UTF-8"?>
<svg version="1.1" xmlns="http://www.w3.org/2000/svg" width="128" height="128">
<path d="M0 0 C14.19 0 28.38 0 43 0 C43 0.66 43 1.32 43 2 C43.74685059 1.98952637 44.49370117 1.97905273 45.26318359 1.96826172 C48.63375508 1.9267923 52.004273 1.90070271 55.375 1.875 C56.550625 1.85824219 57.72625 1.84148438 58.9375 1.82421875 C60.61972656 1.81455078 60.61972656 1.81455078 62.3359375 1.8046875 C63.37282715 1.79421387 64.4097168 1.78374023 65.47802734 1.77294922 C68 2 68 2 70 4 C70.31884766 5.97119141 70.31884766 5.97119141 70.4140625 8.3515625 C70.45273438 9.20234375 70.49140625 10.053125 70.53125 10.9296875 C70.5621875 11.81914062 70.593125 12.70859375 70.625 13.625 C70.66367188 14.5221875 70.70234375 15.419375 70.7421875 16.34375 C70.83658776 18.56215605 70.91938805 20.78105013 71 23 C72.98 19.7 74.96 16.4 77 13 C81.47851553 13.89570311 82.77175056 14.25000973 86 17 C84.74264484 20.49922169 83.32102536 23.06981633 80.9609375 25.9296875 C71.53880439 38.5086267 69.70072983 49.08966512 69.75 64.4375 C69.74297058 65.30187683 69.73594116 66.16625366 69.72869873 67.05682373 C69.48102594 76.70433281 69.48102594 76.70433281 72.57836914 85.57299805 C74.3716637 87.42743804 74.3716637 87.42743804 76.32348633 88.73681641 C79.36561953 91.02893774 80.23059709 94.38865843 81 98 C81.79458155 103.74113149 80.86128003 108.94473493 78 114 C74.1821064 118.93267908 70.08280344 122.30479249 64 124 C53.89868174 124.8339304 53.89868174 124.8339304 49.7212677 122.99914551 C46.52646859 121.82613736 43.99320715 121.7350394 40.5925293 121.71289062 C38.67980476 121.69276917 38.67980476 121.69276917 36.72843933 121.67224121 C35.71353959 121.66839668 35.71353959 121.66839668 34.67813683 121.66447449 C32.54564699 121.65613831 30.41357585 121.63558879 28.28120422 121.61193848 C23.75003224 121.56383833 19.21881794 121.53085061 14.6875 121.5 C9.44358546 121.46420679 4.19987561 121.42206554 -1.04384422 121.36405945 C-3.13312496 121.34415636 -5.22224451 121.33570427 -7.31159973 121.32775879 C-20.29250552 121.19220763 -20.29250552 121.19220763 -26 119 C-27.91313028 116.11161809 -28.25195814 113.78373437 -28.26069641 110.36314392 C-28.26778122 109.4364238 -28.27486603 108.50970367 -28.28216553 107.55490112 C-28.27968811 106.54541412 -28.27721069 105.53592712 -28.2746582 104.49584961 C-28.27976913 103.42719162 -28.28488007 102.35853363 -28.29014587 101.25749207 C-28.30405513 97.7223858 -28.3030844 94.18747414 -28.30078125 90.65234375 C-28.30466677 88.19901964 -28.30900114 85.74569621 -28.31376648 83.29237366 C-28.32123108 78.15021585 -28.32093515 73.0081267 -28.31567383 67.8659668 C-28.3098718 61.2658033 -28.32682699 54.66591975 -28.3500185 48.06580257 C-28.36472393 43.00015104 -28.36563201 37.93456748 -28.36250877 32.86889839 C-28.36302336 30.43475349 -28.36828664 28.00060491 -28.37832069 25.56648064 C-28.39060898 22.16905172 -28.38393951 18.77217542 -28.37231445 15.37475586 C-28.37995819 14.36324463 -28.38760193 13.3517334 -28.39547729 12.30957031 C-28.38846298 11.38567001 -28.38144867 10.46176971 -28.3742218 9.50987244 C-28.37438954 8.70665526 -28.37455729 7.90343809 -28.37473011 7.075881 C-27.90412999 4.4689118 -27.09379931 3.58109276 -25 2 C-22.36450195 1.65942383 -22.36450195 1.65942383 -19.23828125 1.70703125 C-18.12001953 1.71669922 -17.00175781 1.72636719 -15.84960938 1.73632812 C-14.09874023 1.7740332 -14.09874023 1.7740332 -12.3125 1.8125 C-11.13365234 1.82603516 -9.95480469 1.83957031 -8.74023438 1.85351562 C-5.82636589 1.88890674 -2.91341055 1.93828191 0 2 C0 1.34 0 0.68 0 0 Z M-1 8 C-6.94 8.33 -12.88 8.66 -19 9 C-19.023121 22.0211064 -19.04091384 35.04220795 -19.05181217 48.06333065 C-19.05704153 54.10887817 -19.06414014 60.1544117 -19.07543945 66.19995117 C-19.08626645 72.02894288 -19.09227643 77.85792109 -19.09487724 83.68692207 C-19.09673183 85.9161761 -19.10035308 88.14542935 -19.10573006 90.37467766 C-19.11293799 93.48539734 -19.11399105 96.59606049 -19.11352539 99.70678711 C-19.11712067 100.63826569 -19.12071594 101.56974426 -19.12442017 102.52944946 C-19.53158811 106.58599247 -19.53158811 106.58599247 -18 110 C-16.31198015 110.09353163 -14.62004793 110.11744791 -12.92944336 110.11352539 C-11.84839828 110.11344986 -10.76735321 110.11337433 -9.65354919 110.11329651 C-8.4775264 110.10813522 -7.3015036 110.10297394 -6.08984375 110.09765625 C-4.89267227 110.0962413 -3.69550079 110.09482635 -2.46205139 110.09336853 C1.37949066 110.08774979 5.22097543 110.07519411 9.0625 110.0625 C11.65950437 110.05748741 14.25650965 110.05292409 16.85351562 110.04882812 C23.23569679 110.03777427 29.6178443 110.02101792 36 110 C35.97679687 109.12537109 35.95359375 108.25074219 35.9296875 107.34960938 C35.91164062 106.19267578 35.89359375 105.03574219 35.875 103.84375 C35.85179687 102.70099609 35.82859375 101.55824219 35.8046875 100.38085938 C36.15228459 94.36395368 38.40077092 89.59922908 42.65625 85.34375 C48.41021573 81.15018176 55.09128567 80.79162352 62 80 C61.67 74.39 61.34 68.78 61 63 C60.34 62.67 59.68 62.34 59 62 C58.6596875 62.56847656 58.319375 63.13695312 57.96875 63.72265625 C54.12013444 69.85382837 49.61847087 75.69076456 43 79 C42.67 77.68 42.34 76.36 42 75 C40.72125 75.020625 39.4425 75.04125 38.125 75.0625 C34.25 75.125 34.25 75.125 32 74 C29.11629667 73.92805131 26.25760336 73.90708292 23.375 73.9375 C22.57320312 73.94201172 21.77140625 73.94652344 20.9453125 73.95117188 C18.96350994 73.96296832 16.98174567 73.98090395 15 74 C15.33 73.67 15.66 73.34 16 73 C15.01 72.505 15.01 72.505 14 72 C14 70.68 14 69.36 14 68 C14.85529297 68.14139404 15.71058594 68.28278809 16.59179688 68.4284668 C32.95460017 70.96292927 32.95460017 70.96292927 48.03857422 65.86572266 C59.2132415 53.95579649 62.3439945 39.18324677 62 23.3125 C61.82942274 18.52208266 61.4438984 13.77499046 61 9 C55.06 8.67 49.12 8.34 43 8 C43 8.66 43 9.32 43 10 C41.68 10 40.36 10 39 10 C38.67 11.32 38.34 12.64 38 14 C37.39671875 14.09796875 36.7934375 14.1959375 36.171875 14.296875 C31.01102651 15.15264755 31.01102651 15.15264755 26.875 18.125 C25 20 25 20 21.5625 20.5 C17.39764016 19.91545827 16.17994261 18.63702558 13 16 C10.34652277 15.09563136 7.75672513 14.56068986 5 14 C4.67 12.68 4.34 11.36 4 10 C2.68 10 1.36 10 0 10 C-0.33 9.34 -0.66 8.68 -1 8 Z M9 10 C9 10.33 9 10.66 9 11 C10.093125 11.0825 11.18625 11.165 12.3125 11.25 C16.53777627 12.10937822 16.6645667 12.70916217 19 16 C21.5 16.66666667 21.5 16.66666667 24 16 C24.45375 15.360625 24.9075 14.72125 25.375 14.0625 C27 12 27 12 30.6875 11.25 C31.780625 11.1675 32.87375 11.085 34 11 C34 10.67 34 10.34 34 10 C25.75 10 17.5 10 9 10 Z M60 60 C61 62 61 62 61 62 Z M43 72 C44 75 44 75 44 75 Z M32 73 C32 73.33 32 73.66 32 74 C35.3 74 38.6 74 42 74 C42 73.67 42 73.34 42 73 C38.7 73 35.4 73 32 73 Z " fill="#F6C408" transform="translate(39,2)"/>
<path d="M0 0 C1.11826172 0.00966797 2.23652344 0.01933594 3.38867188 0.02929688 C5.13954102 0.06700195 5.13954102 0.06700195 6.92578125 0.10546875 C8.10462891 0.11900391 9.28347656 0.13253906 10.49804688 0.14648438 C13.41191536 0.18187549 16.3248707 0.23125066 19.23828125 0.29296875 C19.28082481 2.29251621 19.27908908 4.29338511 19.23828125 6.29296875 C18.90828125 6.62296875 18.57828125 6.95296875 18.23828125 7.29296875 C12.29828125 7.29296875 6.35828125 7.29296875 0.23828125 7.29296875 C0.56828125 40.29296875 0.89828125 73.29296875 1.23828125 107.29296875 C19.06876284 107.30523692 19.06876284 107.30523692 36.89892578 107.23046875 C39.13967548 107.24815597 41.38040469 107.26879046 43.62109375 107.29296875 C44.77794678 107.27363281 45.9347998 107.25429687 47.12670898 107.234375 C55.1596622 107.37356414 55.1596622 107.37356414 58.28216553 110.03515625 C59.8184583 112.05815112 61.05026132 114.05162998 62.23828125 116.29296875 C63.22828125 117.77796875 63.22828125 117.77796875 64.23828125 119.29296875 C56.16228186 119.33945888 48.08633909 119.37492224 40.01023865 119.39659309 C36.25954435 119.40699783 32.50894211 119.421096 28.75830078 119.44384766 C25.13377995 119.46569484 21.50934726 119.47756223 17.88476562 119.48272324 C16.5069846 119.4863978 15.129208 119.49357292 13.75146484 119.50442886 C-0.73357902 119.61394904 -0.73357902 119.61394904 -6.76171875 117.29296875 C-8.67558988 114.40502521 -9.01367699 112.07666399 -9.02241516 108.65611267 C-9.02949997 107.72939255 -9.03658478 106.80267242 -9.04388428 105.84786987 C-9.04140686 104.83838287 -9.03892944 103.82889587 -9.03637695 102.78881836 C-9.04148788 101.72016037 -9.04659882 100.65150238 -9.05186462 99.55046082 C-9.06577388 96.01535455 -9.06480315 92.48044289 -9.0625 88.9453125 C-9.06638552 86.49198839 -9.07071989 84.03866496 -9.07548523 81.58534241 C-9.08294983 76.4431846 -9.0826539 71.30109545 -9.07739258 66.15893555 C-9.07159055 59.55877205 -9.08854574 52.9588885 -9.11173725 46.35877132 C-9.12644268 41.29311979 -9.12735076 36.22753623 -9.12422752 31.16186714 C-9.12474211 28.72772224 -9.13000539 26.29357366 -9.14003944 23.85944939 C-9.15232773 20.46202047 -9.14565826 17.06514417 -9.1340332 13.66772461 C-9.14167694 12.65621338 -9.14932068 11.64470215 -9.15719604 10.60253906 C-9.15018173 9.67863876 -9.14316742 8.75473846 -9.13594055 7.80284119 C-9.13610829 6.99962401 -9.13627604 6.19640684 -9.13644886 5.36884975 C-8.19522489 0.15477996 -4.65392992 -0.07087203 0 0 Z " fill="#49BBE1" transform="translate(19.76171875,3.70703125)"/>
<path d="M0 0 C0.99386719 0.00902344 1.98773438 0.01804687 3.01171875 0.02734375 C4.15060547 0.04474609 4.15060547 0.04474609 5.3125 0.0625 C5.3125 0.7225 5.3125 1.3825 5.3125 2.0625 C6.1375 1.918125 6.9625 1.77375 7.8125 1.625 C13.04698541 2.27931068 15.78014275 5.31132416 19.3125 9.0625 C23.18111079 14.42863755 23.94593811 19.50103727 23.3125 26.0625 C21.94892237 32.63019043 18.52076865 36.95242579 13.3125 41.0625 C7.29886059 44.71784944 1.16139519 44.85697184 -5.6875 44.0625 C-13.24673191 42.02535106 -18.18581128 36.19572484 -22.125 29.6875 C-23.73048804 22.19522247 -23.10230139 16.0924753 -19.38671875 9.33203125 C-14.56011624 2.88546559 -7.88854714 -0.09280644 0 0 Z " fill="#F6C504" transform="translate(96.6875,81.9375)"/>
<path d="M0 0 C14.19 0 28.38 0 43 0 C43 3.3 43 6.6 43 10 C41.68 10 40.36 10 39 10 C38.814375 11.2065625 38.814375 11.2065625 38.625 12.4375 C38.41875 13.283125 38.2125 14.12875 38 15 C35.04335481 16.4783226 32.25770263 16.06032783 29 16 C28.71125 16.639375 28.4225 17.27875 28.125 17.9375 C27 20 27 20 25 21 C18.76470588 21.58823529 18.76470588 21.58823529 15.5625 19.125 C14.716875 18.42375 13.87125 17.7225 13 17 C10.34652277 16.09563136 7.75672513 15.56068986 5 15 C4.67 13.35 4.34 11.7 4 10 C2.68 10 1.36 10 0 10 C0 6.7 0 3.4 0 0 Z M9 10 C9 10.33 9 10.66 9 11 C10.093125 11.0825 11.18625 11.165 12.3125 11.25 C16.53777627 12.10937822 16.6645667 12.70916217 19 16 C21.5 16.66666667 21.5 16.66666667 24 16 C24.45375 15.360625 24.9075 14.72125 25.375 14.0625 C27 12 27 12 30.6875 11.25 C31.780625 11.1675 32.87375 11.085 34 11 C34 10.67 34 10.34 34 10 C25.75 10 17.5 10 9 10 Z " fill="#F7C502" transform="translate(39,2)"/>
<path d="M0 0 C0.99 0.33 1.98 0.66 3 1 C3 1.66 3 2.32 3 3 C2.34 3.66 1.68 4.32 1 5 C1.99 5.66 2.98 6.32 4 7 C3.33333333 9.66666667 2.66666667 12.33333333 2 15 C1.34 15 0.68 15 0 15 C0.12375 15.804375 0.2475 16.60875 0.375 17.4375 C-0.3949606 24.75212571 -6.09893366 30.72012978 -11.25390625 35.69140625 C-13.72263279 37.54157043 -15.95604553 37.92575721 -19 38 C-19 36.68 -19 35.36 -19 34 C-20.98 34 -22.96 34 -25 34 C-25.33 34.66 -25.66 35.32 -26 36 C-26 35.34 -26 34.68 -26 34 C-32.6 34 -39.2 34 -46 34 C-46 31.69 -46 29.38 -46 27 C-35.77 27 -25.54 27 -15 27 C-14.34 25.35 -13.68 23.7 -13 22 C-12.0198038 20.21465467 -11.00430674 18.4483966 -9.9609375 16.69921875 C-9.38085938 15.72275391 -8.80078125 14.74628906 -8.203125 13.74023438 C-7.59984375 12.73283203 -6.9965625 11.72542969 -6.375 10.6875 C-5.76398438 9.66076172 -5.15296875 8.63402344 -4.5234375 7.57617188 C-3.01880606 5.04886125 -1.5109006 2.52356601 0 0 Z M-17 31 C-16 34 -16 34 -16 34 Z M-28 32 C-28 32.33 -28 32.66 -28 33 C-24.7 33 -21.4 33 -18 33 C-18 32.67 -18 32.34 -18 32 C-21.3 32 -24.6 32 -28 32 Z " fill="#F5C308" transform="translate(99,43)"/>
<path d="M0 0 C4.12494151 -0.05784708 8.24977944 -0.09354407 12.375 -0.125 C13.550625 -0.14175781 14.72625 -0.15851563 15.9375 -0.17578125 C17.61972656 -0.18544922 17.61972656 -0.18544922 19.3359375 -0.1953125 C20.37282715 -0.20578613 21.4097168 -0.21625977 22.47802734 -0.22705078 C25 0 25 0 27 2 C28.43546734 11.78176632 28.59823192 23.74126207 23.484375 32.390625 C22 34 22 34 18 36 C18 26.43 18 16.86 18 7 C12.45026879 7.03957481 12.45026879 7.03957481 6.90063477 7.09008789 C4.93354026 7.09723091 2.96646379 7.05031893 1 7 C0 6 0 6 -0.0625 2.9375 C-0.041875 1.968125 -0.02125 0.99875 0 0 Z " fill="#4BBCDE" transform="translate(82,4)"/>
<path d="M0 0 C2.64 0 5.28 0 8 0 C8 2.31 8 4.62 8 7 C10.31 7 12.62 7 15 7 C15 9.64 15 12.28 15 15 C12.69 15 10.38 15 8 15 C8 17.31 8 19.62 8 22 C5.03 22 2.06 22 -1 22 C-1 19.69 -1 17.38 -1 15 C-2.98 15 -4.96 15 -7 15 C-7 12.36 -7 9.72 -7 7 C-4.69 7 -2.38 7 0 7 C0 4.69 0 2.38 0 0 Z " fill="#FDF9D4" transform="translate(93,93)"/>
<path d="M0 0 C0.33 0 0.66 0 1 0 C1 12.21 1 24.42 1 37 C-1.31 36.67 -3.62 36.34 -6 36 C-9.6891143 30.46632855 -9.73794726 22.53490182 -9 16 C-7.31581435 10.16807347 -4.2957677 4.2957677 0 0 Z " fill="#4BBDDF" transform="translate(108,48)"/>
<path d="M0 0 C3.41639845 1.9739191 4.72268412 3.18538459 6 6.9375 C6 10.6256376 5.2997943 12.14508294 3 15 C0.45770394 16.92863839 -0.78345018 17.00902291 -4 16.875 C-7.48347614 15.85898613 -8.8334681 14.8887092 -11 12 C-11.9375 9.5625 -11.9375 9.5625 -12 7 C-9.34724559 1.29657803 -6.30525069 -0.75663008 0 0 Z " fill="#4CBBE3" transform="translate(43,28)"/>
<path d="M0 0 C2.83676789 2.12757592 3.85372819 3.57032655 5 6.9375 C5 10 5 10 3.1875 12.8125 C0.63627583 15.36372417 -0.24674984 15.91630554 -3.8125 16.3125 C-7.82232894 15.91937952 -9.28446644 14.94829358 -12 12 C-13.21618932 8.42744388 -13.30710573 6.7507029 -11.875 3.25 C-8.49271773 -0.80873873 -4.97584964 -1.78620243 0 0 Z " fill="#4EBADF" transform="translate(44,68)"/>
<path d="M0 0 C2.46856178 0.06306545 3.80402093 0.24016605 5.859375 1.6328125 C8.28896105 4.23984022 9.17894114 6.07205691 9.25 9.625 C7.99858043 13.01119412 7.20543753 14.48804165 4.1875 16.5 C1.40696893 17.05953192 -1.0325798 17.06511725 -3.8125 16.5 C-6.59375232 14.57451763 -7.54427839 13.19737619 -8.75 10.0625 C-8.8318592 6.70627293 -7.76713467 5.17857344 -5.8125 2.5 C-3.8125 0.5 -3.8125 0.5 0 0 Z " fill="#4BBBE0" transform="translate(39.8125,47.5)"/>
<path d="M0 0 C1.93835966 0.06010418 3.87584491 0.14891717 5.8125 0.25 C6.89144531 0.29640625 7.97039063 0.3428125 9.08203125 0.390625 C12 1 12 1 13.73046875 3.015625 C14.14941406 3.67046875 14.56835938 4.3253125 15 5 C17.5 5.66666667 17.5 5.66666667 20 5 C20.41894531 4.34515625 20.83789062 3.6903125 21.26953125 3.015625 C23 1 23 1 25.91796875 0.390625 C27.53638672 0.32101562 27.53638672 0.32101562 29.1875 0.25 C30.81751953 0.16492187 30.81751953 0.16492187 32.48046875 0.078125 C33.31191406 0.05234375 34.14335938 0.0265625 35 0 C34.625 2.4375 34.625 2.4375 34 5 C31.04335481 6.4783226 28.25770263 6.06032783 25 6 C24.566875 6.9590625 24.566875 6.9590625 24.125 7.9375 C23 10 23 10 21 11 C14.76470588 11.58823529 14.76470588 11.58823529 11.5625 9.125 C10.716875 8.42375 9.87125 7.7225 9 7 C6.34652277 6.09563136 3.75672513 5.56068986 1 5 C0.67 3.35 0.34 1.7 0 0 Z " fill="#4ABAE0" transform="translate(43,12)"/>
<path d="M0 0 C12.54 0 25.08 0 38 0 C37.67 1.65 37.34 3.3 37 5 C31.90970056 5.0740421 26.81971308 5.12855008 21.72900391 5.16479492 C19.99652651 5.1799009 18.26408746 5.20038694 16.53173828 5.22631836 C14.04450022 5.26262321 11.55776674 5.27970765 9.0703125 5.29296875 C8.29317902 5.30845261 7.51604553 5.32393646 6.71536255 5.33988953 C4.53173828 5.34057617 4.53173828 5.34057617 1 5 C0.34 4.01 -0.32 3.02 -1 2 C-0.67 1.34 -0.34 0.68 0 0 Z " fill="#4ABCE2" transform="translate(53,50)"/>
<path d="M0 0 C10.23 0 20.46 0 31 0 C31 1.32 31 2.64 31 4 C30.34 4 29.68 4 29 4 C28.67 6.31 28.34 8.62 28 11 C27.67 9.68 27.34 8.36 27 7 C25.02 7 23.04 7 21 7 C20.67 7.66 20.34 8.32 20 9 C20 8.34 20 7.68 20 7 C13.4 7 6.8 7 0 7 C0 4.69 0 2.38 0 0 Z M18 5 C18 5.33 18 5.66 18 6 C21.3 6 24.6 6 28 6 C28 5.67 28 5.34 28 5 C24.7 5 21.4 5 18 5 Z " fill="#48B8DD" transform="translate(53,70)"/>
<path d="M0 0 C1.51289503 0.00031716 3.0258126 0.01164445 4.53857422 0.03173828 C5.33480194 0.03456818 6.13102966 0.03739807 6.9513855 0.04031372 C9.49882935 0.05152438 12.04592383 0.07663016 14.59326172 0.10205078 C16.31851706 0.11207945 18.04377791 0.1212055 19.76904297 0.12939453 C24.00225086 0.15146656 28.23519702 0.18600212 32.46826172 0.22705078 C33.03076172 2.16455078 33.03076172 2.16455078 33.46826172 4.22705078 C31.44691221 6.24840029 27.34030058 5.41498187 24.56591797 5.43017578 C23.77301865 5.43587585 22.98011932 5.44157593 22.16319275 5.44744873 C20.48275086 5.45691176 18.8022903 5.46343787 17.12182617 5.46728516 C14.54491995 5.47699742 11.96880887 5.50801018 9.39208984 5.53955078 C7.76253731 5.54607985 6.13297905 5.5513307 4.50341797 5.55517578 C3.34242332 5.57369598 3.34242332 5.57369598 2.15797424 5.59259033 C-0.01586914 5.58349609 -0.01586914 5.58349609 -3.53173828 5.22705078 C-4.19173828 4.23705078 -4.85173828 3.24705078 -5.53173828 2.22705078 C-3.53173828 0.22705078 -3.53173828 0.22705078 0 0 Z " fill="#47BBE1" transform="translate(57.53173828125,29.77294921875)"/>
<path d="M0 0 C5.94 0 11.88 0 18 0 C18 0.33 18 0.66 18 1 C12.39 1 6.78 1 1 1 C1.33 32.68 1.66 64.36 2 97 C26.255 97.495 26.255 97.495 51 98 C51 94.37 51 90.74 51 87 C51.33 87 51.66 87 52 87 C52.495 92.94 52.495 92.94 53 99 C35.51 99 18.02 99 0 99 C0 66.33 0 33.66 0 0 Z " fill="#5CB9CC" transform="translate(21,12)"/>
<path d="M0 0 C1.32 0 2.64 0 4 0 C4 2.64 4 5.28 4 8 C5.98 8 7.96 8 10 8 C10 10.31 10 12.62 10 15 C12.64 15 15.28 15 18 15 C18 15.33 18 15.66 18 16 C14.7 16 11.4 16 8 16 C8 15.34 8 14.68 8 14 C4.13892543 16.57404971 4.05680308 18.61020259 3 23 C-1.59506182 19.44984265 -4.76454254 16.52289491 -7 11 C-4.525 11.495 -4.525 11.495 -2 12 C-1.34 8.04 -0.68 4.08 0 0 Z " fill="#EDC61D" transform="translate(82,100)"/>
<path d="M0 0 C12.21 0 24.42 0 37 0 C37 0.33 37 0.66 37 1 C32.545 1.495 32.545 1.495 28 2 C27.67 3.32 27.34 4.64 27 6 C18.09 6 9.18 6 0 6 C0 4.02 0 2.04 0 0 Z " fill="#48BBE3" transform="translate(53,36)"/>
<path d="M0 0 C-0.33 0.66 -0.66 1.32 -1 2 C-3.64 2 -6.28 2 -9 2 C-9.33 3.32 -9.66 4.64 -10 6 C-18.91 6 -27.82 6 -37 6 C-37.33 5.01 -37.66 4.02 -38 3 C-35.4730486 0.4730486 -34.48273119 0.70586434 -30.9765625 0.5859375 C-29.44322266 0.52792969 -29.44322266 0.52792969 -27.87890625 0.46875 C-26.80511719 0.4378125 -25.73132813 0.406875 -24.625 0.375 C-23.07232422 0.31699219 -23.07232422 0.31699219 -21.48828125 0.2578125 C-14.32411919 0.00800361 -7.16797613 -0.04332558 0 0 Z " fill="#4CBBE0" transform="translate(90,56)"/>
<path d="M0 0 C0.99 0 1.98 0 3 0 C3.33 1.98 3.66 3.96 4 6 C6.31 6 8.62 6 11 6 C11 7.98 11 9.96 11 12 C8.69 12 6.38 12 4 12 C4 14.31 4 16.62 4 19 C1.69 19 -0.62 19 -3 19 C-3.33 16.36 -3.66 13.72 -4 11 C-1 10 -1 10 2 11 C2 9.68 2 8.36 2 7 C1.34 7 0.68 7 0 7 C0 4.69 0 2.38 0 0 Z " fill="#FCFCF6" transform="translate(96,95)"/>
<path d="M0 0 C3.82097239 0.53069061 6.06171403 1.49701566 9 4 C7.66511872 7.59391114 6.03977277 10.75490696 4 14 C0.59687262 12.94124926 -2.01353231 11.99097846 -5 10 C-3.66511872 6.40608886 -2.03977277 3.24509304 0 0 Z " fill="#027293" transform="translate(116,15)"/>
<path d="M0 0 C0.33 0 0.66 0 1 0 C1 36.3 1 72.6 1 110 C0.67 110 0.34 110 0 110 C0 73.7 0 37.4 0 0 Z " fill="#49BBE0" transform="translate(9,7)"/>
<path d="M0 0 C0.12375 0.53625 0.2475 1.0725 0.375 1.625 C1.12605683 4.47901595 1.95659229 7.23803841 3 10 C3.66 10.33 4.32 10.66 5 11 C4.278125 11.969375 3.55625 12.93875 2.8125 13.9375 C-0.16666884 18.09131255 -2.59890295 22.4941115 -5 27 C-5.33 25.68 -5.66 24.36 -6 23 C-5.34 23 -4.68 23 -4 23 C-3.2693461 19.01322664 -3.2693461 19.01322664 -3 15 C-4.27219734 12.97022023 -4.27219734 12.97022023 -6 12 C-5.01 11.67 -4.02 11.34 -3 11 C-3.66 10.01 -4.32 9.02 -5 8 C-5 5 -5 5 -2.5 2.3125 C-1.675 1.549375 -0.85 0.78625 0 0 Z " fill="#E4C421" transform="translate(105,35)"/>
<path d="M0 0 C0.78503906 0.00322266 1.57007813 0.00644531 2.37890625 0.00976562 C3.16394531 -0.00634766 3.94898437 -0.02246094 4.7578125 -0.0390625 C7.03515625 -0.04101562 7.03515625 -0.04101562 10.87890625 0.32226562 C11.53890625 1.31226562 12.19890625 2.30226563 12.87890625 3.32226562 C10.25931001 5.94186187 8.33036832 5.61082789 4.7578125 5.64453125 C3.97277344 5.64130859 3.18773437 5.63808594 2.37890625 5.63476562 C1.59386719 5.65087891 0.80882812 5.66699219 0 5.68359375 C-2.27734375 5.68554688 -2.27734375 5.68554688 -6.12109375 5.32226562 C-6.78109375 4.33226563 -7.44109375 3.34226562 -8.12109375 2.32226562 C-5.50149751 -0.29733062 -3.57255582 0.03370336 0 0 Z " fill="#47BBE1" transform="translate(60.12109375,76.677734375)"/>
<path d="M0 0 C0.99 0.33 1.98 0.66 3 1 C3 1.66 3 2.32 3 3 C2.34 3.66 1.68 4.32 1 5 C1.99 5.66 2.98 6.32 4 7 C3.33333333 9.66666667 2.66666667 12.33333333 2 15 C1.34 15 0.68 15 0 15 C-0.33 15.66 -0.66 16.32 -1 17 C-0.67 15.02 -0.34 13.04 0 11 C-1.98 11.33 -3.96 11.66 -6 12 C-4.43358249 7.69235185 -2.31663844 3.93828536 0 0 Z " fill="#F3C504" transform="translate(99,43)"/>
<path d="M0 0 C21.45 0 42.9 0 65 0 C65 0.33 65 0.66 65 1 C43.55 1 22.1 1 0 1 C0 0.67 0 0.34 0 0 Z " fill="#50BBDE" transform="translate(21,124)"/>
<path d="M0 0 C1.34384766 -0.03867188 1.34384766 -0.03867188 2.71484375 -0.078125 C3.48957031 0.03015625 4.26429687 0.1384375 5.0625 0.25 C7.2144437 3.47791555 7.26336443 4.53400809 7.0625 8.25 C8.7125 8.25 10.3625 8.25 12.0625 8.25 C12.0625 8.58 12.0625 8.91 12.0625 9.25 C9.7525 9.25 7.4425 9.25 5.0625 9.25 C5.0625 6.94 5.0625 4.63 5.0625 2.25 C2.4225 2.25 -0.2175 2.25 -2.9375 2.25 C-2.9375 4.56 -2.9375 6.87 -2.9375 9.25 C-5.2475 9.25 -7.5575 9.25 -9.9375 9.25 C-8.6175 8.92 -7.2975 8.59 -5.9375 8.25 C-5.958125 7.115625 -5.97875 5.98125 -6 4.8125 C-5.90742196 -0.46444803 -4.82406603 0.08305422 0 0 Z " fill="#EDC537" transform="translate(95.9375,90.75)"/>
<path d="M0 0 C0.99 0.33 1.98 0.66 3 1 C2.44299928 4.23060419 1.70784878 6.0658223 -1 8 C-3.94886777 8.44233017 -5.37691063 8.41539291 -7.875 6.75 C-9 5 -9 5 -8.6875 2.8125 C-8.460625 2.214375 -8.23375 1.61625 -8 1 C-5.525 1.99 -5.525 1.99 -3 3 C-2.01 2.01 -1.02 1.02 0 0 Z " fill="#DDF8FC" transform="translate(43,32)"/>
<path d="M0 0 C2.125 0.375 2.125 0.375 4 1 C4 1.99 4 2.98 4 4 C1.75 6.25 1.75 6.25 -1 8 C-3.75004514 7.91911632 -4.70586067 7.26262441 -6.75 5.4375 C-7.1625 4.963125 -7.575 4.48875 -8 4 C-7.67 3.01 -7.34 2.02 -7 1 C-5.824375 1.309375 -5.824375 1.309375 -4.625 1.625 C-3.75875 1.74875 -2.8925 1.8725 -2 2 C-1.34 1.34 -0.68 0.68 0 0 Z " fill="#DFFBFB" transform="translate(42,72)"/>
<path d="M0 0 C0.99 0.33 1.98 0.66 3 1 C1.75023244 4.65316671 1.32901247 5.78065836 -2 8 C-4.6875 7.625 -4.6875 7.625 -7 7 C-7 6.34 -7 5.68 -7 5 C-7.66 5 -8.32 5 -9 5 C-8.67 3.68 -8.34 2.36 -8 1 C-6.576875 1.309375 -6.576875 1.309375 -5.125 1.625 C-4.09375 1.74875 -3.0625 1.8725 -2 2 C-1.34 1.34 -0.68 0.68 0 0 Z " fill="#DCF7FD" transform="translate(43,52)"/>
<path d="M0 0 C0.66 0 1.32 0 2 0 C2 3.3 2 6.6 2 10 C-3.28 10 -8.56 10 -14 10 C-14 9.67 -14 9.34 -14 9 C-12.02 9 -10.04 9 -8 9 C-8 8.34 -8 7.68 -8 7 C-6.02 7 -4.04 7 -2 7 C-1.34 4.69 -0.68 2.38 0 0 Z " fill="#E3C635" transform="translate(80,2)"/>
<path d="M0 0 C0.66 0 1.32 0 2 0 C2.33 1.65 2.66 3.3 3 5 C4.65 5 6.3 5 8 5 C8.33 5.99 8.66 6.98 9 8 C11.64 8 14.28 8 17 8 C17 8.33 17 8.66 17 9 C11.39 9 5.78 9 0 9 C0 6.03 0 3.06 0 0 Z " fill="#DDC93B" transform="translate(39,3)"/>
<path d="M0 0 C0.33 0.66 0.66 1.32 1 2 C1.66 2 2.32 2 3 2 C3.3125 4.75 3.3125 4.75 3 8 C0.5 10.375 0.5 10.375 -2 12 C-2 11.34 -2 10.68 -2 10 C-2.66 10 -3.32 10 -4 10 C-4.33 11.32 -4.66 12.64 -5 14 C-5.66 14 -6.32 14 -7 14 C-7 12.02 -7 10.04 -7 8 C-4.69 8 -2.38 8 0 8 C0 5.36 0 2.72 0 0 Z " fill="#F2C52A" transform="translate(108,100)"/>
<path d="M0 0 C5.61 0 11.22 0 17 0 C17 10.23 17 20.46 17 31 C16.67 31 16.34 31 16 31 C16 21.1 16 11.2 16 1 C10.72 1 5.44 1 0 1 C0 0.67 0 0.34 0 0 Z " fill="#60B7CA" transform="translate(82,12)"/>
<path d="M0 0 C14.19 0 28.38 0 43 0 C43 0.33 43 0.66 43 1 C28.81 1 14.62 1 0 1 C0 0.67 0 0.34 0 0 Z " fill="#F6C401" transform="translate(39,0)"/>
<path d="M0 0 C0.99 1.32 1.98 2.64 3 4 C-0.07999946 7.67230705 -2.2482602 8.56802365 -7 9 C-6.82374165 6.62051228 -6.30280227 5.29774151 -4.59765625 3.62109375 C-3.09350908 2.37884514 -1.54870149 1.18623944 0 0 Z " fill="#46B8D8" transform="translate(45,36)"/>
<path d="M0 0 C0.33 0 0.66 0 1 0 C1 12.87 1 25.74 1 39 C0.67 39 0.34 39 0 39 C0 26.13 0 13.26 0 0 Z " fill="#4FBDD8" transform="translate(110,46)"/>
<path d="M0 0 C12.54 0 25.08 0 38 0 C38 0.33 38 0.66 38 1 C25.46 1 12.92 1 0 1 C0 0.67 0 0.34 0 0 Z " fill="#56B8D7" transform="translate(53,48)"/>
<path d="M0 0 C11.88 0 23.76 0 36 0 C36 0.33 36 0.66 36 1 C24.12 1 12.24 1 0 1 C0 0.67 0 0.34 0 0 Z " fill="#5EB3D0" transform="translate(54,28)"/>
<path d="M0 0 C3.77545388 1.09068668 6.47043472 1.9083091 9 5 C7.7625 4.7525 6.525 4.505 5.25 4.25 C3.07896977 3.90427779 3.07896977 3.90427779 1 4 C-1.52590848 5.77154652 -1.52590848 5.77154652 -3 8 C-3 4.42424104 -1.91159393 2.94704065 0 0 Z " fill="#C8C555" transform="translate(110,25)"/>
<path d="M0 0 C1.32 0 2.64 0 4 0 C4 2.64 4 5.28 4 8 C2.68 8 1.36 8 0 8 C0 5.36 0 2.72 0 0 Z " fill="#FAC421" transform="translate(82,100)"/>
<path d="M0 0 C9.9 0 19.8 0 30 0 C30 0.33 30 0.66 30 1 C20.1 1 10.2 1 0 1 C0 0.67 0 0.34 0 0 Z " fill="#56B8D4" transform="translate(53,68)"/>
<path d="M0 0 C0.66 0 1.32 0 2 0 C2 0.66 2 1.32 2 2 C5.62885324 2.15149298 5.62885324 2.15149298 9 1 C9.33 2.32 9.66 3.64 10 5 C5.545 5.495 5.545 5.495 1 6 C0.67 5.34 0.34 4.68 0 4 C0.33 3.34 0.66 2.68 1 2 C0.34 1.67 -0.32 1.34 -1 1 C-0.67 0.67 -0.34 0.34 0 0 Z " fill="#52B9D7" transform="translate(34,57)"/>
<path d="M0 0 C0 1.98 0 3.96 0 6 C-1.32 6.33 -2.64 6.66 -4 7 C-4.33 5.35 -4.66 3.7 -5 2 C-2 0 -2 0 0 0 Z " fill="#53B6C9" transform="translate(39,4)"/>
<path d="M0 0 C8.91 0 17.82 0 27 0 C27 0.33 27 0.66 27 1 C18.09 1 9.18 1 0 1 C0 0.67 0 0.34 0 0 Z " fill="#54B7D8" transform="translate(53,63)"/>
<path d="M0 0 C0.721875 0.185625 1.44375 0.37125 2.1875 0.5625 C5.12826973 1.01995307 7.14103058 0.73516357 10 0 C9.67 1.65 9.34 3.3 9 5 C5.22454612 3.90931332 2.52956528 3.0916909 0 0 Z " fill="#196E74" transform="translate(111,24)"/>
<path d="M0 0 C1.32 0.66 2.64 1.32 4 2 C4 3.65 4 5.3 4 7 C2.0625 6.25 2.0625 6.25 0 5 C-0.8125 2.9375 -0.8125 2.9375 -1 1 C-0.67 0.67 -0.34 0.34 0 0 Z " fill="#CDF4FA" transform="translate(35,33)"/>
<path d="M0 0 C0.33 0 0.66 0 1 0 C1 4.95 1 9.9 1 15 C-1.64 15 -4.28 15 -7 15 C-7 14.67 -7 14.34 -7 14 C-4.69 14 -2.38 14 0 14 C-0.08378906 13.07316406 -0.16757813 12.14632812 -0.25390625 11.19140625 C-0.40666016 9.39509766 -0.40666016 9.39509766 -0.5625 7.5625 C-0.71912109 5.77005859 -0.71912109 5.77005859 -0.87890625 3.94140625 C-0.91886719 2.97074219 -0.95882812 2.00007813 -1 1 C-0.67 0.67 -0.34 0.34 0 0 Z " fill="#A7BA72" transform="translate(98,66)"/>
<path d="M0 0 C0.33 0 0.66 0 1 0 C1 2.31 1 4.62 1 7 C0.01 7 -0.98 7 -2 7 C-2.33 7.66 -2.66 8.32 -3 9 C-3.66 8.67 -4.32 8.34 -5 8 C-1.125 1.125 -1.125 1.125 0 0 Z " fill="#56B8CB" transform="translate(108,48)"/>
<path d="M0 0 C7.92 0 15.84 0 24 0 C24 0.33 24 0.66 24 1 C16.08 1 8.16 1 0 1 C0 0.67 0 0.34 0 0 Z " fill="#66B6CF" transform="translate(83,2)"/>
<path d="M0 0 C7.92 0 15.84 0 24 0 C24 0.33 24 0.66 24 1 C16.08 1 8.16 1 0 1 C0 0.67 0 0.34 0 0 Z " fill="#66B3CA" transform="translate(14,2)"/>
<path d="M0 0 C1.98 0.495 1.98 0.495 4 1 C3.01 1.495 3.01 1.495 2 2 C2 2.66 2 3.32 2 4 C3.32 4.66 4.64 5.32 6 6 C5.01 6.33 4.02 6.66 3 7 C1.68 5.68 0.36 4.36 -1 3 C-0.67 2.01 -0.34 1.02 0 0 Z " fill="#D1F9FD" transform="translate(35,73)"/>
<path d="M0 0 C0.66 0.33 1.32 0.66 2 1 C-0.475 5.455 -0.475 5.455 -3 10 C-3.33 8.68 -3.66 7.36 -4 6 C-3.34 6 -2.68 6 -2 6 C-1.855625 5.195625 -1.71125 4.39125 -1.5625 3.5625 C-1 1 -1 1 0 0 Z " fill="#BECD5F" transform="translate(103,52)"/>
<path d="M0 0 C1.65 0 3.3 0 5 0 C4.67 1.65 4.34 3.3 4 5 C2.35 5.33 0.7 5.66 -1 6 C-0.649375 5.38125 -0.29875 4.7625 0.0625 4.125 C0.371875 3.42375 0.68125 2.7225 1 2 C0.67 1.34 0.34 0.68 0 0 Z " fill="#4EB6CF" transform="translate(73,12)"/>
<path d="M0 0 C0.33 0 0.66 0 1 0 C1.16820551 1.93736701 1.33451095 3.87489906 1.5 5.8125 C1.5928125 6.89144531 1.685625 7.97039063 1.78125 9.08203125 C2 12 2 12 2 15 C1.34 15.66 0.68 16.32 0 17 C0 11.39 0 5.78 0 0 Z " fill="#3BADD0" transform="translate(110,6)"/>
<path d="M0 0 C0.33 0 0.66 0 1 0 C1.21278058 4.46839215 0.59138085 7.82262526 -1 12 C-2.1875 10.5 -2.1875 10.5 -3 8 C-2.27101296 5.21175762 -1.1843275 2.62334908 0 0 Z " fill="#62B9BB" transform="translate(102,57)"/>
<path d="M0 0 C1.98 0 3.96 0 6 0 C5.67 0.99 5.34 1.98 5 3 C3.0625 3.75 3.0625 3.75 1 4 C0.34 3.67 -0.32 3.34 -1 3 C-0.67 2.01 -0.34 1.02 0 0 Z " fill="#54BFE3" transform="translate(35,40)"/>
<path d="M0 0 C1.98 0.495 1.98 0.495 4 1 C3.67 1.99 3.34 2.98 3 4 C0.9375 4.6875 0.9375 4.6875 -1 5 C-0.67 3.35 -0.34 1.7 0 0 Z " fill="#146E80" transform="translate(83,76)"/>
<path d="M0 0 C5.61 0 11.22 0 17 0 C17 0.33 17 0.66 17 1 C11.39 1 5.78 1 0 1 C0 0.67 0 0.34 0 0 Z " fill="#60B3CE" transform="translate(54,83)"/>
<path d="M0 0 C1.32 1.65 2.64 3.3 4 5 C2.68 5.99 1.36 6.98 0 8 C-0.98120464 4.94736336 -0.98120464 3.05263664 0 0 Z " fill="#46B6D3" transform="translate(33,34)"/>
<path d="M0 0 C3.125 -0.1875 3.125 -0.1875 6 0 C6 0.66 6 1.32 6 2 C3.36 2.33 0.72 2.66 -2 3 C-1.34 2.01 -0.68 1.02 0 0 Z " fill="#56B8D8" transform="translate(66,13)"/>
<path d="M0 0 C3.96 0 7.92 0 12 0 C12 0.33 12 0.66 12 1 C8.04 1 4.08 1 0 1 C0 0.67 0 0.34 0 0 Z " fill="#F6C600" transform="translate(91,127)"/>
<path d="M0 0 C2.64 0 5.28 0 8 0 C8 0.66 8 1.32 8 2 C5.36 2 2.72 2 0 2 C0 1.34 0 0.68 0 0 Z " fill="#4DBBDF" transform="translate(36,65)"/>
<path d="M0 0 C2.64 0 5.28 0 8 0 C8 0.66 8 1.32 8 2 C5.36 2 2.72 2 0 2 C0 1.34 0 0.68 0 0 Z " fill="#4ABBDF" transform="translate(36,45)"/>
<path d="M0 0 C2.97 0 5.94 0 9 0 C8.34 0.66 7.68 1.32 7 2 C4.375 1.625 4.375 1.625 2 1 C1.67 1.66 1.34 2.32 1 3 C0.67 2.01 0.34 1.02 0 0 Z " fill="#AEC773" transform="translate(56,13)"/>
<path d="M0 0 C0.33 0 0.66 0 1 0 C1 2.64 1 5.28 1 8 C0.67 8 0.34 8 0 8 C0 5.36 0 2.72 0 0 Z " fill="#EBC132" transform="translate(121,100)"/>
<path d="M0 0 C0 0.99 0 1.98 0 3 C-0.99 3 -1.98 3 -3 3 C-2.01 2.01 -1.02 1.02 0 0 Z " fill="#F8C505" transform="translate(115,118)"/>
<path d="M0 0 C1.98 0.99 1.98 0.99 4 2 C3.67 2.66 3.34 3.32 3 4 C2.01 2.68 1.02 1.36 0 0 Z " fill="#F6C602" transform="translate(112,86)"/>
<path d="M0 0 C2.31 0 4.62 0 7 0 C7 0.33 7 0.66 7 1 C4.69 1 2.38 1 0 1 C0 0.67 0 0.34 0 0 Z " fill="#4CB9DE" transform="translate(57,24)"/>
<path d="M0 0 C1.98 0 3.96 0 6 0 C6 0.33 6 0.66 6 1 C4.02 1 2.04 1 0 1 C0 0.67 0 0.34 0 0 Z " fill="#55B7D7" transform="translate(37,85)"/>
<path d="M0 0 C0.33 0.66 0.66 1.32 1 2 C0.01 3.485 0.01 3.485 -1 5 C-0.67 3.35 -0.34 1.7 0 0 Z " fill="#46B9DD" transform="translate(51,33)"/>
<path d="M0 0 C1.98 0 3.96 0 6 0 C6 0.33 6 0.66 6 1 C4.02 1 2.04 1 0 1 C0 0.67 0 0.34 0 0 Z " fill="#54B5E1" transform="translate(37,26)"/>
<path d="M0 0 C1.98 0 3.96 0 6 0 C6 0.33 6 0.66 6 1 C4.02 1 2.04 1 0 1 C0 0.67 0 0.34 0 0 Z " fill="#5EB3D0" transform="translate(69,19)"/>
<path d="M0 0 C1.98 0 3.96 0 6 0 C6 0.33 6 0.66 6 1 C4.02 1 2.04 1 0 1 C0 0.67 0 0.34 0 0 Z " fill="#57B6D1" transform="translate(46,19)"/>
<path d="M0 0 C0.33 0.66 0.66 1.32 1 2 C-0.65 2 -2.3 2 -4 2 C-2.68 1.34 -1.36 0.68 0 0 Z " fill="#4FB9D5" transform="translate(62,15)"/>
<path d="M0 0 C1.65 0 3.3 0 5 0 C5 0.33 5 0.66 5 1 C3.35 1 1.7 1 0 1 C0 0.67 0 0.34 0 0 Z " fill="#56B7D7" transform="translate(15,123)"/>
<path d="M0 0 C0.99 0.33 1.98 0.66 3 1 C2.34 1 1.68 1 1 1 C0.67 1.66 0.34 2.32 0 3 C0 2.01 0 1.02 0 0 Z " fill="#A3C089" transform="translate(79,13)"/>
<path d="M0 0 C0.99 0 1.98 0 3 0 C2.67 0.99 2.34 1.98 2 3 C2 2.34 2 1.68 2 1 C1.34 0.67 0.68 0.34 0 0 Z " fill="#87BEA6" transform="translate(39,13)"/>
<path d="M0 0 C1 4 1 4 1 4 Z " fill="#F6C30C" transform="translate(120,96)"/>
<path d="M0 0 C0.99 0.33 1.98 0.66 3 1 C2.01 1 1.02 1 0 1 C0 0.67 0 0.34 0 0 Z " fill="#879C29" transform="translate(83,82)"/>
<path d="M0 0 C0.66 0.33 1.32 0.66 2 1 C1.01 1 0.02 1 -1 1 C-0.67 0.67 -0.34 0.34 0 0 Z " fill="#EFC901" transform="translate(91,75)"/>
<path d="M0 0 C1 4 1 4 1 4 Z " fill="#49BBE2" transform="translate(50,74)"/>
<path d="M0 0 C1 4 1 4 1 4 Z " fill="#56BEDD" transform="translate(81,58)"/>
<path d="M0 0 C1 4 1 4 1 4 Z " fill="#49BBE2" transform="translate(50,54)"/>
<path d="M0 0 C0.99 0.495 0.99 0.495 2 1 C1.34 1.66 0.68 2.32 0 3 C0 2.01 0 1.02 0 0 Z " fill="#A3BF6D" transform="translate(92,50)"/>
<path d="M0 0 C1 4 1 4 1 4 Z " fill="#57B5D8" transform="translate(81,38)"/>
<path d="M0 0 C4 1 4 1 4 1 Z " fill="#066F92" transform="translate(116,13)"/>
<path d="M0 0 C3 1 3 1 3 1 Z " fill="#FBC400" transform="translate(103,126)"/>
<path d="M0 0 C3 1 3 1 3 1 Z " fill="#F4C501" transform="translate(88,126)"/>
<path d="" fill="#FBC303" transform="translate(0,0)"/>
<path d="M0 0 C3 1 3 1 3 1 Z " fill="#E9C910" transform="translate(88,81)"/>
<path d="M0 0 C0.66 0.66 1.32 1.32 2 2 C1.34 2 0.68 2 0 2 C0 1.34 0 0.68 0 0 Z " fill="#49BBE2" transform="translate(49,78)"/>
<path d="" fill="#4EB9DA" transform="translate(0,0)"/>
<path d="" fill="#4BBADF" transform="translate(0,0)"/>
<path d="M0 0 C0.66 0.66 1.32 1.32 2 2 C1.34 2 0.68 2 0 2 C0 1.34 0 0.68 0 0 Z " fill="#49BBE2" transform="translate(49,58)"/>
<path d="M0 0 C0.99 0.495 0.99 0.495 2 1 C1.01 1.495 1.01 1.495 0 2 C0 1.34 0 0.68 0 0 Z " fill="#49BBE2" transform="translate(49,52)"/>
<path d="" fill="#49BBDF" transform="translate(0,0)"/>
<path d="M0 0 C0.99 0.495 0.99 0.495 2 1 C1.01 1.495 1.01 1.495 0 2 C0 1.34 0 0.68 0 0 Z " fill="#4ABDE1" transform="translate(49,32)"/>
<path d="" fill="#4FB9D8" transform="translate(0,0)"/>
<path d="" fill="#4DB7E6" transform="translate(0,0)"/>
<path d="M0 0 C2 1 2 1 2 1 Z " fill="#FCC00F" transform="translate(106,125)"/>
<path d="M0 0 C2 1 2 1 2 1 Z " fill="#FFBD28" transform="translate(86,125)"/>
<path d="M0 0 C2 1 2 1 2 1 Z " fill="#FDC307" transform="translate(108,124)"/>
<path d="M0 0 C2 1 2 1 2 1 Z " fill="#46BCDF" transform="translate(13,122)"/>
<path d="" fill="#59B3DF" transform="translate(0,0)"/>
<path d="" fill="#F9C506" transform="translate(0,0)"/>
<path d="" fill="#FFC00A" transform="translate(0,0)"/>
<path d="" fill="#F7C606" transform="translate(0,0)"/>
<path d="" fill="#E7C52C" transform="translate(0,0)"/>
<path d="" fill="#F0C712" transform="translate(0,0)"/>
<path d="" fill="#F7C210" transform="translate(0,0)"/>
<path d="" fill="#F8C600" transform="translate(0,0)"/>
<path d="M0 0 C2 1 2 1 2 1 Z " fill="#F5C00D" transform="translate(81,85)"/>
<path d="M0 0 C2 1 2 1 2 1 Z " fill="#51B7DC" transform="translate(43,84)"/>
<path d="M0 0 C2 1 2 1 2 1 Z " fill="#51B8DB" transform="translate(35,84)"/>
<path d="M0 0 C2 1 2 1 2 1 Z " fill="#D0C937" transform="translate(86,82)"/>
<path d="" fill="#57BCD7" transform="translate(0,0)"/>
<path d="" fill="#4BB9E1" transform="translate(0,0)"/>
<path d="" fill="#ECCA01" transform="translate(0,0)"/>
<path d="" fill="#48BBE2" transform="translate(0,0)"/>
<path d="" fill="#53B7DA" transform="translate(0,0)"/>
<path d="" fill="#44BDE2" transform="translate(0,0)"/>
<path d="" fill="#46BDE2" transform="translate(0,0)"/>
<path d="" fill="#48BCE0" transform="translate(0,0)"/>
<path d="" fill="#F9BF00" transform="translate(0,0)"/>
<path d="" fill="#EFC12A" transform="translate(0,0)"/>
<path d="M0 0 C2 1 2 1 2 1 Z " fill="#4DBBDF" transform="translate(44,67)"/>
<path d="M0 0 C2 1 2 1 2 1 Z " fill="#4DBBDF" transform="translate(34,67)"/>
<path d="" fill="#E5BB04" transform="translate(0,0)"/>
<path d="M0 0 C2 1 2 1 2 1 Z " fill="#4EBDE6" transform="translate(45,63)"/>
<path d="M0 0 C2 1 2 1 2 1 Z " fill="#4DB7E2" transform="translate(33,63)"/>
<path d="" fill="#EDC511" transform="translate(0,0)"/>
<path d="" fill="#49BBE2" transform="translate(0,0)"/>
<path d="" fill="#44BDE2" transform="translate(0,0)"/>
<path d="" fill="#4BB8E7" transform="translate(0,0)"/>
<path d="" fill="#EEC218" transform="translate(0,0)"/>
<path d="" fill="#4EB9DC" transform="translate(0,0)"/>
<path d="" fill="#49BBE2" transform="translate(0,0)"/>
<path d="" fill="#49BCD9" transform="translate(0,0)"/>
<path d="" fill="#52B8D7" transform="translate(0,0)"/>
<path d="" fill="#49BBE2" transform="translate(0,0)"/>
<path d="" fill="#49BBDD" transform="translate(0,0)"/>
<path d="" fill="#48BCE8" transform="translate(0,0)"/>
<path d="" fill="#EDCD22" transform="translate(0,0)"/>
<path d="M0 0 C2 1 2 1 2 1 Z " fill="#48C1DB" transform="translate(45,48)"/>
<path d="M0 0 C2 1 2 1 2 1 Z " fill="#49BDE3" transform="translate(33,48)"/>
<path d="" fill="#FEC102" transform="translate(0,0)"/>
<path d="" fill="#F5C60F" transform="translate(0,0)"/>
<path d="" fill="#FCC501" transform="translate(0,0)"/>
<path d="M0 0 C2 1 2 1 2 1 Z " fill="#49BADB" transform="translate(44,44)"/>
<path d="M0 0 C2 1 2 1 2 1 Z " fill="#4DBCE4" transform="translate(34,44)"/>
<path d="" fill="#F8C30E" transform="translate(0,0)"/>
<path d="M0 0 C2 1 2 1 2 1 Z " fill="#53B7D7" transform="translate(78,43)"/>
<path d="M0 0 C2 1 2 1 2 1 Z " fill="#53B6DC" transform="translate(53,43)"/>
<path d="" fill="#48BBE3" transform="translate(0,0)"/>
<path d="" fill="#4BBCDF" transform="translate(0,0)"/>
<path d="" fill="#F7C609" transform="translate(0,0)"/>
<path d="" fill="#4ABCE2" transform="translate(0,0)"/>
<path d="" fill="#4ABCE2" transform="translate(0,0)"/>
<path d="" fill="#52B8D7" transform="translate(0,0)"/>
<path d="" fill="#FCC404" transform="translate(0,0)"/>
<path d="" fill="#F2C609" transform="translate(0,0)"/>
<path d="" fill="#F7C503" transform="translate(0,0)"/>
<path d="" fill="#C5C949" transform="translate(0,0)"/>
<path d="" fill="#246D60" transform="translate(0,0)"/>
<path d="M0 0 C2 1 2 1 2 1 Z " fill="#4EB6DE" transform="translate(43,27)"/>
<path d="M0 0 C2 1 2 1 2 1 Z " fill="#4FB8DD" transform="translate(35,27)"/>
<path d="" fill="#01708C" transform="translate(0,0)"/>
<path d="" fill="#04718D" transform="translate(0,0)"/>
<path d="M0 0 C2 1 2 1 2 1 Z " fill="#4ABDD1" transform="translate(64,23)"/>
<path d="M0 0 C2 1 2 1 2 1 Z " fill="#53B7DB" transform="translate(55,23)"/>
<path d="" fill="#017584" transform="translate(0,0)"/>
<path d="M0 0 C2 1 2 1 2 1 Z " fill="#4FBAD8" transform="translate(75,18)"/>
<path d="M0 0 C2 1 2 1 2 1 Z " fill="#43BCE8" transform="translate(44,18)"/>
<path d="" fill="#007492" transform="translate(0,0)"/>
<path d="M0 0 C2 1 2 1 2 1 Z " fill="#056F90" transform="translate(120,14)"/>
<path d="" fill="#49BBDD" transform="translate(0,0)"/>
<path d="M0 0 C2 1 2 1 2 1 Z " fill="#51BADC" transform="translate(107,3)"/>
<path d="M0 0 C2 1 2 1 2 1 Z " fill="#52B5E8" transform="translate(12,3)"/>
<path d="" fill="#FCC403" transform="translate(0,0)"/>
<path d="" fill="#F8C701" transform="translate(0,0)"/>
<path d="" fill="#49BBE4" transform="translate(0,0)"/>
<path d="" fill="#51B7E0" transform="translate(0,0)"/>
<path d="" fill="#F7C800" transform="translate(0,0)"/>
<path d="" fill="#F2CB00" transform="translate(0,0)"/>
<path d="" fill="#FEBF0E" transform="translate(0,0)"/>
<path d="" fill="#F4C604" transform="translate(0,0)"/>
<path d="" fill="#F9C500" transform="translate(0,0)"/>
<path d="" fill="#F2C800" transform="translate(0,0)"/>
<path d="" fill="#FAC304" transform="translate(0,0)"/>
<path d="" fill="#EFB300" transform="translate(0,0)"/>
<path d="" fill="#FFC20F" transform="translate(0,0)"/>
<path d="" fill="#ECCA2F" transform="translate(0,0)"/>
<path d="" fill="#E0C934" transform="translate(0,0)"/>
<path d="" fill="#51BAD4" transform="translate(0,0)"/>
<path d="" fill="#51B8DC" transform="translate(0,0)"/>
<path d="" fill="#4AC4E4" transform="translate(0,0)"/>
<path d="" fill="#4CBCD4" transform="translate(0,0)"/>
<path d="" fill="#4ABAE4" transform="translate(0,0)"/>
<path d="" fill="#236A57" transform="translate(0,0)"/>
<path d="" fill="#47BDDA" transform="translate(0,0)"/>
<path d="" fill="#45BBE8" transform="translate(0,0)"/>
<path d="" fill="#137B9C" transform="translate(0,0)"/>
<path d="" fill="#47BCE2" transform="translate(0,0)"/>
<path d="" fill="#42BFDE" transform="translate(0,0)"/>
<path d="" fill="#6EA1A9" transform="translate(0,0)"/>
<path d="" fill="#52BBE5" transform="translate(0,0)"/>
<path d="" fill="#DBBD77" transform="translate(0,0)"/>
<path d="" fill="#49BBE2" transform="translate(0,0)"/>
<path d="" fill="#F2C318" transform="translate(0,0)"/>
<path d="" fill="#EACC00" transform="translate(0,0)"/>
<path d="" fill="#49BBE2" transform="translate(0,0)"/>
<path d="" fill="#49BBE2" transform="translate(0,0)"/>
<path d="" fill="#F4C508" transform="translate(0,0)"/>
<path d="" fill="#44BEE0" transform="translate(0,0)"/>
<path d="" fill="#4BBCE1" transform="translate(0,0)"/>
<path d="" fill="#4ABBDE" transform="translate(0,0)"/>
<path d="" fill="#4DBBE1" transform="translate(0,0)"/>
<path d="" fill="#4CBAE0" transform="translate(0,0)"/>
<path d="" fill="#F1C004" transform="translate(0,0)"/>
<path d="" fill="#4DC0E6" transform="translate(0,0)"/>
<path d="" fill="#4FBAE3" transform="translate(0,0)"/>
<path d="" fill="#4AC1E8" transform="translate(0,0)"/>
<path d="" fill="#49BBE2" transform="translate(0,0)"/>
<path d="" fill="#51C1E9" transform="translate(0,0)"/>
<path d="" fill="#4BB8E3" transform="translate(0,0)"/>
<path d="" fill="#F8C303" transform="translate(0,0)"/>
<path d="" fill="#49BBE2" transform="translate(0,0)"/>
<path d="" fill="#49BBE2" transform="translate(0,0)"/>
<path d="" fill="#BCC08D" transform="translate(0,0)"/>
<path d="" fill="#C3BE89" transform="translate(0,0)"/>
<path d="" fill="#49BBE2" transform="translate(0,0)"/>
<path d="" fill="#49BBE2" transform="translate(0,0)"/>
<path d="" fill="#52BCEA" transform="translate(0,0)"/>
<path d="" fill="#5AB9BB" transform="translate(0,0)"/>
<path d="" fill="#49BBE2" transform="translate(0,0)"/>
<path d="" fill="#4FC8DF" transform="translate(0,0)"/>
<path d="" fill="#49BADD" transform="translate(0,0)"/>
<path d="" fill="#4FBEE8" transform="translate(0,0)"/>
<path d="" fill="#F9C500" transform="translate(0,0)"/>
<path d="" fill="#4ABBDC" transform="translate(0,0)"/>
<path d="" fill="#4BBBE3" transform="translate(0,0)"/>
<path d="" fill="#4CBBDC" transform="translate(0,0)"/>
<path d="" fill="#47BBE4" transform="translate(0,0)"/>
<path d="" fill="#4ABBDC" transform="translate(0,0)"/>
<path d="" fill="#4BBCDF" transform="translate(0,0)"/>
<path d="" fill="#F8C313" transform="translate(0,0)"/>
<path d="" fill="#47BBE4" transform="translate(0,0)"/>
<path d="" fill="#4ABCE3" transform="translate(0,0)"/>
<path d="" fill="#F5C709" transform="translate(0,0)"/>
<path d="" fill="#4FB8E2" transform="translate(0,0)"/>
<path d="" fill="#4ABCE3" transform="translate(0,0)"/>
<path d="" fill="#E4CF02" transform="translate(0,0)"/>
<path d="" fill="#45BDE0" transform="translate(0,0)"/>
<path d="" fill="#45BDE2" transform="translate(0,0)"/>
<path d="" fill="#4CB9E2" transform="translate(0,0)"/>
<path d="" fill="#47B9E5" transform="translate(0,0)"/>
<path d="" fill="#4ABAE4" transform="translate(0,0)"/>
<path d="" fill="#49BBE2" transform="translate(0,0)"/>
<path d="" fill="#45BEDC" transform="translate(0,0)"/>
<path d="" fill="#4ABBDE" transform="translate(0,0)"/>
<path d="" fill="#4ABBDE" transform="translate(0,0)"/>
<path d="" fill="#51BCDA" transform="translate(0,0)"/>
<path d="" fill="#4FBAD8" transform="translate(0,0)"/>
<path d="" fill="#007083" transform="translate(0,0)"/>
<path d="" fill="#3CC0EA" transform="translate(0,0)"/>
<path d="" fill="#4CB9E2" transform="translate(0,0)"/>
<path d="" fill="#067188" transform="translate(0,0)"/>
<path d="" fill="#44BCEA" transform="translate(0,0)"/>
<path d="" fill="#4DBADC" transform="translate(0,0)"/>
<path d="" fill="#4FB8E2" transform="translate(0,0)"/>
<path d="" fill="#4ABCD8" transform="translate(0,0)"/>
<path d="" fill="#067188" transform="translate(0,0)"/>
<path d="" fill="#4FB9DA" transform="translate(0,0)"/>
<path d="" fill="#45BEE5" transform="translate(0,0)"/>
<path d="" fill="#007390" transform="translate(0,0)"/>
<path d="" fill="#4CBADE" transform="translate(0,0)"/>
<path d="" fill="#50BCD5" transform="translate(0,0)"/>
<path d="" fill="#017292" transform="translate(0,0)"/>
<path d="" fill="#007394" transform="translate(0,0)"/>
<path d="" fill="#047190" transform="translate(0,0)"/>
<path d="" fill="#55B7E1" transform="translate(0,0)"/>
<path d="" fill="#3FC0E2" transform="translate(0,0)"/>
<path d="" fill="#F1C129" transform="translate(0,0)"/>
<path d="" fill="#EBC008" transform="translate(0,0)"/>
</svg>
