<?xml version="1.0" encoding="UTF-8"?>
<svg version="1.1" xmlns="http://www.w3.org/2000/svg" width="128" height="128">
<path d="M0 0 C1.08124649 -0.01568527 2.16249298 -0.03137054 3.27650452 -0.04753113 C4.99866432 -0.02460747 4.99866432 -0.02460747 6.75561523 -0.0012207 C7.95226303 -0.00458939 9.14891083 -0.00795807 10.38182068 -0.01142883 C12.9041678 -0.01113063 15.42655173 0.00405709 17.94873047 0.03320312 C21.80540652 0.07290743 25.65864747 0.0538877 29.51538086 0.02807617 C31.9704723 0.03563474 34.42555612 0.04658763 36.88061523 0.0612793 C38.030746 0.0542952 39.18087677 0.0473111 40.36585999 0.04011536 C49.26663867 0.19688493 49.26663867 0.19688493 52.96240234 3.17919922 C55.81582901 6.39656939 56.36687615 7.70856327 56.28686523 11.8659668 C55.93504425 21.04316601 55.93504425 21.04316601 58.98999023 29.36206055 C61.00847026 30.9783206 63.07436808 32.37014783 65.25170898 33.76049805 C69.22263359 39.09642798 69.15003766 45.36305455 68.25170898 51.76049805 C66.21841401 56.93159391 62.92185134 60.73121652 58.25170898 63.76049805 C57.59170898 63.76049805 56.93170898 63.76049805 56.25170898 63.76049805 C56.26281204 64.39863434 56.2739151 65.03677063 56.28535461 65.69424438 C56.39610496 72.34525535 56.47144166 78.99600374 56.52636719 85.64770508 C56.55148739 88.12893313 56.58558968 90.61008736 56.62890625 93.09106445 C56.68966379 96.66074859 56.71794479 100.22945309 56.73999023 103.79956055 C56.76579666 104.90602936 56.79160309 106.01249817 56.81819153 107.15249634 C56.82131577 115.76132785 56.82131577 115.76132785 53.84619141 119.44555664 C50.2928588 122.61603747 48.70959999 122.88844144 44.05517578 122.92163086 C42.97032394 122.9312384 41.88547211 122.94084595 40.76774597 122.95074463 C39.59069595 122.95499451 38.41364594 122.95924438 37.20092773 122.96362305 C35.39178642 122.97217316 35.39178642 122.97217316 33.5460968 122.980896 C30.98972453 122.99035651 28.43334001 122.99688413 25.87695312 123.00073242 C21.96584771 123.01043198 18.05526896 123.04144395 14.14428711 123.07299805 C11.66317045 123.07952849 9.18205001 123.0847788 6.70092773 123.08862305 C5.52995041 123.10096985 4.35897308 123.11331665 3.1525116 123.1260376 C2.05820328 123.1230365 0.96389496 123.1200354 -0.16357422 123.11694336 C-1.12350784 123.12058899 -2.08344147 123.12423462 -3.07246399 123.12799072 C-6.29171302 122.68586557 -8.13727198 121.67087255 -10.74829102 119.76049805 C-12.84570264 116.61438062 -13.00338855 115.85568571 -13.03590393 112.26408386 C-13.04876938 111.34307388 -13.06163483 110.4220639 -13.07489014 109.47314453 C-13.0786969 108.46477539 -13.08250366 107.45640625 -13.08642578 106.41748047 C-13.09796188 105.35378738 -13.10949799 104.2900943 -13.12138367 103.19416809 C-13.1557518 99.66808626 -13.17420431 96.14217953 -13.18969727 92.6159668 C-13.19660017 91.41262506 -13.20350307 90.20928333 -13.21061516 88.9694767 C-13.24647376 82.60188281 -13.27000182 76.23437785 -13.28369141 69.86669922 C-13.30024931 63.28549061 -13.35868428 56.7053546 -13.42683506 50.12450695 C-13.47158421 45.06730124 -13.48518326 40.01035343 -13.49030876 34.95296669 C-13.4982121 32.52682172 -13.51788684 30.10068557 -13.54953194 27.67473412 C-13.59090026 24.27953743 -13.58815816 20.88706055 -13.57470703 17.49169922 C-13.59673187 16.48940277 -13.61875671 15.48710632 -13.64144897 14.45443726 C-13.55297063 7.88222309 -13.55297063 7.88222309 -11.33662319 4.7926302 C-7.82630081 1.52953615 -4.87873329 0.00908778 0 0 Z " fill="#E8F6F7" transform="translate(40.748291015625,2.239501953125)"/>
<path d="M0 0 C1.08124649 -0.01568527 2.16249298 -0.03137054 3.27650452 -0.04753113 C4.99866432 -0.02460747 4.99866432 -0.02460747 6.75561523 -0.0012207 C7.95226303 -0.00458939 9.14891083 -0.00795807 10.38182068 -0.01142883 C12.9041678 -0.01113063 15.42655173 0.00405709 17.94873047 0.03320312 C21.80540652 0.07290743 25.65864747 0.0538877 29.51538086 0.02807617 C31.9704723 0.03563474 34.42555612 0.04658763 36.88061523 0.0612793 C38.030746 0.0542952 39.18087677 0.0473111 40.36585999 0.04011536 C49.26663867 0.19688493 49.26663867 0.19688493 52.96240234 3.17919922 C55.87325633 6.46132135 56.37774213 7.85552693 56.34936523 12.11206055 C56.34453125 13.38823242 56.34453125 13.38823242 56.33959961 14.69018555 C56.32703125 16.02436523 56.32703125 16.02436523 56.31420898 17.38549805 C56.30969727 18.28268555 56.30518555 19.17987305 56.30053711 20.10424805 C56.28873489 22.32306453 56.27227054 24.54174823 56.25170898 26.76049805 C53.61170898 26.43049805 50.97170898 26.10049805 48.25170898 25.76049805 C47.75670898 21.80049805 47.75670898 21.80049805 47.25170898 17.76049805 C30.09170898 17.43049805 12.93170898 17.10049805 -4.74829102 16.76049805 C-4.74829102 44.81049805 -4.74829102 72.86049805 -4.74829102 101.76049805 C12.74170898 101.76049805 30.23170898 101.76049805 48.25170898 101.76049805 C48.25170898 89.88049805 48.25170898 78.00049805 48.25170898 65.76049805 C50.89170898 65.43049805 53.53170898 65.10049805 56.25170898 64.76049805 C56.37865998 71.91362524 56.46612401 79.06646111 56.52636719 86.22045898 C56.55148528 88.65318661 56.58558602 91.08583897 56.62890625 93.51831055 C56.68967342 97.01849964 56.71794681 100.51768954 56.73999023 104.01831055 C56.76579666 105.10290558 56.79160309 106.18750061 56.81819153 107.30496216 C56.82131578 115.74820231 56.82131578 115.74820231 53.84619141 119.43188477 C50.29523443 122.61895804 48.71708132 122.88838809 44.05517578 122.92163086 C42.97032394 122.9312384 41.88547211 122.94084595 40.76774597 122.95074463 C39.59069595 122.95499451 38.41364594 122.95924438 37.20092773 122.96362305 C35.39178642 122.97217316 35.39178642 122.97217316 33.5460968 122.980896 C30.98972453 122.99035651 28.43334001 122.99688413 25.87695312 123.00073242 C21.96584771 123.01043198 18.05526896 123.04144395 14.14428711 123.07299805 C11.66317045 123.07952849 9.18205001 123.0847788 6.70092773 123.08862305 C5.52995041 123.10096985 4.35897308 123.11331665 3.1525116 123.1260376 C2.05820328 123.1230365 0.96389496 123.1200354 -0.16357422 123.11694336 C-1.12350784 123.12058899 -2.08344147 123.12423462 -3.07246399 123.12799072 C-6.29171302 122.68586557 -8.13727198 121.67087255 -10.74829102 119.76049805 C-12.84570264 116.61438062 -13.00338855 115.85568571 -13.03590393 112.26408386 C-13.04876938 111.34307388 -13.06163483 110.4220639 -13.07489014 109.47314453 C-13.0786969 108.46477539 -13.08250366 107.45640625 -13.08642578 106.41748047 C-13.09796188 105.35378738 -13.10949799 104.2900943 -13.12138367 103.19416809 C-13.1557518 99.66808626 -13.17420431 96.14217953 -13.18969727 92.6159668 C-13.19660017 91.41262506 -13.20350307 90.20928333 -13.21061516 88.9694767 C-13.24647376 82.60188281 -13.27000182 76.23437785 -13.28369141 69.86669922 C-13.30024931 63.28549061 -13.35868428 56.7053546 -13.42683506 50.12450695 C-13.47158421 45.06730124 -13.48518326 40.01035343 -13.49030876 34.95296669 C-13.4982121 32.52682172 -13.51788684 30.10068557 -13.54953194 27.67473412 C-13.59090026 24.27953743 -13.58815816 20.88706055 -13.57470703 17.49169922 C-13.59673187 16.48940277 -13.61875671 15.48710632 -13.64144897 14.45443726 C-13.55297063 7.88222309 -13.55297063 7.88222309 -11.33662319 4.7926302 C-7.82630081 1.52953615 -4.87873329 0.00908778 0 0 Z " fill="#4BBBDF" transform="translate(40.748291015625,2.239501953125)"/>
<path d="M0 0 C5.40674484 5.2008768 8.12093866 9.05588815 8.375 16.6875 C8.32368439 22.75007329 6.99501125 26.46867217 3 31 C-2.67763274 36.39375111 -7.68961843 37.2695889 -15.2734375 37.13671875 C-18.5784807 36.97099309 -21.73751739 36.5437471 -25 36 C-25.99 36 -26.98 36 -28 36 C-28.12375 34.88625 -28.2475 33.7725 -28.375 32.625 C-28.6465813 28.96896323 -28.6465813 28.96896323 -31 27 C-33.32858852 19.54851672 -32.67302322 11.82119883 -29.19921875 4.91015625 C-26.88956978 1.23126913 -24.17779804 -0.45218696 -20.3125 -2.25 C-13.12390183 -3.87760713 -6.44647326 -3.89221027 0 0 Z " fill="#F3C225" transform="translate(101,31)"/>
<path d="M0 0 C3.76488042 1.72154788 6.15063897 3.99234114 9 7 C8.34 8.98 7.68 10.96 7 13 C10.3 16.3 13.6 19.6 17 23 C18.65 22.01 20.3 21.02 22 20 C24.31 22.31 26.62 24.62 29 27 C27.02441503 30.95116994 25.04214716 34.09597701 21 36 C17.67285093 36.63887005 16.16108266 36.88674526 13 36 C9.43017982 33.43766908 6.54144239 30.34059875 3.5625 27.125 C2.74845703 26.28324219 1.93441406 25.44148438 1.09570312 24.57421875 C-6.44544378 16.71230579 -6.44544378 16.71230579 -6.43359375 10.2421875 C-5.62562626 6.0640493 -2.77416665 3.10442459 0 0 Z " fill="#3AC20A" transform="translate(51,60)"/>
<path d="M0 0 C3.0625 -0.5 3.0625 -0.5 7 0 C11.44758563 3.74855449 14.66148878 7.73578469 15.2734375 13.63671875 C15.51264713 20.82220813 14.84364327 25.53773924 10 31 C5.60927622 34.98228436 3.24393024 36.13074337 -2.625 36.0625 C-3.62789063 36.05347656 -4.63078125 36.04445312 -5.6640625 36.03515625 C-6.43492188 36.02355469 -7.20578125 36.01195312 -8 36 C-7.57847656 35.5875 -7.15695313 35.175 -6.72265625 34.75 C-2.40797978 30.20182339 -1.2196833 27.26097416 -1 21 C1.64 21 4.28 21 7 21 C7 18.36 7 15.72 7 13 C4.36 13 1.72 13 -1 13 C-1.0272415 11.58344207 -1.04650467 10.16672955 -1.0625 8.75 C-1.07410156 7.96109375 -1.08570312 7.1721875 -1.09765625 6.359375 C-1.00385306 4.09308998 -0.63241063 2.1711105 0 0 Z " fill="#FAC115" transform="translate(94,31)"/>
<path d="M0 0 C8.559375 -0.020625 17.11875 -0.04125 25.9375 -0.0625 C28.64316162 -0.071604 31.34882324 -0.08070801 34.13647461 -0.09008789 C36.26676382 -0.09300685 38.39705358 -0.09555545 40.52734375 -0.09765625 C41.64500122 -0.10277222 42.76265869 -0.10788818 43.91418457 -0.11315918 C45.49761658 -0.11334045 45.49761658 -0.11334045 47.11303711 -0.11352539 C48.03459091 -0.115746 48.95614471 -0.11796661 49.90562439 -0.12025452 C52 0 52 0 53 1 C53.04092937 3.33297433 53.04241723 5.66705225 53 8 C52.34 8 51.68 8 51 8 C51 6.02 51 4.04 51 2 C34.83 2 18.66 2 2 2 C2 29.06 2 56.12 2 84 C18.17 84 34.34 84 51 84 C51 72.78 51 61.56 51 50 C51.66 50 52.32 50 53 50 C53 61.55 53 73.1 53 85 C35.51 85 18.02 85 0 85 C0 56.95 0 28.9 0 0 Z " fill="#C6F2FD" transform="translate(36,19)"/>
<path d="M0 0 C2.97 0 5.94 0 9 0 C9 2.64 9 5.28 9 8 C11.64 8 14.28 8 17 8 C17 10.64 17 13.28 17 16 C14.36 16 11.72 16 9 16 C9 18.64 9 21.28 9 24 C6.03 24 3.06 24 0 24 C0 21.36 0 18.72 0 16 C-2.64 16 -5.28 16 -8 16 C-8 13.03 -8 10.06 -8 7 C-5.36 7 -2.72 7 0 7 C0 4.69 0 2.38 0 0 Z " fill="#FEF8E1" transform="translate(84,36)"/>
<path d="M0 0 C2 2 2 2 2.1953125 4.3828125 C2.17210938 5.28773437 2.14890625 6.19265625 2.125 7.125 C2.10695313 8.03507812 2.08890625 8.94515625 2.0703125 9.8828125 C2.04710938 10.58148438 2.02390625 11.28015625 2 12 C4.97 12 7.94 12 11 12 C11.1953125 14.21354167 11.390625 16.42708333 11.5859375 18.640625 C11.95029348 21.37704633 11.95029348 21.37704633 14 25 C10.04 25 6.08 25 2 25 C1.34 22.03 0.68 19.06 0 16 C-0.66 16 -1.32 16 -2 16 C-2.05384521 13.70858714 -2.09272087 11.41681812 -2.125 9.125 C-2.14820312 7.84882812 -2.17140625 6.57265625 -2.1953125 5.2578125 C-2 2 -2 2 0 0 Z " fill="#FCC00F" transform="translate(73,40)"/>
<path d="M0 0 C0.33 0 0.66 0 1 0 C1 5.28 1 10.56 1 16 C1.66 16 2.32 16 3 16 C4.49821059 19.37097383 5 21.20442119 5 25 C6.051875 24.814375 7.10375 24.62875 8.1875 24.4375 C11.57119882 24.04920669 13.76425888 24.11752515 17 25 C16.01 23.35 15.02 21.7 14 20 C16.64 20 19.28 20 22 20 C20.84826645 22.46800047 19.95216435 24.04783565 18 26 C19.98 26.33 21.96 26.66 24 27 C24 27.33 24 27.66 24 28 C17.87593228 28.09966837 12.04326214 28.00721036 6 27 C5.01 27 4.02 27 3 27 C2.87625 25.88625 2.7525 24.7725 2.625 23.625 C2.3534187 19.96896323 2.3534187 19.96896323 0 18 C-1.73007829 12.46374947 -1.82791537 5.48374611 0 0 Z " fill="#EFC13A" transform="translate(70,40)"/>
<path d="M0 0 C2.475 0.495 2.475 0.495 5 1 C4.67 2.65 4.34 4.3 4 6 C-0.7289347 6.99440216 -5.09270118 6.96565891 -9.875 6.5625 C-10.56335937 6.51029297 -11.25171875 6.45808594 -11.9609375 6.40429688 C-13.64112758 6.27594902 -15.32064749 6.13887775 -17 6 C-17 4.35 -17 2.7 -17 1 C-12.38 1 -7.76 1 -3 1 C-3 2.32 -3 3.64 -3 5 C-2.34 5 -1.68 5 -1 5 C-0.67 3.35 -0.34 1.7 0 0 Z " fill="#4AB2B6" transform="translate(66,9)"/>
<path d="M0 0 C0.70125 0.01417969 1.4025 0.02835937 2.125 0.04296875 C3.176875 0.05263672 3.176875 0.05263672 4.25 0.0625 C6.125 0.23046875 6.125 0.23046875 8.125 1.23046875 C8.16754356 3.23001621 8.16580783 5.23088511 8.125 7.23046875 C7.125 8.23046875 7.125 8.23046875 4.83984375 8.328125 C3.46505859 8.31072266 3.46505859 8.31072266 2.0625 8.29296875 C1.14339844 8.28394531 0.22429688 8.27492188 -0.72265625 8.265625 C-1.43292969 8.25402344 -2.14320312 8.24242188 -2.875 8.23046875 C-3.5 5.35546875 -3.5 5.35546875 -3.875 2.23046875 C-1.875 0.23046875 -1.875 0.23046875 0 0 Z " fill="#D1C659" transform="translate(59.875,109.76953125)"/>
<path d="M0 0 C0.33 0 0.66 0 1 0 C1 28.71 1 57.42 1 87 C0.67 87 0.34 87 0 87 C0 58.29 0 29.58 0 0 Z " fill="#52B7DE" transform="translate(26,22)"/>
<path d="M0 0 C1.875 0.3125 1.875 0.3125 4 1 C4.66 1.99 5.32 2.98 6 4 C7.98465333 4.0650706 9.97290393 4.11857216 11.95703125 4.0390625 C14.41077919 3.99214571 16.62490098 4.40622524 19 5 C18 8 18 8 16 9 C12.82073273 9.49333458 11.0442654 9.76371815 8 9 C4.92995315 6.66884578 2.3966058 4.01487911 0 1 C0 0.67 0 0.34 0 0 Z " fill="#37C111" transform="translate(56,87)"/>
<path d="M0 0 C18.15 0 36.3 0 55 0 C55 0.33 55 0.66 55 1 C36.85 1 18.7 1 0 1 C0 0.67 0 0.34 0 0 Z " fill="#49BCE2" transform="translate(35,126)"/>
<path d="M0 0 C18.15 0 36.3 0 55 0 C55 0.33 55 0.66 55 1 C36.85 1 18.7 1 0 1 C0 0.67 0 0.34 0 0 Z " fill="#4ABBE2" transform="translate(35,1)"/>
<path d="M0 0 C0.33 0 0.66 0 1 0 C1 16.83 1 33.66 1 51 C0.67 51 0.34 51 0 51 C0 34.17 0 17.34 0 0 Z " fill="#4ABCDE" transform="translate(98,67)"/>
<path d="M0 0 C1.65 0 3.3 0 5 0 C5 1.65 5 3.3 5 5 C4.34 5 3.68 5 3 5 C3 6.32 3 7.64 3 9 C1.35 9 -0.3 9 -2 9 C-1.34 6.03 -0.68 3.06 0 0 Z " fill="#FDC00F" transform="translate(79,31)"/>
<path d="M0 0 C3.96 0 7.92 0 12 0 C12 1.32 12 2.64 12 4 C8.04 4 4.08 4 0 4 C0 2.68 0 1.36 0 0 Z " fill="#D6C653" transform="translate(50,10)"/>
<path d="M0 0 C2.64 0 5.28 0 8 0 C8.07347656 0.90492187 8.07347656 0.90492187 8.1484375 1.828125 C8.22320312 2.62734375 8.29796875 3.4265625 8.375 4.25 C8.44460937 5.03890625 8.51421875 5.8278125 8.5859375 6.640625 C9.01507113 9.085877 9.78600638 10.84836903 11 13 C8.36 12.67 5.72 12.34 3 12 C3.66 11.67 4.32 11.34 5 11 C5.46751788 8.64400765 5.46751788 8.64400765 5.625 5.9375 C5.73714844 4.55884766 5.73714844 4.55884766 5.8515625 3.15234375 C5.90054688 2.44207031 5.94953125 1.73179688 6 1 C4.02 1 2.04 1 0 1 C0 0.67 0 0.34 0 0 Z " fill="#F3C11F" transform="translate(76,52)"/>
<path d="M0 0 C2.31 0 4.62 0 7 0 C7 1.65 7 3.3 7 5 C4.36 5 1.72 5 -1 5 C-0.67 3.35 -0.34 1.7 0 0 Z " fill="#FAC110" transform="translate(60,112)"/>
<path d="M0 0 C1.79260132 0.05995322 3.58425795 0.1487241 5.375 0.25 C6.87160156 0.31960937 6.87160156 0.31960937 8.3984375 0.390625 C11 1 11 1 12.3515625 3.046875 C12.56554687 3.69140625 12.77953125 4.3359375 13 5 C11.68 4.34 10.36 3.68 9 3 C7.68 3.99 6.36 4.98 5 6 C3.35 4.02 1.7 2.04 0 0 Z " fill="#D1FCD1" transform="translate(63,78)"/>
<path d="M0 0 C3.45201639 1.47721422 5.64961936 3.43794001 8.25 6.125 C8.95640625 6.84945312 9.6628125 7.57390625 10.390625 8.3203125 C11.18726562 9.15175781 11.18726562 9.15175781 12 10 C11.01 10.33 10.02 10.66 9 11 C8.34 10.01 7.68 9.02 7 8 C4.94996045 6.80767387 4.94996045 6.80767387 3 6 C3 5.01 3 4.02 3 3 C2.01 2.67 1.02 2.34 0 2 C0 1.34 0 0.68 0 0 Z " fill="#49BF31" transform="translate(56,73)"/>
<path d="M0 0 C1.98 1.65 3.96 3.3 6 5 C5.1875 6.9375 5.1875 6.9375 4 9 C3.01 9.33 2.02 9.66 1 10 C1.020625 9.0925 1.04125 8.185 1.0625 7.25 C1.0110245 4.57327412 0.7784983 2.53011948 0 0 Z " fill="#4BBE24" transform="translate(54,62)"/>
<path d="M0 0 C1.14926266 0.95421808 2.29430541 1.91352045 3.4375 2.875 C4.07558594 3.40867187 4.71367188 3.94234375 5.37109375 4.4921875 C7 6 7 6 8 8 C5.36 8 2.72 8 0 8 C0 5.36 0 2.72 0 0 Z " fill="#CFF6D1" transform="translate(56,88)"/>
<path d="M0 0 C1.17825358 0.90172468 2.34231577 1.82201502 3.5 2.75 C4.1496875 3.26046875 4.799375 3.7709375 5.46875 4.296875 C7 6 7 6 7 10 C6.34 10 5.68 10 5 10 C4.67 8.68 4.34 7.36 4 6 C3.34 6 2.68 6 2 6 C0 3 0 3 0 0 Z " fill="#46BB35" transform="translate(72,80)"/>
<path d="M0 0 C0.66 0 1.32 0 2 0 C2 3.96 2 7.92 2 12 C1.01 12 0.02 12 -1 12 C-1.02698189 10.37509046 -1.04638757 8.75005367 -1.0625 7.125 C-1.07410156 6.22007813 -1.08570313 5.31515625 -1.09765625 4.3828125 C-1 2 -1 2 0 0 Z " fill="#BDF4C2" transform="translate(44,66)"/>
<path d="M0 0 C0.33 0 0.66 0 1 0 C1.33 1.65 1.66 3.3 2 5 C3.98 5 5.96 5 8 5 C8 5.99 8 6.98 8 8 C5.36 8 2.72 8 0 8 C0 5.36 0 2.72 0 0 Z " fill="#F1C537" transform="translate(93,36)"/>
<path d="M0 0 C0.66 0.33 1.32 0.66 2 1 C0.98823563 4.40320742 0.35156418 5.75725331 -2.625 7.8125 C-3.40875 8.204375 -4.1925 8.59625 -5 9 C-3.90931332 5.22454612 -3.0916909 2.52956528 0 0 Z " fill="#F1CA3D" transform="translate(76,31)"/>
<path d="M0 0 C1.65 0 3.3 0 5 0 C4 3 4 3 2 4 C-0.6723621 4.13415472 -3.32250488 4.04318541 -6 4 C-2.25 2 -2.25 2 0 2 C0 1.34 0 0.68 0 0 Z " fill="#44BF2E" transform="translate(70,92)"/>
<path d="M0 0 C2.475 0.495 2.475 0.495 5 1 C5 2.32 5 3.64 5 5 C3.35 5 1.7 5 0 5 C0 3.35 0 1.7 0 0 Z " fill="#AFC789" transform="translate(66,9)"/>
<path d="M0 0 C0.99 0 1.98 0 3 0 C4.60725635 3.21451269 4.05748185 6.43612536 4 10 C4.66 10.33 5.32 10.66 6 11 C5.01 11 4.02 11 3 11 C2.87625 9.9275 2.7525 8.855 2.625 7.75 C2.10356064 4.62136385 1.59911746 2.66519576 0 0 Z " fill="#EBCD5E" transform="translate(70,56)"/>
<path d="M0 0 C0.33 0 0.66 0 1 0 C1.33 6.27 1.66 12.54 2 19 C1.34 19 0.68 19 0 19 C0 12.73 0 6.46 0 0 Z " fill="#54BDD0" transform="translate(98,10)"/>
<path d="M0 0 C4.79280002 0.80904103 6.13520113 3.25984591 9 7 C6 7 6 7 4.39453125 5.46875 C3.87246094 4.8190625 3.35039063 4.169375 2.8125 3.5 C2.28269531 2.8503125 1.75289062 2.200625 1.20703125 1.53125 C0.80871094 1.0259375 0.41039062 0.520625 0 0 Z " fill="#41B729" transform="translate(56,87)"/>
<path d="M0 0 C0.33 0 0.66 0 1 0 C1 3.96 1 7.92 1 12 C0.67 12 0.34 12 0 12 C0 8.04 0 4.08 0 0 Z " fill="#F9C210" transform="translate(110,42)"/>
<path d="M0 0 C0.33 0 0.66 0 1 0 C1 1.65 1 3.3 1 5 C0.67 5 0.34 5 0 5 C0 3.35 0 1.7 0 0 Z " fill="#52B7DE" transform="translate(26,114)"/>
<path d="M0 0 C0.99 0.495 0.99 0.495 2 1 C1.67 1.66 1.34 2.32 1 3 C0.67 2.01 0.34 1.02 0 0 Z " fill="#FFB81A" transform="translate(104,32)"/>
<path d="M0 0 C0.99 0.33 1.98 0.66 3 1 C2.01 1 1.02 1 0 1 C0 0.67 0 0.34 0 0 Z " fill="#FEBC17" transform="translate(101,30)"/>
<path d="M0 0 C1 4 1 4 1 4 Z " fill="#52B7DE" transform="translate(26,9)"/>
<path d="M0 0 C0.99 0.33 1.98 0.66 3 1 C2.01 1 1.02 1 0 1 C0 0.67 0 0.34 0 0 Z " fill="#49BDDF" transform="translate(92,3)"/>
<path d="M0 0 C0.33 0.66 0.66 1.32 1 2 C0.34 1.67 -0.32 1.34 -1 1 C-0.67 0.67 -0.34 0.34 0 0 Z " fill="#4DB8E1" transform="translate(95,121)"/>
<path d="" fill="#F8BD35" transform="translate(0,0)"/>
<path d="" fill="#F8C31A" transform="translate(0,0)"/>
<path d="M0 0 C2 1 2 1 2 1 Z " fill="#56B6D6" transform="translate(90,125)"/>
<path d="M0 0 C2 1 2 1 2 1 Z " fill="#55B7DD" transform="translate(33,125)"/>
<path d="M0 0 C2 1 2 1 2 1 Z " fill="#52B8DA" transform="translate(31,124)"/>
<path d="" fill="#4ABBDF" transform="translate(0,0)"/>
<path d="" fill="#4CBBE1" transform="translate(0,0)"/>
<path d="M0 0 C2 1 2 1 2 1 Z " fill="#E9C343" transform="translate(99,66)"/>
<path d="" fill="#FAC807" transform="translate(0,0)"/>
<path d="" fill="#FDC10E" transform="translate(0,0)"/>
<path d="" fill="#4BBBDC" transform="translate(0,0)"/>
<path d="" fill="#4EB8DE" transform="translate(0,0)"/>
<path d="" fill="#46BEDE" transform="translate(0,0)"/>
<path d="M0 0 C2 1 2 1 2 1 Z " fill="#54B8D8" transform="translate(31,3)"/>
<path d="M0 0 C2 1 2 1 2 1 Z " fill="#56B7DC" transform="translate(90,2)"/>
<path d="M0 0 C2 1 2 1 2 1 Z " fill="#52B9DB" transform="translate(33,2)"/>
<path d="" fill="#49BDDA" transform="translate(0,0)"/>
<path d="" fill="#49BBE4" transform="translate(0,0)"/>
<path d="" fill="#4ABBE0" transform="translate(0,0)"/>
<path d="" fill="#41BEE6" transform="translate(0,0)"/>
<path d="" fill="#4DBBDF" transform="translate(0,0)"/>
<path d="" fill="#47BBE4" transform="translate(0,0)"/>
<path d="" fill="#FEC414" transform="translate(0,0)"/>
<path d="" fill="#FFBD03" transform="translate(0,0)"/>
<path d="" fill="#FCC118" transform="translate(0,0)"/>
<path d="" fill="#EEC62B" transform="translate(0,0)"/>
<path d="" fill="#F2C71B" transform="translate(0,0)"/>
<path d="" fill="#FAC60D" transform="translate(0,0)"/>
<path d="" fill="#FEC215" transform="translate(0,0)"/>
<path d="" fill="#FFBC16" transform="translate(0,0)"/>
<path d="" fill="#FFBD0C" transform="translate(0,0)"/>
<path d="" fill="#EDBF1B" transform="translate(0,0)"/>
<path d="" fill="#49BBE4" transform="translate(0,0)"/>
<path d="" fill="#42BFDC" transform="translate(0,0)"/>
<path d="" fill="#44BDE6" transform="translate(0,0)"/>
<path d="" fill="#4DB9E0" transform="translate(0,0)"/>
</svg>
