<?xml version="1.0" encoding="UTF-8"?>
<svg version="1.1" xmlns="http://www.w3.org/2000/svg" width="128" height="128">
<path d="M0 0 C7.52969652 -0.02526648 15.0593822 -0.04283141 22.58911133 -0.05493164 C25.15291757 -0.0599737 27.71672091 -0.06680714 30.28051758 -0.07543945 C33.95655021 -0.08751064 37.63254498 -0.09322942 41.30859375 -0.09765625 C42.46274277 -0.10281754 43.61689178 -0.10797882 44.80601501 -0.11329651 C46.3975515 -0.11340981 46.3975515 -0.11340981 48.02124023 -0.11352539 C48.96055893 -0.115746 49.89987762 -0.11796661 50.86766052 -0.12025452 C53 0 53 0 54 1 C54.0991657 2.62257544 54.13079777 4.24939831 54.1328125 5.875 C54.13474609 7.35226562 54.13474609 7.35226562 54.13671875 8.859375 C54.13285156 9.89578125 54.12898438 10.9321875 54.125 12 C54.13080078 13.55460938 54.13080078 13.55460938 54.13671875 15.140625 C54.13542969 16.12546875 54.13414063 17.1103125 54.1328125 18.125 C54.13168457 19.03507812 54.13055664 19.94515625 54.12939453 20.8828125 C54 23 54 23 53 24 C50.66702567 24.04092937 48.33294775 24.04241723 46 24 C46.00888245 25.09723389 46.01776489 26.19446777 46.0269165 27.32495117 C46.1081233 37.68256681 46.16802348 48.04011757 46.20724869 58.39797974 C46.22809298 63.72264917 46.2563531 69.04706089 46.30175781 74.37158203 C46.34532794 79.51334149 46.36916085 84.65485358 46.37950897 89.79678345 C46.38688029 91.75513602 46.40127477 93.71347559 46.42292023 95.67172241 C46.45210268 98.4220672 46.45594982 101.17139945 46.45410156 103.921875 C46.47567322 105.12705528 46.47567322 105.12705528 46.49768066 106.35658264 C46.45273118 112.56813201 44.8769848 117.88175541 40.58795547 122.53045654 C35.49624698 127.01831178 30.93193659 128.49642276 24.26953125 128.30859375 C17.89815023 127.44226139 14.07892924 123.38007912 10.1640625 118.5859375 C7.36086439 114.76681524 7.86706953 110.97334855 7.88647461 106.41943359 C7.88632858 105.53156662 7.88618256 104.64369965 7.8860321 103.72892761 C7.88673045 100.78540631 7.89451919 97.84194779 7.90234375 94.8984375 C7.90420821 92.86105382 7.90563198 90.82366969 7.90663147 88.7862854 C7.91045445 83.41702034 7.92028289 78.04778223 7.93133545 72.67852783 C7.94155426 67.2023556 7.9461301 61.72617902 7.95117188 56.25 C7.96190533 45.49998815 7.97897915 34.74999631 8 24 C6.2984375 24.0309375 6.2984375 24.0309375 4.5625 24.0625 C1 24 1 24 0 23 C-0.08713831 21.29227642 -0.10700007 19.58101351 -0.09765625 17.87109375 C-0.09443359 16.83662109 -0.09121094 15.80214844 -0.08789062 14.73632812 C-0.07951172 13.64771484 -0.07113281 12.55910156 -0.0625 11.4375 C-0.05798828 10.34501953 -0.05347656 9.25253906 -0.04882812 8.12695312 C-0.03699826 5.41791505 -0.02051543 2.70898401 0 0 Z " fill="#FAC111" transform="translate(8,0)"/>
<path d="M0 0 C0.66 0 1.32 0 2 0 C3.53710938 2.04101563 3.53710938 2.04101563 5.34375 4.90625 C6.00866455 5.95296875 6.6735791 6.9996875 7.35864258 8.078125 C8.07280424 9.21851471 8.78658262 10.35914452 9.5 11.5 C10.22568009 12.65134151 10.95183714 13.80238254 11.6784668 14.953125 C13.12293136 17.24263437 14.56330938 19.53464843 16.00146484 21.828125 C17.70662189 24.53437963 19.43203603 27.22479282 21.17578125 29.90625 C29.04817023 42.0567457 32.99490131 52.27486165 31 67 C29.82392793 70.75689688 28.23165312 73.77288646 26 77 C25.443125 77.9075 24.88625 78.815 24.3125 79.75 C18.00030477 85.89159536 10.23454352 89.84954344 1.41015625 90.0625 C-7.30803313 89.67122081 -15.84157086 86.32949662 -22 80 C-26.76879556 72.916936 -29.19960241 67.59527002 -29.3125 59 C-29.34150391 58.29488281 -29.37050781 57.58976562 -29.40039062 56.86328125 C-29.53615203 45.22957316 -23.54999309 36.07561532 -17.3125 26.6875 C-15.8788492 24.49482897 -14.44525512 22.30212085 -13.01171875 20.109375 C-12.32255371 19.06330078 -11.63338867 18.01722656 -10.92333984 16.93945312 C-9.26028543 14.39779596 -7.62825975 11.84185244 -6.01953125 9.265625 C-5.39727661 8.27236206 -5.39727661 8.27236206 -4.76245117 7.2590332 C-3.7067932 5.568485 -2.65405457 3.87611478 -1.6015625 2.18359375 C-0.80878906 1.10271484 -0.80878906 1.10271484 0 0 Z " fill="#49BBE1" transform="translate(96,16)"/>
<path d="M0 0 C7.52969652 -0.02526648 15.0593822 -0.04283141 22.58911133 -0.05493164 C25.15291757 -0.0599737 27.71672091 -0.06680714 30.28051758 -0.07543945 C33.95655021 -0.08751064 37.63254498 -0.09322942 41.30859375 -0.09765625 C42.46274277 -0.10281754 43.61689178 -0.10797882 44.80601501 -0.11329651 C46.3975515 -0.11340981 46.3975515 -0.11340981 48.02124023 -0.11352539 C48.96055893 -0.115746 49.89987762 -0.11796661 50.86766052 -0.12025452 C53 0 53 0 54 1 C54.0991657 2.62257544 54.13079777 4.24939831 54.1328125 5.875 C54.13474609 7.35226562 54.13474609 7.35226562 54.13671875 8.859375 C54.13285156 9.89578125 54.12898438 10.9321875 54.125 12 C54.13080078 13.55460938 54.13080078 13.55460938 54.13671875 15.140625 C54.13542969 16.12546875 54.13414063 17.1103125 54.1328125 18.125 C54.13168457 19.03507812 54.13055664 19.94515625 54.12939453 20.8828125 C54 23 54 23 53 24 C50.69 24 48.38 24 46 24 C46 29.94 46 35.88 46 42 C33.46 42 20.92 42 8 42 C8 36.06 8 30.12 8 24 C5.69 24 3.38 24 1 24 C0 23 0 23 -0.11352539 20.77514648 C-0.10828857 19.81680908 -0.10305176 18.85847168 -0.09765625 17.87109375 C-0.09443359 16.83662109 -0.09121094 15.80214844 -0.08789062 14.73632812 C-0.07951172 13.64771484 -0.07113281 12.55910156 -0.0625 11.4375 C-0.05798828 10.34501953 -0.05347656 9.25253906 -0.04882812 8.12695312 C-0.03699826 5.41791505 -0.02051543 2.70898401 0 0 Z " fill="#007392" transform="translate(8,0)"/>
<path d="M0 0 C12.54 0 25.08 0 38 0 C38.0825 4.29 38.165 8.58 38.25 13 C38.28641602 14.33675781 38.32283203 15.67351562 38.36035156 17.05078125 C38.4315152 24.71808915 38.05886503 30.6584803 32.5871582 36.51123047 C27.52901107 41.03561956 22.92135719 42.4961245 16.26953125 42.30859375 C9.89815023 41.44226139 6.07892924 37.38007912 2.1640625 32.5859375 C-0.33728585 29.17806021 -0.11585918 26.64761082 -0.09765625 22.4609375 C-0.09515869 21.28837402 -0.09266113 20.11581055 -0.09008789 18.90771484 C-0.08098389 17.41191895 -0.07187988 15.91612305 -0.0625 14.375 C-0.041875 9.63125 -0.02125 4.8875 0 0 Z " fill="#4BBBE0" transform="translate(16,86)"/>
<path d="M0 0 C12.54 0 25.08 0 38 0 C38 6.27 38 12.54 38 19 C25.46 19 12.92 19 0 19 C0 12.73 0 6.46 0 0 Z " fill="#4EBBDC" transform="translate(16,23)"/>
<path d="M0 0 C2.64 0 5.28 0 8 0 C8 2.31 8 4.62 8 7 C10.31 7 12.62 7 15 7 C15 9.64 15 12.28 15 15 C12.69 15 10.38 15 8 15 C8 17.31 8 19.62 8 22 C5.36 22 2.72 22 0 22 C0 19.69 0 17.38 0 15 C-2.31 15 -4.62 15 -7 15 C-7 12.36 -7 9.72 -7 7 C-4.69 7 -2.38 7 0 7 C0 4.69 0 2.38 0 0 Z " fill="#F3FDFD" transform="translate(93,63)"/>
<path d="M0 0 C6.27 0 12.54 0 19 0 C19 2.31 19 4.62 19 7 C12.73 7 6.46 7 0 7 C0 4.69 0 2.38 0 0 Z " fill="#187176" transform="translate(16,53)"/>
<path d="M0 0 C4.95 0 9.9 0 15 0 C15 2.31 15 4.62 15 7 C10.05 7 5.1 7 0 7 C0 4.69 0 2.38 0 0 Z " fill="#18717A" transform="translate(16,68)"/>
<path d="M0 0 C1.98 0 3.96 0 6 0 C6 29.7 6 59.4 6 90 C5.67 90 5.34 90 5 90 C5 60.63 5 31.26 5 1 C3.35 1 1.7 1 0 1 C0 0.67 0 0.34 0 0 Z " fill="#78AA92" transform="translate(9,25)"/>
<path d="M0 0 C1.98 0 3.96 0 6 0 C6 0.33 6 0.66 6 1 C4.35 1 2.7 1 1 1 C1 29.71 1 58.42 1 88 C0.67 88 0.34 88 0 88 C0 58.96 0 29.92 0 0 Z " fill="#A1B77C" transform="translate(55,25)"/>
<path d="M0 0 C6.93 0 13.86 0 21 0 C21 2.97 21 5.94 21 9 C17.82516555 11.1165563 17.33300995 11.22929149 13.76953125 10.9765625 C12.96708984 10.925 12.16464844 10.8734375 11.33789062 10.8203125 C10.08782227 10.72363281 10.08782227 10.72363281 8.8125 10.625 C7.5450293 10.53992188 7.5450293 10.53992188 6.25195312 10.453125 C4.16728783 10.31179176 2.08353134 10.1571675 0 10 C0 9.34 0 8.68 0 8 C6.27 8 12.54 8 19 8 C19 5.69 19 3.38 19 1 C12.73 1 6.46 1 0 1 C0 0.67 0 0.34 0 0 Z " fill="#D3C047" transform="translate(16,52)"/>
<path d="M0 0 C2.64590014 -0.02684679 5.29153096 -0.04676357 7.9375 -0.0625 C8.69224609 -0.07087891 9.44699219 -0.07925781 10.22460938 -0.08789062 C12.14994313 -0.09652441 14.07535581 -0.05224333 16 0 C17 1 17 1 17.1328125 2.8125 C17.13023438 3.534375 17.12765625 4.25625 17.125 5 C17.12886719 6.0828125 17.12886719 6.0828125 17.1328125 7.1875 C17 9 17 9 16 10 C13.30345146 10.07319621 10.63308542 10.09242537 7.9375 10.0625 C6.79958008 10.05573242 6.79958008 10.05573242 5.63867188 10.04882812 C3.75908129 10.0370068 1.87953101 10.01907078 0 10 C0 9.34 0 8.68 0 8 C4.95 8 9.9 8 15 8 C15 5.69 15 3.38 15 1 C10.05 1 5.1 1 0 1 C0 0.67 0 0.34 0 0 Z " fill="#CCC14E" transform="translate(16,67)"/>
<path d="M0 0 C2.64 0 5.28 0 8 0 C8 2.31 8 4.62 8 7 C10.31 7 12.62 7 15 7 C15 7.33 15 7.66 15 8 C12.03 8 9.06 8 6 8 C5.67 6.02 5.34 4.04 5 2 C4.01 1.67 3.02 1.34 2 1 C2 2.65 2 4.3 2 6 C1.01 6.495 1.01 6.495 0 7 C0 4.69 0 2.38 0 0 Z " fill="#D5FDFD" transform="translate(93,63)"/>
<path d="M0 0 C1.98 0 3.96 0 6 0 C5.01 0.66 4.02 1.32 3 2 C3 2.66 3 3.32 3 4 C2.34 4 1.68 4 1 4 C1 4.99 1 5.98 1 7 C2.98 7 4.96 7 7 7 C7 7.33 7 7.66 7 8 C4.69 8 2.38 8 0 8 C0 5.36 0 2.72 0 0 Z " fill="#D9F7FE" transform="translate(86,70)"/>
<path d="M0 0 C0.33 0 0.66 0 1 0 C1 7.59 1 15.18 1 23 C0.67 23 0.34 23 0 23 C0 15.41 0 7.82 0 0 Z " fill="#136B81" transform="translate(6,0)"/>
<path d="M0 0 C0.33 0 0.66 0 1 0 C1 7.26 1 14.52 1 22 C0.67 22 0.34 22 0 22 C0 14.74 0 7.48 0 0 Z " fill="#146B82" transform="translate(63,1)"/>
<path d="M0 0 C0.99 0 1.98 0 3 0 C2.67 1.32 2.34 2.64 2 4 C1.34 4 0.68 4 0 4 C0 5.98 0 7.96 0 10 C-0.33 10 -0.66 10 -1 10 C-1.02689216 8.52093108 -1.04634621 7.04172517 -1.0625 5.5625 C-1.07410156 4.73878906 -1.08570312 3.91507812 -1.09765625 3.06640625 C-1 1 -1 1 0 0 Z " fill="#5FBDE7" transform="translate(109,68)"/>
<path d="M0 0 C0.33 0 0.66 0 1 0 C1 5.61 1 11.22 1 17 C0.67 17 0.34 17 0 17 C0 11.39 0 5.78 0 0 Z " fill="#49BBDD" transform="translate(65,66)"/>
<path d="M0 0 C1.98 0 3.96 0 6 0 C6 0.33 6 0.66 6 1 C4.02 1 2.04 1 0 1 C0 0.67 0 0.34 0 0 Z " fill="#5DB4D2" transform="translate(94,107)"/>
<path d="M0 0 C1.65 0 3.3 0 5 0 C5 0.33 5 0.66 5 1 C3.35 1 1.7 1 0 1 C0 0.67 0 0.34 0 0 Z " fill="#48BAE2" transform="translate(100,106)"/>
<path d="M0 0 C1.65 0 3.3 0 5 0 C5 0.33 5 0.66 5 1 C3.35 1 1.7 1 0 1 C0 0.67 0 0.34 0 0 Z " fill="#49B9E6" transform="translate(89,106)"/>
<path d="M0 0 C0.99 0.495 0.99 0.495 2 1 C1.67 1.66 1.34 2.32 1 3 C0.67 2.01 0.34 1.02 0 0 Z " fill="#4CBBDE" transform="translate(18,120)"/>
<path d="M0 0 C0 3 0 3 0 3 Z " fill="#45BCDF" transform="translate(122,93)"/>
<path d="M0 0 C1 4 1 4 1 4 Z " fill="#46BCE2" transform="translate(127,62)"/>
<path d="M0 0 C1 4 1 4 1 4 Z " fill="#5FB2D7" transform="translate(66,62)"/>
<path d="M0 0 C0.33 0.66 0.66 1.32 1 2 C0.34 1.67 -0.32 1.34 -1 1 C-0.67 0.67 -0.34 0.34 0 0 Z " fill="#4DBAE3" transform="translate(49,122)"/>
<path d="M0 0 C3 1 3 1 3 1 Z " fill="#50B8DA" transform="translate(105,105)"/>
<path d="" fill="#47BCE2" transform="translate(0,0)"/>
<path d="" fill="#51B8D9" transform="translate(0,0)"/>
<path d="" fill="#52B6E2" transform="translate(0,0)"/>
<path d="" fill="#50BBD7" transform="translate(0,0)"/>
<path d="M0 0 C2 1 2 1 2 1 Z " fill="#4ABCE3" transform="translate(42,127)"/>
<path d="M0 0 C2 1 2 1 2 1 Z " fill="#4BBBE3" transform="translate(25,127)"/>
<path d="M0 0 C2 1 2 1 2 1 Z " fill="#4BBBE3" transform="translate(44,126)"/>
<path d="M0 0 C2 1 2 1 2 1 Z " fill="#4DBBDE" transform="translate(21,124)"/>
<path d="" fill="#4CBAE3" transform="translate(0,0)"/>
<path d="" fill="#51B8E5" transform="translate(0,0)"/>
<path d="" fill="#4CBAE3" transform="translate(0,0)"/>
<path d="" fill="#50B6E4" transform="translate(0,0)"/>
<path d="" fill="#46BEE3" transform="translate(0,0)"/>
<path d="M0 0 C2 1 2 1 2 1 Z " fill="#55B4E0" transform="translate(86,105)"/>
<path d="M0 0 C2 1 2 1 2 1 Z " fill="#4CB9E3" transform="translate(108,104)"/>
<path d="M0 0 C2 1 2 1 2 1 Z " fill="#48BCDD" transform="translate(84,104)"/>
<path d="M0 0 C2 1 2 1 2 1 Z " fill="#4BB9E2" transform="translate(110,103)"/>
<path d="M0 0 C2 1 2 1 2 1 Z " fill="#4DBADB" transform="translate(82,103)"/>
<path d="M0 0 C2 1 2 1 2 1 Z " fill="#44BCE5" transform="translate(112,102)"/>
<path d="M0 0 C2 1 2 1 2 1 Z " fill="#4ABBDF" transform="translate(80,102)"/>
<path d="M0 0 C2 1 2 1 2 1 Z " fill="#52B7DF" transform="translate(115,100)"/>
<path d="M0 0 C2 1 2 1 2 1 Z " fill="#4CB9EA" transform="translate(76,99)"/>
<path d="" fill="#47BBE5" transform="translate(0,0)"/>
<path d="" fill="#44BCE9" transform="translate(0,0)"/>
<path d="" fill="#45BCE3" transform="translate(0,0)"/>
<path d="" fill="#42BEE4" transform="translate(0,0)"/>
<path d="" fill="#4BBBDE" transform="translate(0,0)"/>
<path d="" fill="#47BBE3" transform="translate(0,0)"/>
<path d="" fill="#46BCE1" transform="translate(0,0)"/>
<path d="" fill="#49BAE2" transform="translate(0,0)"/>
<path d="" fill="#46C0D7" transform="translate(0,0)"/>
<path d="" fill="#46BDDE" transform="translate(0,0)"/>
<path d="" fill="#44C1D9" transform="translate(0,0)"/>
<path d="" fill="#45BCE4" transform="translate(0,0)"/>
<path d="" fill="#47BEE0" transform="translate(0,0)"/>
<path d="" fill="#52B6DF" transform="translate(0,0)"/>
<path d="" fill="#4DBBDC" transform="translate(0,0)"/>
<path d="" fill="#52B8DA" transform="translate(0,0)"/>
<path d="" fill="#4BBBDB" transform="translate(0,0)"/>
<path d="" fill="#55B7DF" transform="translate(0,0)"/>
<path d="" fill="#47B8E7" transform="translate(0,0)"/>
<path d="" fill="#4EB6E3" transform="translate(0,0)"/>
<path d="" fill="#46BFDE" transform="translate(0,0)"/>
<path d="" fill="#45BFE1" transform="translate(0,0)"/>
<path d="" fill="#4BB8E7" transform="translate(0,0)"/>
<path d="" fill="#49BCE4" transform="translate(0,0)"/>
<path d="" fill="#3EBFE8" transform="translate(0,0)"/>
<path d="" fill="#4ABCE3" transform="translate(0,0)"/>
<path d="" fill="#46BDE1" transform="translate(0,0)"/>
<path d="" fill="#4DBADD" transform="translate(0,0)"/>
<path d="" fill="#48BDD7" transform="translate(0,0)"/>
<path d="" fill="#47BCE3" transform="translate(0,0)"/>
<path d="" fill="#4CBADA" transform="translate(0,0)"/>
<path d="" fill="#4ABBDB" transform="translate(0,0)"/>
<path d="" fill="#4CB7E1" transform="translate(0,0)"/>
<path d="" fill="#55B8D1" transform="translate(0,0)"/>
<path d="" fill="#52B6DE" transform="translate(0,0)"/>
<path d="" fill="#4EBAD6" transform="translate(0,0)"/>
<path d="" fill="#4FB8E0" transform="translate(0,0)"/>
<path d="" fill="#49BCD9" transform="translate(0,0)"/>
<path d="" fill="#4EB8E2" transform="translate(0,0)"/>
<path d="M0 0 C2 1 2 1 2 1 Z " fill="#53B7D7" transform="translate(96,14)"/>
<path d="" fill="#4ABCE3" transform="translate(0,0)"/>
<path d="" fill="#4BBBE3" transform="translate(0,0)"/>
<path d="" fill="#4ABDDF" transform="translate(0,0)"/>
<path d="" fill="#4FBAE3" transform="translate(0,0)"/>
<path d="" fill="#4DBAE3" transform="translate(0,0)"/>
<path d="" fill="#4DBAE5" transform="translate(0,0)"/>
<path d="" fill="#4DBAE5" transform="translate(0,0)"/>
<path d="" fill="#4ABCE3" transform="translate(0,0)"/>
<path d="" fill="#51B8DE" transform="translate(0,0)"/>
<path d="" fill="#50BADB" transform="translate(0,0)"/>
<path d="" fill="#52B9DF" transform="translate(0,0)"/>
<path d="" fill="#49BAE6" transform="translate(0,0)"/>
<path d="" fill="#49BAE6" transform="translate(0,0)"/>
<path d="" fill="#4DBAE7" transform="translate(0,0)"/>
<path d="" fill="#4ABCD6" transform="translate(0,0)"/>
<path d="" fill="#4ABDDF" transform="translate(0,0)"/>
<path d="" fill="#42C1D4" transform="translate(0,0)"/>
<path d="" fill="#4BBBE7" transform="translate(0,0)"/>
<path d="" fill="#4DB9E2" transform="translate(0,0)"/>
<path d="" fill="#4CBAE0" transform="translate(0,0)"/>
<path d="" fill="#47BCE0" transform="translate(0,0)"/>
<path d="" fill="#42BFDC" transform="translate(0,0)"/>
<path d="" fill="#4BBBE5" transform="translate(0,0)"/>
<path d="" fill="#4DB7E8" transform="translate(0,0)"/>
<path d="" fill="#4ABBE0" transform="translate(0,0)"/>
<path d="" fill="#4BBCE1" transform="translate(0,0)"/>
<path d="" fill="#45BEDC" transform="translate(0,0)"/>
<path d="" fill="#53B8DD" transform="translate(0,0)"/>
<path d="" fill="#51B7E2" transform="translate(0,0)"/>
<path d="" fill="#4DBBDF" transform="translate(0,0)"/>
<path d="" fill="#4DB7EA" transform="translate(0,0)"/>
<path d="" fill="#4BBCE1" transform="translate(0,0)"/>
<path d="" fill="#45BFE3" transform="translate(0,0)"/>
<path d="" fill="#4BBCDF" transform="translate(0,0)"/>
<path d="" fill="#52B8DA" transform="translate(0,0)"/>
<path d="" fill="#44BEE0" transform="translate(0,0)"/>
<path d="" fill="#4EB8DB" transform="translate(0,0)"/>
<path d="" fill="#59B5D8" transform="translate(0,0)"/>
<path d="" fill="#46BBDF" transform="translate(0,0)"/>
<path d="" fill="#007492" transform="translate(0,0)"/>
<path d="" fill="#007494" transform="translate(0,0)"/>
<path d="" fill="#4ABCDA" transform="translate(0,0)"/>
<path d="" fill="#4ABBE0" transform="translate(0,0)"/>
<path d="" fill="#47BDDE" transform="translate(0,0)"/>
<path d="" fill="#47BCE0" transform="translate(0,0)"/>
<path d="" fill="#4CBADE" transform="translate(0,0)"/>
<path d="" fill="#44BEE0" transform="translate(0,0)"/>
</svg>
